<svg width="22" height="23" viewBox="0 0 22 23" fill="none" xmlns="http://www.w3.org/2000/svg">
<g clip-path="url(#clip0_10_765)">
<path d="M5.74423 16.9998C5.61399 16.8693 5.53989 16.693 5.53774 16.5086C5.53559 16.3242 5.60555 16.1462 5.73271 16.0126L15.2428 6.01238C15.3054 5.93977 15.382 5.88063 15.4682 5.83855C15.5543 5.79647 15.648 5.77233 15.7437 5.76759C15.8395 5.76285 15.9352 5.77762 16.025 5.81099C16.1148 5.84436 16.197 5.89565 16.2664 5.96173C16.3358 6.02781 16.391 6.10731 16.4288 6.1954C16.4666 6.28349 16.486 6.37833 16.486 6.47417C16.486 6.57001 16.4665 6.66485 16.4287 6.75292C16.3909 6.841 16.3356 6.92047 16.2661 6.98652L6.75371 16.9876C6.6246 17.1224 6.44739 17.2008 6.26073 17.2056C6.07406 17.2103 5.89309 17.1411 5.75729 17.0129L5.74423 16.9998Z" fill="black"/>
<path d="M15.2551 16.9998L15.242 16.9868L5.73347 6.98652C5.66402 6.92047 5.60872 6.841 5.57093 6.75292C5.53313 6.66485 5.51363 6.57001 5.51361 6.47417C5.51359 6.37833 5.53305 6.28349 5.5708 6.1954C5.60855 6.10731 5.66382 6.02781 5.73323 5.96173C5.80265 5.89565 5.88477 5.84436 5.97461 5.81099C6.06445 5.77762 6.16014 5.76285 6.25586 5.76759C6.35158 5.77233 6.44535 5.79647 6.53145 5.83855C6.61756 5.88063 6.69422 5.93977 6.75677 6.01238L16.2692 16.0134C16.3884 16.1496 16.4509 16.3263 16.4437 16.5071C16.4366 16.6879 16.3605 16.8591 16.2309 16.9855C16.1014 17.1119 15.9284 17.1838 15.7474 17.1865C15.5665 17.1892 15.3914 17.1224 15.2582 16.9998L15.2551 16.9998Z" fill="black"/>
</g>
<defs>
<clipPath id="clip0_10_765">
<rect width="12" height="12" fill="white" transform="translate(5 5.5)"/>
</clipPath>
</defs>
</svg>
