<svg width="65" height="27" viewBox="0 0 65 27" fill="none" xmlns="http://www.w3.org/2000/svg">
<g clip-path="url(#clip0_5_201)">
<path d="M60.6401 6.19784H62.4899V13.5968H60.6401V6.19784ZM62.6822 1.12582C62.6822 0.502469 62.1974 0 61.574 0C60.9503 0 60.4482 0.502469 60.4482 1.12582C60.4482 1.74918 60.9503 2.23444 61.574 2.23444C62.1974 2.23444 62.6822 1.74918 62.6822 1.12582Z" fill="#1079C7"/>
<path d="M56.6767 7.78311H54.8268V0.384155H56.6767V7.78311ZM54.6298 12.8556C54.6298 13.4789 55.1146 13.9814 55.7384 13.9814C56.3618 13.9814 56.8638 13.4789 56.8638 12.8556C56.8638 12.2318 56.3618 11.7469 55.7384 11.7469C55.1146 11.7469 54.6298 12.2318 54.6298 12.8556Z" fill="#316EBF"/>
<path d="M65.2647 5.00882H57.8657V3.15893H65.2647V5.00882ZM52.7937 2.96667C52.1699 2.96667 51.6679 3.45151 51.6679 4.07529C51.6679 4.69865 52.1699 5.20112 52.7937 5.20112C53.4171 5.20112 53.9023 4.69865 53.9023 4.07529C53.9023 3.45151 53.4171 2.96667 52.7937 2.96667Z" fill="#316EBF"/>
<path d="M52.0521 8.9722H59.451V10.8216H52.0521V8.9722ZM64.5235 11.0143C65.1468 11.0143 65.6489 10.5295 65.6489 9.90573C65.6489 9.28238 65.1468 8.77991 64.5235 8.77991C63.8997 8.77991 63.4148 9.28238 63.4148 9.90573C63.4148 10.5295 63.8997 11.0143 64.5235 11.0143Z" fill="#1079C7"/>
<path d="M0 9.74224H2.14238V22.8249H0V9.74224ZM24.0721 10.825C24.0721 10.144 23.5425 9.59597 22.8619 9.59597C22.1809 9.59597 21.6324 10.144 21.6324 10.825C21.6324 11.5056 22.1809 12.0352 22.8619 12.0352C23.5425 12.0352 24.0721 11.5056 24.0721 10.825ZM23.9017 13.5964H21.8213V22.8249H23.9017V13.5964ZM12.0967 17.2612H12.095C12.095 14.7213 10.4762 13.3318 7.7943 13.3318C5.93284 13.3318 4.44479 14.1737 4.27142 14.2584V22.8254H6.35185V15.4501C6.57856 15.3499 7.1959 15.1098 7.89798 15.1098C9.31376 15.1098 10.0163 15.9022 10.0163 17.2376V22.8254H12.0967V17.2612ZM43.8904 17.2612C43.8904 14.8474 42.1928 13.3301 40.0238 13.3301C38.7663 13.3301 38.195 13.6996 38.1468 13.7293V9.26343H36.0668V22.8254H38.1468V15.4505C38.2148 15.4161 38.8356 15.1098 39.6306 15.1098C41.0313 15.1098 41.8117 15.8687 41.8117 17.2376V22.8254H43.8917V17.2612H43.8904ZM20.2463 20.2063C20.2463 18.6606 19.1356 17.9771 18.0115 17.4896C17.8157 17.4045 17.2156 17.1567 17.1145 17.1137C16.3324 16.7794 15.7835 16.5505 15.7835 15.9246C15.7835 15.4544 16.1534 15.007 17.2582 15.007C18.3238 15.007 19.2457 15.5538 19.3404 15.6101L20.1138 14.1638C20.0571 14.1259 19.0362 13.3314 17.1261 13.3314C15.1025 13.3314 13.6996 14.4275 13.6996 16.0915C13.6996 17.5808 14.7549 18.2408 15.7534 18.652C15.8807 18.7045 16.7643 19.0784 16.9588 19.1554C17.7495 19.4694 18.1285 19.7942 18.1285 20.3143C18.1285 20.8792 17.6028 21.395 16.4847 21.395C15.3133 21.395 14.3096 20.7406 14.1431 20.6417L13.3628 22.0876C13.4763 22.1822 14.7618 23.071 16.7291 23.071C18.7712 23.071 20.2463 22.0218 20.2463 20.2063ZM34.032 14.2584V22.1547C34.032 24.9927 32.7453 27 29.413 27C28.106 27 27.1665 26.7544 27.0039 26.7101V25.0056C27.2228 25.0706 28.1822 25.3231 29.1514 25.3231C31.2254 25.3231 31.952 24.2936 31.952 22.8792V22.7058C31.8126 22.769 31.1708 23.0706 30.1585 23.0706C27.1716 23.0706 25.5412 20.8435 25.5412 18.2111C25.5412 15.4312 27.2646 13.3318 30.3826 13.3318C32.2359 13.3318 33.7864 14.1449 34.032 14.2584ZM31.952 15.4501C31.8195 15.3937 31.1957 15.1098 30.3448 15.1098C28.7939 15.1098 27.6401 16.2632 27.6401 18.2111C27.6401 20.3018 28.9561 21.2943 30.3461 21.2943C31.157 21.2943 31.8763 21.0091 31.952 20.9527V15.4501ZM47.8448 15.2987H50.2027V13.5964H47.8254V10.8225H45.7647V19.1403C45.7647 21.6604 46.8987 22.8254 49.3732 22.8254H50.2027V21.0857C48.5253 21.0857 47.8448 20.6034 47.8448 18.874V15.2987Z" fill="#1079C7"/>
<path d="M52.9249 21.5382C52.4371 21.5382 52.0529 21.9348 52.0529 22.4085V22.4132C52.0529 22.8864 52.4324 23.2779 52.9202 23.2779C53.408 23.2779 53.7926 22.8813 53.7926 22.4085V22.4029C53.7926 21.9301 53.4128 21.5382 52.9249 21.5382ZM53.6532 22.4085C53.6532 22.812 53.3379 23.1433 52.9202 23.1433C52.5051 23.1433 52.1923 22.8172 52.1923 22.4128V22.4085C52.1923 22.0041 52.5072 21.6733 52.9249 21.6733C53.3405 21.6733 53.6532 21.9998 53.6532 22.4038V22.4085ZM53.131 22.5083C53.2437 22.467 53.3211 22.3771 53.3211 22.2347V22.2304C53.3211 22.1521 53.2962 22.0858 53.248 22.0377C53.1861 21.9753 53.0944 21.9413 52.9748 21.9413H52.5829V22.8245H52.7778V22.5397H52.9314L53.1194 22.8245H53.3465L53.131 22.5083ZM53.1241 22.2463C53.1241 22.3199 53.0712 22.3728 52.9727 22.3728H52.7778V22.1138H52.968C53.0643 22.1138 53.1241 22.1573 53.1241 22.2416V22.2463Z" fill="#1079C7"/>
</g>
<defs>
<clipPath id="clip0_5_201">
<rect width="65.6489" height="27" fill="white"/>
</clipPath>
</defs>
</svg>
