<svg width="62" height="62" viewBox="0 0 62 62" fill="none" xmlns="http://www.w3.org/2000/svg">
<g clip-path="url(#clip0_178_710)">
<path d="M40.6818 60.9983C40.4532 60.9983 40.3223 60.9983 40.1931 60.9983C29.7687 60.9983 19.3461 61.0035 8.9217 60.9948C5.3195 60.9913 2.49219 58.9982 1.38745 55.7311C1.13438 54.9807 1.00698 54.2128 1.00698 53.4222C1.00698 38.4863 0.986038 23.5487 1.02094 8.61282C1.02967 4.75931 3.66325 1.77842 7.45917 1.10824C7.94959 1.02098 8.45746 1.014 8.9566 1.014C16.7422 1.00876 24.5277 1.02098 32.3116 1.00004C33.9137 0.994802 35.2209 1.54107 36.3431 2.67199C40.2786 6.63196 44.2264 10.578 48.1864 14.5135C49.3173 15.6375 49.8618 16.9551 49.8496 18.552C49.8234 22.1054 49.8321 25.6604 49.8513 29.2138C49.8531 29.6623 49.785 29.7897 49.2981 29.7269C47.8007 29.5314 46.3032 29.6065 44.8006 29.8002C42.6068 30.0829 41.0762 31.1911 40.3292 33.2802C40.1198 33.8631 39.8755 34.0202 39.2577 33.905C36.9818 33.4827 35.2314 34.3518 33.8753 36.1808C32.87 37.5351 32.041 38.9785 31.404 40.5387C30.5803 42.558 30.8002 44.4254 32.2243 46.0869C32.6414 46.572 32.6065 46.8687 32.2103 47.3347C30.8106 48.9822 30.5855 50.8235 31.3901 52.8253C32.1353 54.6805 33.1196 56.3873 34.4373 57.8917C35.748 59.3874 37.4339 59.8586 39.3432 59.4904C39.9523 59.3735 40.1582 59.5881 40.3031 60.0908C40.3868 60.377 40.5317 60.6457 40.68 60.9965L40.6818 60.9983ZM23.9972 28.9101C27.6814 28.9101 31.3674 28.9136 35.0516 28.9084C36.3309 28.9066 37.2663 28.0253 37.2785 26.8385C37.2908 25.65 36.3553 24.7267 35.0952 24.7267C27.7041 24.7215 20.313 24.725 12.9218 24.7215C12.4942 24.7215 12.1015 24.8227 11.7438 25.0461C10.9601 25.533 10.6006 26.4667 10.8432 27.3725C11.0893 28.2905 11.9096 28.9049 12.9445 28.9084C16.6287 28.9153 20.3147 28.9101 23.9989 28.9118L23.9972 28.9101ZM44.6784 18.4386C40.5998 14.3564 36.4879 10.2411 32.4163 6.16773C32.4163 9.33361 32.3901 12.6007 32.4285 15.8678C32.4442 17.2396 33.6222 18.4089 35.0045 18.4246C38.2698 18.463 41.5352 18.4368 44.6784 18.4368V18.4386ZM19.0843 48.4395C21.1088 48.4395 23.1333 48.4395 25.1595 48.4395C25.5976 48.4395 26.0252 48.4115 26.4213 48.1881C27.2468 47.7187 27.6692 46.7762 27.451 45.8495C27.2294 44.9018 26.3672 44.2561 25.2572 44.2526C21.1856 44.2439 17.1139 44.2439 13.044 44.2526C11.7193 44.2561 10.7682 45.1392 10.7542 46.3364C10.7402 47.5546 11.7001 48.4325 13.0754 48.436C15.0789 48.4429 17.0807 48.4377 19.0843 48.436V48.4395ZM19.1367 38.6922C21.0966 38.6922 23.0547 38.6922 25.0147 38.6905C25.2538 38.6905 25.4946 38.687 25.7285 38.6469C26.8507 38.4531 27.5575 37.5526 27.4877 36.4234C27.4231 35.364 26.5749 34.5193 25.4649 34.5158C21.2414 34.4984 17.0179 34.5089 12.7944 34.5089C12.2691 34.5089 11.8188 34.6991 11.4366 35.0534C10.8066 35.6363 10.5954 36.5229 10.8921 37.324C11.201 38.1582 11.9846 38.6835 12.9951 38.6905C15.0423 38.7027 17.0877 38.694 19.1349 38.694L19.1367 38.6922Z" fill="#4B7BB3"/>
<path d="M56.3786 56.8132C55.8166 56.7434 55.2529 56.6876 54.6927 56.6038C53.375 56.4066 52.7991 56.726 52.286 57.9581C52.2109 58.1379 52.1097 58.3124 52.0626 58.4991C51.6402 60.1449 50.5529 60.8814 48.888 60.9442C47.5127 60.9966 46.1462 61.0263 44.7849 60.7767C43.9192 60.6196 43.3223 60.1571 43.0099 59.3281C42.8407 58.8813 42.6434 58.445 42.4602 58.0052C41.9244 56.7207 41.3746 56.4083 40.0151 56.6108C39.8214 56.6387 39.6154 56.6212 39.4304 56.6753C37.7637 57.1623 36.638 56.4746 35.7497 55.0924C35.0289 53.9719 34.3692 52.8306 33.905 51.581C33.5926 50.7415 33.6624 49.9648 34.247 49.2545C34.5647 48.8671 34.8212 48.4238 35.1703 48.0713C35.9207 47.3121 35.9277 46.1078 35.1633 45.3399C34.8439 45.0188 34.6101 44.6122 34.3151 44.2631C33.6781 43.5039 33.5751 42.6854 33.9294 41.7657C34.535 40.1862 35.364 38.7481 36.453 37.4514C36.9696 36.8371 37.5997 36.5317 38.4007 36.6172C38.9627 36.6783 39.5264 36.7393 40.0867 36.8249C41.3048 37.0116 41.9314 36.6643 42.4043 35.5194C42.5946 35.0587 42.8075 34.6049 42.9838 34.1372C43.3031 33.2855 43.8965 32.7898 44.7936 32.6362C46.5057 32.3413 48.216 32.3413 49.9299 32.6362C50.7973 32.7863 51.3924 33.2523 51.7083 34.0813C51.8863 34.5473 52.0975 35.0011 52.2877 35.4636C52.7973 36.6887 53.3628 37.0029 54.6996 36.8039C54.8934 36.776 55.0976 36.7934 55.2843 36.7393C56.9493 36.2542 58.0767 36.9313 58.965 38.3205C59.6946 39.4619 60.3682 40.619 60.8307 41.8931C61.1187 42.6906 61.0384 43.4289 60.5113 44.1095C60.178 44.5389 59.8481 44.9734 59.5183 45.4063C58.7765 46.3784 58.7783 47.0346 59.5218 48.0137C59.8638 48.4639 60.2111 48.9125 60.5515 49.3645C61.0192 49.9858 61.1152 50.6717 60.8639 51.4012C60.2722 53.129 59.3647 54.6788 58.1779 56.0645C57.7085 56.6125 57.1063 56.8656 56.3786 56.8167V56.8132ZM51.5425 46.7326C51.553 44.4115 49.6855 42.5231 47.3713 42.5179C45.0571 42.5126 43.1705 44.3958 43.1723 46.7065C43.1723 48.9893 45.0362 50.8706 47.3137 50.8898C49.6332 50.909 51.532 49.0399 51.5425 46.7326Z" fill="#4B7BB3"/>
</g>
<defs>
<clipPath id="clip0_178_710">
<rect width="60" height="60" fill="white" transform="translate(1 1)"/>
</clipPath>
</defs>
</svg>
