<svg width="10" height="10" viewBox="0 0 10 10" fill="none" xmlns="http://www.w3.org/2000/svg">
<circle cx="5" cy="5" r="4.5" stroke="white"/>
<path d="M5.45253 7.91675C4.83308 7.91675 4.30336 7.78996 3.86337 7.53639C3.42339 7.28282 3.08472 6.92263 2.84736 6.45582C2.61579 5.98325 2.5 5.42712 2.5 4.78743C2.5 4.30909 2.56658 3.87975 2.69973 3.49939C2.83288 3.11327 3.02393 2.78477 3.27287 2.51391C3.5276 2.23729 3.83732 2.02694 4.20205 1.88286C4.57256 1.73879 4.98939 1.66675 5.45253 1.66675C5.7941 1.66675 6.12119 1.71285 6.43381 1.80506C6.75222 1.89727 7.02721 2.02982 7.25878 2.20271C7.3572 2.2661 7.42088 2.3439 7.44983 2.43611C7.48456 2.52256 7.49035 2.60612 7.46719 2.6868C7.44983 2.76749 7.4122 2.83664 7.3543 2.89427C7.29641 2.94614 7.22115 2.97495 7.12852 2.98072C7.04168 2.98648 6.94616 2.95478 6.84195 2.88563C6.65091 2.74155 6.4396 2.63494 6.20803 2.56578C5.97646 2.49662 5.73331 2.46205 5.47858 2.46205C5.0386 2.46205 4.66808 2.55425 4.36704 2.73867C4.066 2.91732 3.83732 3.17954 3.68101 3.52532C3.5247 3.8711 3.44655 4.29181 3.44655 4.78743C3.44655 5.28305 3.5247 5.70663 3.68101 6.05817C3.83732 6.40395 4.066 6.66905 4.36704 6.85347C4.66808 7.03212 5.0386 7.12145 5.47858 7.12145C5.73331 7.12145 5.97646 7.08687 6.20803 7.01772C6.44539 6.9428 6.66827 6.8333 6.87669 6.68922C6.9809 6.62583 7.07352 6.59702 7.15457 6.60278C7.24141 6.60854 7.31378 6.63736 7.37167 6.68922C7.42956 6.74109 7.46719 6.80737 7.48456 6.88805C7.50772 6.96297 7.50482 7.04365 7.47588 7.1301C7.45272 7.21078 7.39772 7.27993 7.31088 7.33756C7.07352 7.52774 6.79274 7.67182 6.46855 7.76979C6.14435 7.86776 5.80567 7.91675 5.45253 7.91675Z" fill="white"/>
</svg>
