<svg width="62" height="62" viewBox="0 0 62 62" fill="none" xmlns="http://www.w3.org/2000/svg">
<g clip-path="url(#clip0_178_687)">
<path d="M24.9062 1H29.2427C29.2767 1.12896 29.3834 1.10434 29.476 1.11137C32.7984 1.37515 35.9836 2.19812 38.9203 3.76436C48.1934 8.71278 53.034 16.4748 53.4783 26.9824C53.5006 27.5076 53.3623 27.6202 52.8488 27.6178C48.1618 27.5955 43.4748 27.6049 38.7878 27.6049C37.129 27.6049 35.5147 27.8652 34.0211 28.6038C29.8089 30.6846 27.6612 34.1079 27.6166 38.7937C27.5709 43.4994 27.5991 48.2075 27.6178 52.9132C27.6202 53.3869 27.4865 53.4853 27.0352 53.4771C21.3892 53.3693 16.2462 51.7327 11.7081 48.3576C6.18171 44.2485 2.76202 38.7913 1.44314 32.0199C1.28605 31.2122 1.31419 30.3716 1 29.5944V24.9074C1.24033 24.4338 1.19695 23.9074 1.2755 23.4033C2.068 18.2896 4.13013 13.7573 7.57093 9.88628C11.5604 5.39742 16.5147 2.5803 22.4232 1.44666C23.2497 1.28839 24.1067 1.30598 24.9062 1ZM28.9988 18.8124C28.9988 18.442 28.9988 18.0703 28.9988 17.6999C28.9988 15.279 29.0082 12.8593 28.9953 10.4385C28.9883 9.09965 27.8921 8.24736 26.6964 8.62134C25.9285 8.86167 25.4853 9.52872 25.4853 10.4795C25.483 15.2614 25.476 20.0434 25.4959 24.8253C25.4982 25.3423 25.3904 25.5041 24.8406 25.4982C21.9133 25.4678 18.9848 25.4795 16.0574 25.4865C14.9613 25.4889 14.1934 26.2204 14.1899 27.2298C14.1876 28.2755 14.9812 28.9965 16.1641 28.9977C19.7362 29.0023 23.3083 29 26.8804 28.9988C28.3247 28.9988 28.9977 28.3283 28.9988 26.8921C29.0012 24.1981 28.9988 21.5053 28.9988 18.8113V18.8124Z" fill="#4B7BB3"/>
<path d="M32.4068 61C31.3974 60.5287 31.1008 59.7221 31.1055 58.6377C31.1372 52.0011 31.1149 45.3657 31.1243 38.7292C31.129 35.0316 33.4033 32.143 36.9437 31.3048C37.5721 31.1559 38.2145 31.1184 38.8605 31.1184C43.6624 31.1219 48.4642 31.1618 53.2649 31.1078C57.5018 31.0609 60.4478 34.1301 60.8933 37.3341C60.8992 37.3751 60.9637 37.4079 61 37.4455V51.0398C60.7597 51.2509 60.8019 51.5627 60.7268 51.83C59.8253 55.0504 56.9168 57.2274 53.4373 57.2391C48.8312 57.2544 44.2263 57.2462 39.6202 57.2356C39.2321 57.2356 38.9179 57.3317 38.5909 57.5416C36.8007 58.6917 35.1161 60.0047 33.2274 61.0011H32.4068V61ZM46.0492 42.1559V42.1629C47.8839 42.1629 49.7186 42.1711 51.5545 42.1594C52.6975 42.1524 53.4865 41.4138 53.4748 40.3974C53.4631 39.4056 52.6858 38.6565 51.5826 38.653C47.8933 38.6389 44.204 38.6459 40.5147 38.6494C39.9883 38.6494 39.5088 38.8065 39.1454 39.2063C38.6553 39.7456 38.5193 40.3822 38.789 41.0527C39.0668 41.7444 39.6061 42.1453 40.3693 42.15C42.2626 42.1618 44.1559 42.1536 46.0492 42.1536V42.1559ZM42.3822 46.1969C41.7386 46.1969 41.0938 46.1793 40.4502 46.2004C39.4103 46.2356 38.6835 46.939 38.6553 47.9062C38.6284 48.8347 39.3142 49.633 40.3142 49.6752C41.6776 49.7327 43.0457 49.7339 44.4091 49.6752C45.4162 49.6307 46.0797 48.8429 46.0516 47.8968C46.0234 46.9496 45.313 46.2426 44.313 46.2028C43.6706 46.177 43.0258 46.1981 42.381 46.1958L42.3822 46.1969Z" fill="#4B7BB3"/>
</g>
<defs>
<clipPath id="clip0_178_687">
<rect width="60" height="60" fill="white" transform="translate(1 1)"/>
</clipPath>
</defs>
</svg>
