<svg width="62" height="62" viewBox="0 0 62 62" fill="none" xmlns="http://www.w3.org/2000/svg">
<path d="M19.55 51.4698C18.5668 51.3826 17.6239 51.5037 16.6842 51.3519C13.8797 50.8966 11.742 48.4586 11.6758 45.5927C11.608 42.6962 13.6423 40.1355 16.4501 39.5801C17.288 39.4138 17.2686 39.417 17.1589 38.5903C16.6099 34.436 16.0723 30.2785 15.5314 26.1242C14.9921 21.9893 14.4528 17.8528 13.9103 13.7179C13.7344 12.3794 13.5745 11.0393 13.3598 9.70566C12.9917 7.40651 11.0719 5.73381 8.74694 5.69506C6.81107 5.66277 4.87359 5.69506 2.93772 5.67892C1.52981 5.666 0.622424 4.37435 1.15362 3.15373C1.42164 2.53697 1.91085 2.08327 2.57605 2.08004C5.01406 2.06551 7.46497 1.85723 9.88844 2.17692C13.5858 2.66452 16.4678 5.63048 16.9877 9.32301C17.0781 9.96076 17.1718 10.6001 17.2331 11.2411C17.2638 11.5656 17.3768 11.7239 17.7175 11.6819C17.8564 11.6641 18 11.6787 18.1405 11.6787C31.6351 11.6787 45.1313 11.6787 58.6259 11.6787C60.5763 11.6787 61.2318 12.4004 60.9299 14.3217C59.8852 20.9673 58.8422 27.6129 57.754 34.2504C57.1905 37.6813 54.583 39.9014 51.0293 40.1887C46.4875 40.5553 41.9506 40.975 37.412 41.3674C33.0139 41.7468 28.6142 42.1182 24.2145 42.4976C21.9848 42.6897 19.7567 42.8899 17.527 43.0869C16.2224 43.2015 15.2698 44.2381 15.3053 45.4991C15.3425 46.7714 16.3354 47.7853 17.64 47.8031C19.6162 47.8305 21.5941 47.8111 23.5703 47.8079C31.4171 47.7934 39.2639 47.774 47.1108 47.7675C50.172 47.7643 52.4485 49.5242 53.1073 52.3626C53.8274 55.4707 51.6897 58.7353 48.5574 59.3117C45.2718 59.9156 42.1524 57.7391 41.6632 54.531C41.5227 53.6123 41.5776 52.7194 41.8618 51.8476C41.9845 51.4746 41.9005 51.4036 41.5373 51.4052C37.9674 51.4197 34.396 51.4342 30.8262 51.4181C30.2175 51.4149 30.4823 51.7152 30.5549 51.9687C31.4704 55.1429 29.6669 58.3753 26.4878 59.2536C23.3943 60.1077 20.1749 58.2493 19.3385 55.1187C19.0124 53.8965 19.1028 52.6871 19.5484 51.473L19.55 51.4698ZM50.4642 19.9598C50.4981 19.054 49.8765 18.25 49.003 18.0675C48.1457 17.8883 47.2238 18.413 46.9428 19.2671C46.8556 19.5319 46.825 19.8193 46.7975 20.0986C46.4278 23.972 46.0613 27.8454 45.7012 31.7187C45.6027 32.7779 46.3196 33.6804 47.3045 33.7773C48.3588 33.8806 49.2032 33.1638 49.3163 32.061C49.4212 31.039 49.5197 30.0153 49.615 28.9917C49.8991 25.9805 50.1801 22.971 50.4626 19.9598H50.4642ZM29.4264 31.8931C29.0437 27.8776 28.6643 23.8235 28.2671 19.7709C28.1573 18.652 27.3 17.94 26.265 18.0481C25.2269 18.1563 24.5552 19.0944 24.6763 20.2278C24.7893 21.2902 24.8765 22.3558 24.9766 23.4182C25.2559 26.3487 25.5239 29.2791 25.8226 32.2063C25.9244 33.196 26.7882 33.8548 27.7747 33.7773C28.6933 33.7046 29.4312 32.8796 29.4264 31.8915V31.8931ZM35.7474 25.9224C35.7474 27.8583 35.7458 29.7958 35.7474 31.7316C35.7474 32.97 36.4643 33.7789 37.5525 33.7821C38.6375 33.7854 39.3753 32.9668 39.377 31.7445C39.3802 27.8518 39.3802 23.9591 39.377 20.0647C39.377 18.8522 38.6197 18.0304 37.5347 18.0433C36.4724 18.0562 35.749 18.8635 35.7474 20.0534C35.7442 22.0103 35.7474 23.9672 35.7474 25.924V25.9224ZM27.166 53.6365C27.1692 52.4191 26.2118 51.4488 24.9976 51.4391C23.7705 51.4294 22.8002 52.3739 22.7856 53.5881C22.7711 54.8377 23.7382 55.8194 24.9815 55.8178C26.1956 55.8146 27.1627 54.8491 27.166 53.6365ZM49.615 53.6317C49.6456 52.4288 48.6866 51.431 47.4708 51.4003C46.2631 51.3697 45.2572 52.3142 45.2104 53.5203C45.1652 54.7231 46.1759 55.7774 47.3901 55.7952C48.58 55.8129 49.5843 54.8361 49.6133 53.63L49.615 53.6317Z" fill="#4B7BB3"/>
</svg>
