<svg width="32" height="32" viewBox="0 0 32 32" fill="none" xmlns="http://www.w3.org/2000/svg">
<rect x="0.5" y="0.5" width="31" height="31" rx="9.5" fill="#4B7BB3" fill-opacity="0.25"/>
<rect x="0.5" y="0.5" width="31" height="31" rx="9.5" stroke="url(#paint0_linear_1027_2283)"/>
<path d="M23.3846 12.8671H8.61538C8.27897 12.8671 8 12.5881 8 12.2517C8 11.9153 8.27897 11.6364 8.61538 11.6364H23.3846C23.721 11.6364 24 11.9153 24 12.2517C24 12.5881 23.721 12.8671 23.3846 12.8671Z" fill="white"/>
<path d="M23.3846 16.9697H8.61538C8.27897 16.9697 8 16.6907 8 16.3543C8 16.0179 8.27897 15.7389 8.61538 15.7389H23.3846C23.721 15.7389 24 16.0179 24 16.3543C24 16.6907 23.721 16.9697 23.3846 16.9697Z" fill="white"/>
<path d="M23.3846 21.0723H8.61538C8.27897 21.0723 8 20.7933 8 20.4569C8 20.1205 8.27897 19.8415 8.61538 19.8415H23.3846C23.721 19.8415 24 20.1205 24 20.4569C24 20.7933 23.721 21.0723 23.3846 21.0723Z" fill="white"/>
<defs>
<linearGradient id="paint0_linear_1027_2283" x1="0" y1="0" x2="32.2073" y2="0.210029" gradientUnits="userSpaceOnUse">
<stop stop-color="white"/>
<stop offset="0.6" stop-color="white" stop-opacity="0.75"/>
<stop offset="1" stop-color="white" stop-opacity="0.25"/>
</linearGradient>
</defs>
</svg>
