<svg width="32" height="32" viewBox="0 0 32 32" fill="none" xmlns="http://www.w3.org/2000/svg">
<path d="M20.1997 11.2005C19.1778 11.197 18.1652 11.395 17.2199 11.7833C16.2746 12.1715 15.4151 12.7423 14.6906 13.4631C13.9661 14.1838 13.3909 15.0404 12.9978 15.9837C12.6047 16.927 12.4015 17.9386 12.3997 18.9605V26.8005C12.3997 27.1187 12.5261 27.424 12.7512 27.649C12.9762 27.8741 13.2815 28.0005 13.5997 28.0005H16.3997C16.718 28.0005 17.0232 27.8741 17.2482 27.649C17.4733 27.424 17.5997 27.1187 17.5997 26.8005V18.9605C17.5995 18.597 17.6758 18.2376 17.8238 17.9056C17.9717 17.5736 18.188 17.2765 18.4585 17.0337C18.7289 16.7909 19.0476 16.6079 19.3935 16.4965C19.7395 16.3851 20.1051 16.3478 20.4664 16.3872C21.1144 16.4688 21.7099 16.7854 22.14 17.2769C22.5701 17.7684 22.8048 18.4007 22.7997 19.0538V26.8005C22.7997 27.1187 22.9261 27.424 23.1512 27.649C23.3762 27.8741 23.6815 28.0005 23.9997 28.0005H26.7997C27.118 28.0005 27.4232 27.8741 27.6482 27.649C27.8733 27.424 27.9997 27.1187 27.9997 26.8005V18.9605C27.998 17.9386 27.7947 16.927 27.4016 15.9837C27.0085 15.0404 26.4333 14.1838 25.7088 13.4631C24.9844 12.7423 24.1249 12.1715 23.1796 11.7833C22.2342 11.395 21.2216 11.197 20.1997 11.2005Z" fill="white"/>
<path d="M8.79994 12.3997H5.19994C4.5372 12.3997 3.99994 12.9369 3.99994 13.5997V26.7997C3.99994 27.4624 4.5372 27.9997 5.19994 27.9997H8.79994C9.46268 27.9997 9.99994 27.4624 9.99994 26.7997V13.5997C9.99994 12.9369 9.46268 12.3997 8.79994 12.3997Z" fill="white"/>
<path d="M7 10C8.65685 10 10 8.65685 10 7C10 5.34315 8.65685 4 7 4C5.34315 4 4 5.34315 4 7C4 8.65685 5.34315 10 7 10Z" fill="white"/>
</svg>
