<svg width="62" height="62" viewBox="0 0 62 62" fill="none" xmlns="http://www.w3.org/2000/svg">
<g clip-path="url(#clip0_1021_147)">
<path d="M32.6948 1L35.7607 1.38525C48.291 3.39795 58.4732 13.6211 60.4976 26.1616L60.8828 29.2319V32.7461L60.2441 37.2021C57.7188 49.1069 47.7988 58.6724 35.7622 60.5928L32.6963 60.978C31.5361 60.9282 30.3438 61.0454 29.188 60.978C24.688 60.7144 19.9624 59.2363 16.0527 56.9717C2.81348 49.3032 -3.01074 32.415 3.98096 18.4565L9.27637 23.7988C5.03272 36.5649 12.9663 50.5015 26.0488 53.2832C42.2998 56.7388 56.544 42.5811 53.2422 26.2803C50.5806 13.1392 36.6162 4.99902 23.8384 9.29102L18.4273 3.98682C21.6587 2.29199 25.271 1.41016 28.9023 1.12158C29.0547 1.10986 29.169 1 29.1851 1H32.6934H32.6948Z" fill="#4B7BB3"/>
<path d="M10.356 1L11.3535 1.7002L21.6821 12.2075C21.9048 12.54 22.1231 12.8286 22.1729 13.2388C22.4175 15.2544 21.9341 17.6816 22.2315 19.7412L32.1089 29.645C33.792 31.4849 31.4365 33.8447 29.5996 32.1587L19.7119 22.2651C17.6568 21.9692 15.2324 22.4526 13.2197 22.2065C12.7642 22.1509 12.417 21.8696 12.0552 21.6147L1.48634 10.9961C0.863786 10.3398 0.835954 9.2251 1.47609 8.56592C1.59328 8.4458 2.34035 8.02979 2.46047 8.02979H8.13234V2.46484C8.13234 1.89062 9.00099 1.14502 9.53566 1H10.3545H10.356Z" fill="#4B7BB3"/>
<path d="M16.1025 25.7324L18.3071 25.7778L22.29 29.8823C21.1621 38.4721 31.9887 43.3618 37.6679 36.6133C42.2544 31.164 38.5512 22.5288 31.4731 22.1977C30.9678 22.1743 30.1548 22.3647 29.8369 22.3222C29.3667 22.2593 26.4048 18.8271 25.7397 18.3335L25.6738 16.1875C34.1274 12.896 43.6826 18.0097 46.1142 26.6289C49.605 39.0054 37.7397 50.1733 25.6196 45.8681C17.5293 42.9941 13.1098 33.8769 16.1054 25.7324H16.1025Z" fill="#4B7BB3"/>
</g>
<defs>
<clipPath id="clip0_1021_147">
<rect width="59.8813" height="60" fill="white" transform="translate(1 1)"/>
</clipPath>
</defs>
</svg>
