<svg width="32" height="32" viewBox="0 0 32 32" fill="none" xmlns="http://www.w3.org/2000/svg">
<rect x="0.5" y="0.5" width="31" height="31" rx="9.5" fill="#D4D4D4" fill-opacity="0.1"/>
<rect x="0.5" y="0.5" width="31" height="31" rx="9.5" stroke="url(#paint0_linear_547_1393)"/>
<g clip-path="url(#clip0_547_1393)">
<path d="M10.7448 21.4997C10.6146 21.3692 10.5405 21.1929 10.5383 21.0085C10.5362 20.8241 10.6061 20.6461 10.7333 20.5125L20.2434 10.5123C20.306 10.4396 20.3826 10.3805 20.4687 10.3384C20.5549 10.2963 20.6486 10.2722 20.7443 10.2675C20.8401 10.2627 20.9357 10.2775 21.0256 10.3109C21.1154 10.3442 21.1976 10.3955 21.267 10.4616C21.3364 10.5277 21.3916 10.6072 21.4294 10.6953C21.4672 10.7834 21.4866 10.8782 21.4866 10.9741C21.4866 11.0699 21.4671 11.1647 21.4293 11.2528C21.3915 11.3409 21.3362 11.4203 21.2667 11.4864L11.7543 21.4874C11.6252 21.6223 11.448 21.7007 11.2613 21.7054C11.0747 21.7102 10.8937 21.6409 10.7579 21.5128L10.7448 21.4997Z" fill="white"/>
<path d="M20.2549 21.4997L20.2419 21.4867L10.7333 11.4864C10.6638 11.4203 10.6085 11.3409 10.5707 11.2528C10.5329 11.1647 10.5134 11.0699 10.5134 10.9741C10.5134 10.8782 10.5328 10.7834 10.5706 10.6953C10.6084 10.6072 10.6636 10.5277 10.733 10.4616C10.8024 10.3955 10.8846 10.3442 10.9744 10.3109C11.0643 10.2775 11.1599 10.2627 11.2557 10.2675C11.3514 10.2722 11.4451 10.2963 11.5313 10.3384C11.6174 10.3805 11.694 10.4396 11.7566 10.5123L21.269 20.5133C21.3882 20.6495 21.4507 20.8261 21.4435 21.007C21.4364 21.1878 21.3603 21.359 21.2307 21.4854C21.1012 21.6118 20.9282 21.6837 20.7472 21.6864C20.5663 21.689 20.3912 21.6222 20.258 21.4997L20.2549 21.4997Z" fill="white"/>
</g>
<defs>
<linearGradient id="paint0_linear_547_1393" x1="0" y1="0" x2="32.2073" y2="0.210029" gradientUnits="userSpaceOnUse">
<stop stop-color="white"/>
<stop offset="0.6" stop-color="white" stop-opacity="0.75"/>
<stop offset="1" stop-color="white" stop-opacity="0.25"/>
</linearGradient>
<clipPath id="clip0_547_1393">
<rect width="12" height="12" fill="white" transform="translate(10 10)"/>
</clipPath>
</defs>
</svg>
