<svg width="62" height="62" viewBox="0 0 62 62" fill="none" xmlns="http://www.w3.org/2000/svg">
<g clip-path="url(#clip0_178_744)">
<path d="M61 7.44158V46.6991C60.9687 46.7179 60.9172 46.7304 60.9078 46.7569C60.3044 48.4467 59.0664 49.0578 57.3267 49.0563C39.762 49.036 22.1989 49.0438 4.63423 49.0438C4.43884 49.0438 4.24345 49.05 4.04963 49.0406C2.91637 48.9828 2.03634 48.4826 1.44705 47.5088C1.27198 47.2165 1.1485 46.8914 1 46.5819C1 33.4971 1 20.4107 1 7.32435C1.0422 7.29152 1.10785 7.26651 1.12505 7.22431C1.7331 5.58773 2.96014 5 4.64361 5C22.2114 5.01563 39.7792 5.00938 57.347 5.00938C57.5424 5.00938 57.7378 5.00156 57.9332 5.0125C59.0836 5.08128 59.984 5.58148 60.5795 6.58187C60.7421 6.85541 60.8624 7.15397 61.0016 7.44158H61ZM30.9398 39.0742C39.9027 39.0742 48.8671 39.0696 57.83 39.0852C58.3365 39.0852 58.5147 38.9992 58.5131 38.4334C58.4928 28.4936 58.499 18.5537 58.499 8.61391C58.499 7.64322 58.3818 7.5213 57.4361 7.5213C39.8011 7.5213 22.1676 7.5213 4.53263 7.5213C3.61665 7.5213 3.48378 7.65572 3.48378 8.56858C3.48378 18.5287 3.48847 28.4873 3.47128 38.4474C3.47128 38.9586 3.58382 39.0899 4.1059 39.0883C13.05 39.0696 21.9941 39.0758 30.9383 39.0758L30.9398 39.0742ZM31.0195 46.1645C32.1856 46.152 33.1266 45.1907 33.1079 44.0277C33.0907 42.8898 32.1512 41.966 31.0086 41.9613C29.8425 41.9566 28.889 42.9054 28.8906 44.0684C28.8937 45.2298 29.855 46.177 31.0195 46.1645Z" fill="#4B7BB3"/>
<path d="M30.9773 57.2173C27.0352 57.2173 23.093 57.2111 19.1524 57.222C18.4005 57.2236 17.7503 57.0751 17.3876 56.3404C17.0266 55.6089 17.3001 54.9743 17.7409 54.3881C18.4349 53.4627 19.3587 52.9313 20.5217 52.8875C21.4173 52.8531 22.3161 52.8594 23.2134 52.8781C23.5682 52.8859 23.6995 52.7843 23.6807 52.4186C23.6526 51.8934 23.7026 51.3635 23.6651 50.8383C23.6338 50.4069 23.7573 50.274 24.2075 50.2802C26.3349 50.3052 28.4607 50.2912 30.5881 50.2912C32.95 50.2912 35.3103 50.3052 37.6721 50.2802C38.1801 50.2755 38.4193 50.3662 38.3552 50.9367C38.3005 51.4182 38.374 51.9137 38.3349 52.3983C38.3021 52.8109 38.4724 52.8844 38.8382 52.8766C39.7151 52.8562 40.5952 52.8484 41.4721 52.8859C42.7773 52.9422 43.7589 53.5831 44.4576 54.6679C44.8077 55.2103 44.9187 55.784 44.5952 56.3795C44.2606 56.9922 43.7136 57.2189 43.0367 57.2173C39.0164 57.2142 34.9977 57.2158 30.9773 57.2158V57.2173Z" fill="#4B7BB3"/>
<path d="M34.8429 26.8336C34.8429 24.3561 34.8413 21.8785 34.8429 19.401C34.8429 18.2646 35.254 17.8614 36.3982 17.8582C37.1204 17.8567 37.8425 17.8504 38.5631 17.8598C39.4384 17.8707 39.9246 18.324 39.9261 19.1837C39.934 24.3342 39.934 29.4846 39.9261 34.6351C39.9261 35.4635 39.4463 35.9247 38.6069 35.9434C37.8081 35.9606 37.0078 35.959 36.2075 35.945C35.3025 35.9278 34.8476 35.4698 34.8445 34.5601C34.8367 31.9856 34.8413 29.4096 34.8413 26.8352L34.8429 26.8336Z" fill="#4B7BB3"/>
<path d="M11.8058 10.9852C11.8058 12.9578 11.8058 14.9461 11.8058 16.9344C11.8058 17.1485 11.8027 17.3642 11.8058 17.5784C11.8308 18.807 12.6061 19.5901 13.8316 19.5964C15.8824 19.6057 17.9332 19.6073 19.984 19.5917C20.381 19.5885 20.542 19.6026 20.3732 20.084C19.3197 23.0899 16.2466 25.0688 13.0406 24.7687C9.87222 24.4733 7.20868 21.9785 6.72724 18.8586C6.19578 15.4229 8.14498 12.1466 11.3775 11.0446C11.5057 11.0008 11.6276 10.9273 11.8073 10.9852H11.8058Z" fill="#4B7BB3"/>
<path d="M55.3759 28.2606C55.3759 30.3285 55.3791 32.395 55.3759 34.463C55.3744 35.4821 54.9336 35.9323 53.9238 35.9464C53.2407 35.9557 52.5592 35.9495 51.8761 35.9464C50.6522 35.9417 50.2474 35.529 50.2474 34.277C50.2474 30.3754 50.2474 26.4755 50.2474 22.574C50.2474 22.3207 50.238 22.0659 50.2505 21.8127C50.2896 20.9718 50.7788 20.4825 51.6229 20.4669C52.4029 20.4513 53.1829 20.4544 53.9629 20.4669C54.8773 20.4794 55.3728 20.9718 55.3744 21.8831C55.3806 24.0089 55.3759 26.1347 55.3759 28.2606Z" fill="#4B7BB3"/>
<path d="M47.6479 30.177C47.6479 31.6213 47.6526 33.0656 47.6479 34.5099C47.6448 35.4603 47.1977 35.9277 46.2692 35.9448C45.4689 35.9589 44.6686 35.9605 43.8683 35.9448C43.0367 35.9261 42.5412 35.4697 42.535 34.6381C42.5147 31.6322 42.5147 28.6279 42.535 25.6221C42.5397 24.7686 43.0524 24.3169 43.9183 24.3075C44.6983 24.2981 45.4799 24.2997 46.2599 24.3075C47.1884 24.3169 47.6448 24.7827 47.6479 25.7299C47.6542 27.2133 47.6479 28.6967 47.6479 30.1801V30.177Z" fill="#4B7BB3"/>
<path d="M27.1196 30.0988C27.1196 28.6357 27.1149 27.1742 27.1211 25.7112C27.1258 24.7623 27.5744 24.3122 28.517 24.3044C29.3157 24.2965 30.1161 24.2919 30.9148 24.3075C31.7104 24.3231 32.1997 24.7842 32.2028 25.5845C32.2184 28.6076 32.2169 31.6291 32.2028 34.6521C32.1997 35.4572 31.7245 35.9214 30.9258 35.9417C30.0879 35.9636 29.2485 35.9636 28.4107 35.9417C27.5869 35.9214 27.1258 35.4415 27.1211 34.6053C27.1102 33.1031 27.118 31.6025 27.118 30.1004L27.1196 30.0988Z" fill="#4B7BB3"/>
<path d="M13.0766 14.4458C13.0766 13.4516 13.0703 12.4559 13.0782 11.4618C13.0828 10.8397 13.3157 10.6334 13.9457 10.6568C17.6362 10.7928 20.6061 13.7455 20.7687 17.436C20.7968 18.0925 20.5811 18.3364 19.9324 18.3379C17.9238 18.3426 15.9152 18.3426 13.9066 18.3379C13.2814 18.3379 13.0797 18.1269 13.0766 17.4876C13.0703 16.4731 13.0766 15.4602 13.0766 14.4458Z" fill="#4B7BB3"/>
<path d="M45.1 21.0516C44.7687 21.0578 44.6061 20.8312 44.4295 20.6217C42.1942 17.9613 39.9449 15.3134 37.7347 12.6342C37.3783 12.2013 37.2173 12.2685 36.8687 12.6092C34.7069 14.7257 32.5217 16.8202 30.3443 18.9226C30.1911 19.0696 30.0598 19.2446 29.8331 19.2962C29.5596 19.3587 29.3236 19.2993 29.161 19.0633C29.0016 18.832 29.0016 18.5819 29.1673 18.3537C29.2579 18.2286 29.3814 18.127 29.4939 18.0191C31.9089 15.687 34.3255 13.3533 36.7421 11.0227C37.2986 10.4865 37.5643 10.5053 38.0754 11.1133C40.3482 13.8175 42.6272 16.5186 44.8875 19.2321C45.1376 19.5322 45.2845 19.5729 45.6159 19.3337C47.7698 17.7862 49.9426 16.2653 52.109 14.7366C52.2528 14.635 52.3966 14.5334 52.5483 14.449C52.8578 14.2771 53.125 14.3771 53.3189 14.6366C53.5002 14.8804 53.4846 15.1508 53.2876 15.39C53.2141 15.4791 53.1172 15.5494 53.0219 15.6166C50.5709 17.3517 48.1184 19.0836 45.6659 20.8171C45.4908 20.9422 45.3173 21.0719 45.0985 21.05L45.1 21.0516Z" fill="#4B7BB3"/>
<path d="M13.644 32.27C11.6542 32.27 9.66276 32.27 7.67292 32.27C7.49785 32.27 7.31653 32.2872 7.14771 32.2481C6.83197 32.1747 6.62563 31.9699 6.63189 31.6307C6.63814 31.2915 6.84916 31.0945 7.16647 31.0289C7.31653 30.9976 7.47753 31.0117 7.63384 31.0117C11.6729 31.0117 15.7136 31.0117 19.7526 31.0117C19.8886 31.0117 20.0277 31.0023 20.1622 31.018C20.5186 31.0602 20.753 31.2696 20.7608 31.6229C20.7702 32.0074 20.5264 32.2262 20.1419 32.2653C19.9871 32.2809 19.8292 32.2716 19.6745 32.2716C17.6643 32.2716 15.6542 32.2716 13.644 32.2716V32.27Z" fill="#4B7BB3"/>
<path d="M13.7143 28.5748C11.6854 28.5748 9.65807 28.5748 7.62915 28.5748C7.45408 28.5748 7.27589 28.5795 7.10551 28.5467C6.79758 28.4857 6.63814 28.2716 6.63345 27.9652C6.62876 27.6557 6.80383 27.4494 7.09769 27.3728C7.24463 27.3353 7.40719 27.3509 7.5635 27.3509C11.6589 27.3509 15.7542 27.3509 19.8495 27.3509C19.9465 27.3509 20.0449 27.3509 20.1419 27.354C20.517 27.3634 20.7405 27.5838 20.7562 27.9277C20.7749 28.3075 20.5467 28.5545 20.1481 28.5654C19.5823 28.5811 19.018 28.5748 18.4521 28.5748C16.8718 28.5748 15.2931 28.5748 13.7128 28.5748H13.7143Z" fill="#4B7BB3"/>
<path d="M13.78 34.7178C15.8089 34.7178 17.8363 34.7224 19.8652 34.7146C20.3154 34.7131 20.7452 34.7803 20.7546 35.3149C20.764 35.8885 20.3154 35.9729 19.8449 35.9495C19.7276 35.9432 19.6104 35.9495 19.4932 35.9495C17.6409 35.9495 15.7886 35.9495 13.9347 35.9495C11.848 35.9495 9.76123 35.9495 7.67448 35.9495C7.49941 35.9495 7.32122 35.9573 7.14928 35.9292C6.81321 35.876 6.62876 35.6572 6.63501 35.3242C6.64127 34.9913 6.83197 34.7787 7.1696 34.7381C7.36186 34.7146 7.55881 34.7209 7.7542 34.7209C9.7628 34.7209 11.7714 34.7209 13.78 34.7209V34.7178Z" fill="#4B7BB3"/>
<path d="M31.8402 44.0372C31.8527 44.5015 31.4807 44.9047 31.0258 44.9204C30.5741 44.936 30.1739 44.5499 30.1614 44.0872C30.1489 43.6214 30.5193 43.2197 30.9758 43.2041C31.4275 43.1884 31.8292 43.5745 31.8402 44.0372Z" fill="#4B7BB3"/>
</g>
<defs>
<clipPath id="clip0_178_744">
<rect width="60" height="52.222" fill="white" transform="translate(1 5)"/>
</clipPath>
</defs>
</svg>
