<svg width="62" height="62" viewBox="0 0 62 62" fill="none" xmlns="http://www.w3.org/2000/svg">
<g clip-path="url(#clip0_178_697)">
<path d="M54.4224 37.1697C54.3867 38.6308 54.5796 40.1027 54.1152 41.5371C53.2364 44.2468 50.7731 45.9937 47.7955 45.9955C38.9589 46.0009 30.1206 45.9973 21.284 45.9973C17.4239 45.9973 13.5621 46.0009 9.70199 45.9973C5.78654 45.9902 3.00536 43.2126 3.00357 39.3007C3 29.4817 3 19.6627 3.00357 9.84369C3.00536 5.92467 5.78297 3.14884 9.69842 3.14527C16.5505 3.13991 23.4007 3.15063 30.2528 3.13098C30.7529 3.13098 30.8904 3.2453 30.869 3.74724C30.8244 4.77254 30.8244 5.80142 30.869 6.82494C30.8904 7.33045 30.7475 7.44119 30.251 7.43941C23.4436 7.42154 16.638 7.4269 9.8306 7.4269C8.1033 7.4269 7.28699 8.23786 7.28699 9.95444C7.28699 16.7386 7.29771 23.5228 7.26913 30.3069C7.26734 30.9303 7.45668 31.0089 8.00685 31.0071C15.5055 30.9893 23.0042 31 30.501 30.9821C31.003 30.9821 31.2173 31.1036 31.3799 31.6002C32.4606 34.8779 35.6883 37.343 39.134 37.3948C43.6407 37.4626 48.1492 37.4233 52.6576 37.4055C53.2292 37.4037 53.8008 37.2554 54.4224 37.1679V37.1697Z" fill="#4B7BB3"/>
<path d="M58.7112 18.1426C58.7112 21.6008 58.7148 25.0608 58.7112 28.5189C58.7077 32.5273 55.9533 35.2799 51.9467 35.2835C47.8848 35.287 43.8247 35.287 39.7627 35.2835C35.7615 35.2799 33.0036 32.5219 33.0018 28.5172C33 21.599 32.9982 14.6827 33.0018 7.76455C33.0018 3.76157 35.7598 1.0054 39.7645 1.00182C43.8264 0.998252 47.8866 0.998252 51.9485 1.00182C55.9568 1.0054 58.7059 3.75443 58.7094 7.76634C58.713 11.2245 58.7094 14.6845 58.7094 18.1426H58.7112ZM45.7877 18.1426C48.4868 18.1426 51.1858 18.1337 53.8848 18.1516C54.3099 18.1551 54.4403 18.0587 54.4385 17.6121C54.4171 14.2665 54.4314 10.9208 54.4242 7.57521C54.4207 6.17301 53.5258 5.2906 52.1128 5.28882C47.9419 5.28346 43.7711 5.28346 39.6002 5.28882C38.1944 5.28882 37.2906 6.18194 37.287 7.57342C37.2798 10.9191 37.2941 14.2647 37.2745 17.6103C37.2727 18.0551 37.396 18.1551 37.8264 18.1534C40.4808 18.1337 43.1352 18.1426 45.7895 18.1426H45.7877ZM45.852 28.8565C46.7898 28.8565 47.7258 28.844 48.6636 28.8637C48.9798 28.8708 49.0834 28.7869 49.078 28.4582C49.0583 27.2989 49.0601 26.1379 49.078 24.9786C49.0834 24.6624 48.9994 24.5624 48.6725 24.5642C46.7988 24.5803 44.925 24.5785 43.0494 24.5642C42.735 24.5624 42.6297 24.641 42.635 24.9697C42.6547 26.1289 42.6636 27.29 42.6314 28.4493C42.6207 28.8583 42.8101 28.8637 43.1084 28.8601C44.0229 28.8494 44.9375 28.8565 45.852 28.8565Z" fill="#4B7BB3"/>
<path d="M28.6987 60.9946C25.1084 60.9946 21.5162 61.0125 17.9259 60.9874C15.811 60.9732 14.0712 59.3959 13.7478 57.281C13.4442 55.2983 14.7071 53.2977 16.6737 52.6439C17.0774 52.5099 17.49 52.4242 17.9187 52.426C18.1867 52.426 18.4546 52.4313 18.7225 52.4242C19.8961 52.3885 21.0732 52.5046 22.245 52.3599C22.2593 51.2042 22.2736 50.0503 22.2861 48.8946C22.2861 48.7838 22.3022 48.6695 22.2843 48.5605C22.2182 48.1783 22.4183 48.1336 22.7398 48.1354C26.7321 48.1443 30.7261 48.1461 34.7184 48.1318C35.0881 48.1318 35.156 48.2533 35.1506 48.5873C35.1328 49.7019 35.1667 50.8184 35.1328 51.933C35.1185 52.3652 35.2596 52.4456 35.6562 52.4367C36.8833 52.4099 38.1105 52.4206 39.3358 52.4295C41.8008 52.4474 43.7103 54.3194 43.7121 56.7094C43.7121 59.1012 41.8062 60.9857 39.3412 60.9946C35.7955 61.0071 32.248 60.9982 28.7005 60.9964L28.6987 60.9946Z" fill="#4B7BB3"/>
<path d="M21.2536 9.57214C23.6633 9.57214 26.0747 9.56857 28.4844 9.57214C29.9812 9.57393 30.8529 10.442 30.8547 11.9371C30.8601 14.6594 30.8601 17.3834 30.8547 20.1056C30.8511 21.5525 29.9687 22.4242 28.5058 22.426C23.6401 22.4295 18.7761 22.4295 13.9104 22.426C12.46 22.426 11.5758 21.5418 11.574 20.0949C11.5686 17.3727 11.5686 14.6487 11.574 11.9264C11.5758 10.4456 12.46 9.57393 13.9568 9.57214C16.3897 9.56857 18.8226 9.57214 21.2554 9.57214H21.2536Z" fill="#4B7BB3"/>
<path d="M21.2144 28.8565C18.201 28.8565 15.1893 28.844 12.1759 28.869C11.6758 28.8726 11.5383 28.7565 11.5579 28.2528C11.6008 27.1828 11.5883 26.1111 11.5615 25.0393C11.5525 24.6589 11.6633 24.5606 12.0402 24.5624C18.1545 24.5749 24.2688 24.5749 30.3832 24.5624C30.76 24.5624 30.8708 24.6606 30.8619 25.0393C30.8369 26.1325 30.8315 27.2275 30.8637 28.3189C30.8762 28.7583 30.7511 28.8673 30.3153 28.8655C27.2804 28.8458 24.2456 28.8548 21.2108 28.8548L21.2144 28.8565Z" fill="#4B7BB3"/>
</g>
<defs>
<clipPath id="clip0_178_697">
<rect width="55.7112" height="60" fill="white" transform="translate(3 1)"/>
</clipPath>
</defs>
</svg>
