<svg width="142" height="60" viewBox="0 0 142 60" fill="none" xmlns="http://www.w3.org/2000/svg">
<rect x="0.5" y="0.5" width="141" height="59" rx="9.5" fill="#4B7BB3" fill-opacity="0.25"/>
<rect x="0.5" y="0.5" width="141" height="59" rx="9.5" stroke="url(#paint0_linear_178_1295)"/>
<path d="M67.5758 17.6396H60.4879V28.3545H67.5758V17.6396Z" fill="white"/>
<path d="M129.751 8.83829C128.509 10.0037 127.568 10.9446 126.062 12.041C125.054 12.7834 124.158 13.6485 123.398 14.6135C122.889 15.2551 122.468 15.4892 121.796 15.4853C117.879 15.4594 113.961 15.4738 110.043 15.4278C109.362 15.4201 109.239 15.6139 109.241 16.197C109.266 23.4321 109.254 30.6671 109.278 37.9021C109.28 38.4575 109.184 38.6589 108.518 38.6388C106.573 38.5812 104.624 38.5879 102.678 38.6061C102.155 38.6119 101.959 38.5265 101.96 37.975C101.976 30.762 101.973 23.5491 101.951 16.3361C101.949 15.3031 102.01 15.4805 100.983 15.4748C98.4193 15.4614 95.8552 15.4585 93.2911 15.4403C93.0312 15.4383 92.7558 15.5256 92.5516 15.2072C91.0014 12.8064 88.8302 10.9322 86.5395 9.16536C86.4332 9.08384 86.3383 8.9908 86.163 8.83829H129.751Z" fill="white"/>
<path d="M78.2582 38.6224C75.7663 38.7155 73.1001 38.6109 70.5226 38.6042V31.8804C72.4699 31.8651 74.4203 31.9044 76.3687 31.8507C81.0069 31.7183 84.786 28.2855 84.9077 24.1524C85.0398 19.58 81.7227 15.9927 76.8926 15.5899C75.362 15.4613 73.8107 15.5007 72.2678 15.4978C65.0757 15.4834 57.8826 15.4863 50.6905 15.4556C50.0789 15.4527 50.1315 15.7251 50.1315 16.0934C50.1346 23.3524 50.1243 30.6066 50.1542 37.8637C50.1573 38.6397 49.9005 38.703 48.8361 38.6196C47.2054 38.4929 45.5675 38.4968 43.9379 38.6291C43.1117 38.6915 42.9353 38.5601 42.9353 37.9443C42.9415 30.7112 42.9095 23.4762 42.9157 16.2421C42.9157 15.6532 42.7744 15.4748 42.1123 15.4815C38.789 15.5131 35.4627 15.4844 32.1395 15.4959C31.304 15.4988 30.9276 15.0153 30.2211 13.6437C29.1092 11.4846 27.0422 9.96818 24.6473 9.08766C24.539 9.04929 24.5318 8.98886 24.4359 8.83348C41.4944 8.83348 58.4664 8.82389 75.4424 8.83923C80.5593 8.84691 85.0202 10.3979 88.3816 14.0916C95.6706 22.0988 92.697 36.2753 78.2582 38.6224Z" fill="white"/>
<path d="M67.4696 34.3877C67.4758 34.4663 67.4944 34.5431 67.4944 34.6217V36.895C67.4944 36.895 67.483 37.5856 66.529 37.7918C65.5749 37.998 61.3874 37.7918 61.3874 37.7918C61.3874 37.7918 60.423 37.8599 60.423 36.895V32.1125C60.423 32.1125 60.4642 31.2157 61.3874 31.2157H63.7854C64.0659 31.2157 64.3444 31.162 64.6012 31.0565C65.4212 30.7208 67.2716 29.8959 68.0647 29.0183C68.1081 28.9693 68.1545 28.9233 68.205 28.8811C68.5557 28.5847 70.1018 27.216 70.1018 26.0554V22.0518C70.0977 21.8206 70.1585 21.5933 70.2782 21.3909C70.4287 21.1156 70.734 20.942 71.0672 20.943H76.2088C76.2088 20.943 77.1732 21.0418 77.1732 21.8398V26.6222C77.1732 26.6222 77.0865 27.5459 76.2088 27.5191C75.5724 27.4989 74.5039 27.5085 73.9675 27.5143C73.7478 27.5171 73.5323 27.5642 73.3342 27.6514C72.441 28.0485 70.1286 29.282 69.714 29.8604C69.714 29.8604 67.3232 32.3351 67.4696 34.3877Z" fill="white"/>
<path d="M15.9397 51.146C15.6968 51.146 15.5088 51.0794 15.3756 50.9462C15.2502 50.8052 15.1875 50.6132 15.1875 50.3703V44.0239H12.8958C12.6921 44.0239 12.5315 43.9691 12.4139 43.8594C12.3042 43.7419 12.2494 43.5852 12.2494 43.3893C12.2494 43.1856 12.3042 43.0328 12.4139 42.9309C12.5315 42.8212 12.6921 42.7664 12.8958 42.7664H18.9836C19.1873 42.7664 19.344 42.8212 19.4537 42.9309C19.5712 43.0328 19.63 43.1856 19.63 43.3893C19.63 43.5852 19.5712 43.7419 19.4537 43.8594C19.344 43.9691 19.1873 44.0239 18.9836 44.0239H16.6919V50.3703C16.6919 50.6132 16.6292 50.8052 16.5038 50.9462C16.3785 51.0794 16.1904 51.146 15.9397 51.146Z" fill="white"/>
<path d="M22.2622 51.1695C21.6119 51.1695 21.0517 51.048 20.5816 50.8052C20.1115 50.5623 19.7472 50.2175 19.4886 49.7709C19.2379 49.3243 19.1125 48.7955 19.1125 48.1843C19.1125 47.5889 19.234 47.0678 19.4768 46.6212C19.7276 46.1746 20.0684 45.826 20.4993 45.5753C20.9381 45.3167 21.4356 45.1874 21.9919 45.1874C22.3993 45.1874 22.7636 45.254 23.0849 45.3872C23.414 45.5204 23.6921 45.7124 23.9193 45.9631C24.1544 46.2138 24.3307 46.5194 24.4482 46.8798C24.5735 47.2324 24.6362 47.632 24.6362 48.0786C24.6362 48.2196 24.5853 48.3293 24.4834 48.4076C24.3894 48.4781 24.2523 48.5134 24.0721 48.5134H20.2995V47.6672H23.602L23.414 47.8435C23.414 47.4831 23.3591 47.1814 23.2494 46.9386C23.1476 46.6957 22.9948 46.5116 22.7911 46.3862C22.5952 46.253 22.3484 46.1864 22.0507 46.1864C21.7216 46.1864 21.4395 46.2647 21.2045 46.4214C20.9773 46.5703 20.801 46.7858 20.6756 47.0678C20.5581 47.3421 20.4993 47.6711 20.4993 48.0551V48.1373C20.4993 48.7798 20.6482 49.2617 20.9459 49.5829C21.2515 49.8963 21.6981 50.053 22.2857 50.053C22.4894 50.053 22.7166 50.0295 22.9674 49.9825C23.2259 49.9276 23.4688 49.8375 23.696 49.7122C23.8606 49.6181 24.0055 49.579 24.1309 49.5946C24.2562 49.6025 24.3542 49.6456 24.4247 49.7239C24.503 49.8023 24.55 49.9002 24.5657 50.0177C24.5814 50.1274 24.5579 50.241 24.4952 50.3586C24.4403 50.4761 24.3424 50.5779 24.2014 50.6641C23.9272 50.8365 23.6098 50.9658 23.2494 51.052C22.8968 51.1303 22.5678 51.1695 22.2622 51.1695Z" fill="white"/>
<path d="M28.4093 51.1695C27.9 51.1695 27.473 51.0833 27.1282 50.9109C26.7913 50.7386 26.5406 50.4878 26.3761 50.1588C26.2115 49.8219 26.1293 49.4066 26.1293 48.913V46.4097H25.5181C25.3301 46.4097 25.1851 46.3627 25.0833 46.2687C24.9814 46.1668 24.9305 46.0297 24.9305 45.8573C24.9305 45.6771 24.9814 45.54 25.0833 45.446C25.1851 45.352 25.3301 45.305 25.5181 45.305H26.1293V44.2355C26.1293 43.9926 26.1919 43.8085 26.3173 43.6831C26.4505 43.5577 26.6346 43.4951 26.8697 43.4951C27.1047 43.4951 27.2849 43.5577 27.4103 43.6831C27.5356 43.8085 27.5983 43.9926 27.5983 44.2355V45.305H28.8441C29.0321 45.305 29.1771 45.352 29.2789 45.446C29.3808 45.54 29.4317 45.6771 29.4317 45.8573C29.4317 46.0297 29.3808 46.1668 29.2789 46.2687C29.1771 46.3627 29.0321 46.4097 28.8441 46.4097H27.5983V48.8307C27.5983 49.2068 27.6806 49.4889 27.8451 49.6769C28.0097 49.8649 28.2761 49.959 28.6443 49.959C28.7775 49.959 28.895 49.9472 28.9969 49.9237C29.0987 49.9002 29.1888 49.8845 29.2672 49.8767C29.3612 49.8689 29.4396 49.9002 29.5022 49.9707C29.5649 50.0334 29.5963 50.1666 29.5963 50.3703C29.5963 50.527 29.5688 50.668 29.514 50.7934C29.467 50.9109 29.3769 50.9932 29.2437 51.0402C29.1418 51.0715 29.0086 51.099 28.8441 51.1225C28.6796 51.1538 28.5346 51.1695 28.4093 51.1695Z" fill="white"/>
<path d="M31.0393 51.146C30.7965 51.146 30.6084 51.0833 30.4752 50.9579C30.3499 50.8247 30.2872 50.6367 30.2872 50.3938V45.9513C30.2872 45.7085 30.3499 45.5243 30.4752 45.399C30.6006 45.2736 30.7769 45.2109 31.0041 45.2109C31.2313 45.2109 31.4076 45.2736 31.533 45.399C31.6583 45.5243 31.721 45.7085 31.721 45.9513V46.6918H31.6035C31.7132 46.2217 31.9286 45.8652 32.2499 45.6223C32.5711 45.3794 32.9981 45.2344 33.5309 45.1874C33.6954 45.1718 33.8247 45.2149 33.9187 45.3167C34.0206 45.4107 34.0793 45.5596 34.095 45.7633C34.1107 45.9592 34.0637 46.1198 33.954 46.2452C33.8521 46.3627 33.6954 46.4332 33.4839 46.4567L33.2253 46.4802C32.7474 46.5272 32.387 46.6761 32.1441 46.9268C31.9012 47.1697 31.7798 47.5144 31.7798 47.961V50.3938C31.7798 50.6367 31.7171 50.8247 31.5917 50.9579C31.4664 51.0833 31.2822 51.146 31.0393 51.146Z" fill="white"/>
<path d="M36.7243 51.1695C36.309 51.1695 35.9369 51.0911 35.6078 50.9344C35.2866 50.7699 35.0319 50.5505 34.8439 50.2763C34.6637 50.0021 34.5736 49.6926 34.5736 49.3478C34.5736 48.9247 34.6833 48.5918 34.9026 48.3489C35.122 48.0981 35.4785 47.9179 35.9721 47.8083C36.4657 47.6986 37.1278 47.6437 37.9583 47.6437H38.5459V48.4899H37.9701C37.4843 48.4899 37.0964 48.5134 36.8065 48.5604C36.5167 48.6074 36.309 48.6897 36.1837 48.8072C36.0661 48.9169 36.0074 49.0736 36.0074 49.2773C36.0074 49.5359 36.0975 49.7474 36.2777 49.912C36.4579 50.0765 36.7086 50.1588 37.0298 50.1588C37.2884 50.1588 37.5156 50.1 37.7115 49.9825C37.9152 49.8571 38.0758 49.6887 38.1934 49.4771C38.3109 49.2656 38.3696 49.0227 38.3696 48.7485V47.3969C38.3696 47.0052 38.2835 46.7231 38.1111 46.5507C37.9387 46.3784 37.6488 46.2922 37.2414 46.2922C37.0142 46.2922 36.7674 46.3196 36.501 46.3744C36.2424 46.4293 35.9682 46.5233 35.6783 46.6565C35.5294 46.727 35.3962 46.7466 35.2787 46.7153C35.169 46.6839 35.0828 46.6212 35.0202 46.5272C34.9575 46.4254 34.9261 46.3157 34.9261 46.1982C34.9261 46.0806 34.9575 45.967 35.0202 45.8573C35.0828 45.7398 35.1886 45.6536 35.3375 45.5988C35.6979 45.4499 36.0426 45.3441 36.3717 45.2815C36.7086 45.2188 37.0142 45.1874 37.2884 45.1874C37.8525 45.1874 38.3148 45.2736 38.6752 45.446C39.0435 45.6184 39.3177 45.8808 39.4979 46.2334C39.6781 46.5781 39.7682 47.0247 39.7682 47.5732V50.3938C39.7682 50.6367 39.7094 50.8247 39.5919 50.9579C39.4744 51.0833 39.3059 51.146 39.0865 51.146C38.8672 51.146 38.6948 51.0833 38.5694 50.9579C38.4519 50.8247 38.3931 50.6367 38.3931 50.3938V49.8297H38.4872C38.4323 50.1039 38.3226 50.3429 38.1581 50.5466C38.0014 50.7425 37.8016 50.8953 37.5587 51.0049C37.3158 51.1146 37.0377 51.1695 36.7243 51.1695Z" fill="white"/>
<path d="M42.1995 51.052C41.941 51.052 41.7412 50.9854 41.6001 50.8522C41.4669 50.7111 41.4003 50.5113 41.4003 50.2528V43.5656C41.4003 43.307 41.4669 43.1111 41.6001 42.9779C41.7412 42.8369 41.941 42.7664 42.1995 42.7664H44.4795C45.8663 42.7664 46.9358 43.1229 47.688 43.8359C48.448 44.5489 48.8279 45.5713 48.8279 46.9033C48.8279 47.5693 48.73 48.1608 48.5341 48.6779C48.3461 49.1872 48.064 49.6181 47.688 49.9707C47.3197 50.3233 46.8653 50.5936 46.3247 50.7816C45.7919 50.9619 45.1768 51.052 44.4795 51.052H42.1995ZM42.9047 49.8062H44.3855C44.8713 49.8062 45.2904 49.7474 45.643 49.6299C46.0034 49.5045 46.3011 49.3243 46.5362 49.0893C46.7791 48.8464 46.9593 48.5447 47.0768 48.1843C47.1943 47.8161 47.2531 47.3891 47.2531 46.9033C47.2531 45.9318 47.0141 45.207 46.5362 44.7291C46.0583 44.2511 45.3414 44.0122 44.3855 44.0122H42.9047V49.8062Z" fill="white"/>
<path d="M52.844 51.1695C52.3347 51.1695 51.9077 51.0833 51.563 50.9109C51.2261 50.7386 50.9754 50.4878 50.8108 50.1588C50.6463 49.8219 50.564 49.4066 50.564 48.913V46.4097H49.9529C49.7648 46.4097 49.6199 46.3627 49.518 46.2687C49.4162 46.1668 49.3653 46.0297 49.3653 45.8573C49.3653 45.6771 49.4162 45.54 49.518 45.446C49.6199 45.352 49.7648 45.305 49.9529 45.305H50.564V44.2355C50.564 43.9926 50.6267 43.8085 50.7521 43.6831C50.8853 43.5577 51.0694 43.4951 51.3044 43.4951C51.5395 43.4951 51.7197 43.5577 51.8451 43.6831C51.9704 43.8085 52.0331 43.9926 52.0331 44.2355V45.305H53.2789C53.4669 45.305 53.6119 45.352 53.7137 45.446C53.8156 45.54 53.8665 45.6771 53.8665 45.8573C53.8665 46.0297 53.8156 46.1668 53.7137 46.2687C53.6119 46.3627 53.4669 46.4097 53.2789 46.4097H52.0331V48.8307C52.0331 49.2068 52.1154 49.4889 52.2799 49.6769C52.4444 49.8649 52.7108 49.959 53.0791 49.959C53.2123 49.959 53.3298 49.9472 53.4316 49.9237C53.5335 49.9002 53.6236 49.8845 53.702 49.8767C53.796 49.8689 53.8743 49.9002 53.937 49.9707C53.9997 50.0334 54.031 50.1666 54.031 50.3703C54.031 50.527 54.0036 50.668 53.9488 50.7934C53.9018 50.9109 53.8116 50.9932 53.6785 51.0402C53.5766 51.0715 53.4434 51.099 53.2789 51.1225C53.1143 51.1538 52.9694 51.1695 52.844 51.1695Z" fill="white"/>
<path d="M57.4969 51.1695C56.8466 51.1695 56.2864 51.048 55.8163 50.8052C55.3462 50.5623 54.9819 50.2175 54.7233 49.7709C54.4726 49.3243 54.3472 48.7955 54.3472 48.1843C54.3472 47.5889 54.4687 47.0678 54.7116 46.6212C54.9623 46.1746 55.3031 45.826 55.734 45.5753C56.1728 45.3167 56.6703 45.1874 57.2266 45.1874C57.634 45.1874 57.9984 45.254 58.3196 45.3872C58.6487 45.5204 58.9268 45.7124 59.154 45.9631C59.3891 46.2138 59.5654 46.5194 59.6829 46.8798C59.8083 47.2324 59.8709 47.632 59.8709 48.0786C59.8709 48.2196 59.82 48.3293 59.7182 48.4076C59.6241 48.4781 59.487 48.5134 59.3068 48.5134H55.5343V47.6672H58.8367L58.6487 47.8435C58.6487 47.4831 58.5938 47.1814 58.4841 46.9386C58.3823 46.6957 58.2295 46.5116 58.0258 46.3862C57.8299 46.253 57.5831 46.1864 57.2854 46.1864C56.9563 46.1864 56.6743 46.2647 56.4392 46.4214C56.212 46.5703 56.0357 46.7858 55.9103 47.0678C55.7928 47.3421 55.734 47.6711 55.734 48.0551V48.1373C55.734 48.7798 55.8829 49.2617 56.1806 49.5829C56.4862 49.8963 56.9328 50.053 57.5204 50.053C57.7241 50.053 57.9514 50.0295 58.2021 49.9825C58.4606 49.9276 58.7035 49.8375 58.9307 49.7122C59.0953 49.6181 59.2402 49.579 59.3656 49.5946C59.491 49.6025 59.5889 49.6456 59.6594 49.7239C59.7378 49.8023 59.7848 49.9002 59.8004 50.0177C59.8161 50.1274 59.7926 50.241 59.7299 50.3586C59.6751 50.4761 59.5771 50.5779 59.4361 50.6641C59.1619 50.8365 58.8446 50.9658 58.4841 51.052C58.1316 51.1303 57.8025 51.1695 57.4969 51.1695Z" fill="white"/>
<path d="M63.6904 51.1695C63.0871 51.1695 62.5622 51.048 62.1156 50.8052C61.669 50.5544 61.3243 50.2019 61.0814 49.7474C60.8385 49.293 60.717 48.7602 60.717 48.1491C60.717 47.6868 60.7836 47.2755 60.9168 46.9151C61.0579 46.5468 61.2577 46.2373 61.5162 45.9866C61.7748 45.728 62.0882 45.5322 62.4564 45.399C62.8247 45.2579 63.236 45.1874 63.6904 45.1874C63.949 45.1874 64.2271 45.2227 64.5249 45.2932C64.8304 45.3637 65.1164 45.4812 65.3828 45.6458C65.5082 45.7241 65.5904 45.8182 65.6296 45.9278C65.6688 46.0375 65.6766 46.1511 65.6531 46.2687C65.6296 46.3784 65.5787 46.4763 65.5003 46.5625C65.4298 46.6408 65.3397 46.6918 65.23 46.7153C65.1203 46.7309 64.9989 46.7035 64.8657 46.633C64.6933 46.5311 64.517 46.4567 64.3368 46.4097C64.1566 46.3549 63.9843 46.3274 63.8197 46.3274C63.5612 46.3274 63.3339 46.3705 63.1381 46.4567C62.9422 46.5351 62.7737 46.6526 62.6327 46.8093C62.4995 46.9581 62.3977 47.1462 62.3271 47.3734C62.2566 47.6006 62.2214 47.8631 62.2214 48.1608C62.2214 48.7406 62.3585 49.199 62.6327 49.5359C62.9148 49.8649 63.3104 50.0295 63.8197 50.0295C63.9843 50.0295 64.1527 50.006 64.3251 49.959C64.5053 49.912 64.6855 49.8375 64.8657 49.7357C64.9989 49.6652 65.1164 49.6417 65.2183 49.6652C65.328 49.6887 65.4181 49.7435 65.4886 49.8297C65.5591 49.908 65.6022 50.006 65.6179 50.1235C65.6335 50.2332 65.6179 50.3429 65.5709 50.4526C65.5317 50.5623 65.4533 50.6524 65.3358 50.7229C65.0772 50.8796 64.803 50.9932 64.5131 51.0637C64.2232 51.1342 63.949 51.1695 63.6904 51.1695Z" fill="white"/>
<path d="M67.3065 51.146C67.0714 51.146 66.8912 51.0833 66.7658 50.9579C66.6405 50.8247 66.5778 50.6367 66.5778 50.3938V43.4128C66.5778 43.1699 66.6405 42.9858 66.7658 42.8604C66.8912 42.7351 67.0714 42.6724 67.3065 42.6724C67.5415 42.6724 67.7217 42.7351 67.8471 42.8604C67.9803 42.9858 68.0469 43.1699 68.0469 43.4128V46.4567H67.8823C68.0547 46.0414 68.3211 45.728 68.6815 45.5165C69.0498 45.2971 69.465 45.1874 69.9273 45.1874C70.3896 45.1874 70.7696 45.2736 71.0673 45.446C71.365 45.6184 71.5883 45.8808 71.7372 46.2334C71.886 46.5781 71.9605 47.0169 71.9605 47.5497V50.3938C71.9605 50.6367 71.8978 50.8247 71.7724 50.9579C71.6471 51.0833 71.4669 51.146 71.2318 51.146C70.9968 51.146 70.8126 51.0833 70.6795 50.9579C70.5541 50.8247 70.4914 50.6367 70.4914 50.3938V47.6202C70.4914 47.1736 70.4052 46.8485 70.2329 46.6447C70.0683 46.441 69.8098 46.3392 69.4572 46.3392C69.0263 46.3392 68.6815 46.4763 68.423 46.7505C68.1722 47.0169 68.0469 47.3734 68.0469 47.82V50.3938C68.0469 50.8953 67.8001 51.146 67.3065 51.146Z" fill="white"/>
<path d="M79.6401 51.1695C79.2954 51.1695 78.9507 51.1421 78.6059 51.0872C78.2612 51.0402 77.936 50.9658 77.6304 50.8639C77.3249 50.7542 77.0507 50.621 76.8078 50.4643C76.6667 50.3703 76.5688 50.2567 76.514 50.1235C76.4591 49.9903 76.4395 49.861 76.4552 49.7357C76.4787 49.6025 76.5296 49.4889 76.608 49.3948C76.6942 49.293 76.7999 49.2303 76.9253 49.2068C77.0506 49.1833 77.1878 49.2186 77.3366 49.3126C77.6814 49.5163 78.0457 49.6652 78.4296 49.7592C78.8135 49.8532 79.217 49.9002 79.6401 49.9002C80.2591 49.9002 80.7096 49.7984 80.9917 49.5946C81.2737 49.3831 81.4148 49.1128 81.4148 48.7837C81.4148 48.5095 81.3129 48.294 81.1092 48.1373C80.9133 47.9806 80.5725 47.8513 80.0867 47.7495L78.794 47.4792C78.0496 47.3225 77.4933 47.06 77.1251 46.6918C76.7647 46.3157 76.5845 45.8221 76.5845 45.2109C76.5845 44.827 76.6628 44.4784 76.8195 44.165C76.9762 43.8516 77.1956 43.5812 77.4777 43.354C77.7676 43.1268 78.1084 42.9544 78.5001 42.8369C78.8997 42.7116 79.3385 42.6489 79.8164 42.6489C80.2865 42.6489 80.7331 42.7076 81.1562 42.8252C81.5793 42.9427 81.9593 43.1151 82.2962 43.3423C82.4216 43.4285 82.5038 43.5342 82.543 43.6596C82.59 43.785 82.6018 43.9103 82.5783 44.0357C82.5548 44.1532 82.4999 44.2551 82.4137 44.3412C82.3276 44.4274 82.2179 44.4784 82.0847 44.494C81.9593 44.5097 81.8144 44.4705 81.6498 44.3765C81.3599 44.212 81.0661 44.0944 80.7684 44.0239C80.4706 43.9534 80.1494 43.9182 79.8047 43.9182C79.4443 43.9182 79.1348 43.9691 78.8762 44.0709C78.6177 44.1728 78.4179 44.3177 78.2768 44.5058C78.1436 44.686 78.077 44.9015 78.077 45.1522C78.077 45.4342 78.1711 45.6615 78.3591 45.8338C78.5471 45.9984 78.8684 46.1276 79.3228 46.2217L80.6038 46.492C81.3795 46.6565 81.9554 46.9151 82.3315 47.2676C82.7154 47.6202 82.9073 48.0903 82.9073 48.6779C82.9073 49.054 82.829 49.3948 82.6723 49.7004C82.5234 50.006 82.3041 50.2685 82.0142 50.4878C81.7321 50.7072 81.3913 50.8757 80.9917 50.9932C80.5921 51.1107 80.1416 51.1695 79.6401 51.1695Z" fill="white"/>
<path d="M86.6783 51.1695C86.0828 51.1695 85.5657 51.048 85.1269 50.8052C84.6882 50.5623 84.3473 50.2175 84.1045 49.7709C83.8616 49.3165 83.7401 48.7837 83.7401 48.1726C83.7401 47.7103 83.8067 47.299 83.9399 46.9386C84.0809 46.5703 84.2807 46.2569 84.5393 45.9984C84.7979 45.732 85.1073 45.5322 85.4677 45.399C85.8282 45.2579 86.2317 45.1874 86.6783 45.1874C87.2737 45.1874 87.7908 45.3089 88.2296 45.5518C88.6684 45.7946 89.0092 46.1394 89.2521 46.586C89.495 47.0326 89.6164 47.5614 89.6164 48.1726C89.6164 48.6348 89.5459 49.0501 89.4049 49.4184C89.2717 49.7866 89.0758 50.1039 88.8172 50.3703C88.5587 50.6289 88.2492 50.8287 87.8888 50.9697C87.5284 51.1029 87.1249 51.1695 86.6783 51.1695ZM86.6783 50.053C86.9682 50.053 87.2228 49.9825 87.4422 49.8414C87.6616 49.7004 87.83 49.4928 87.9475 49.2186C88.0729 48.9365 88.1356 48.5878 88.1356 48.1726C88.1356 47.5458 88.0024 47.0796 87.736 46.774C87.4696 46.4606 87.117 46.3039 86.6783 46.3039C86.3884 46.3039 86.1337 46.3744 85.9143 46.5155C85.695 46.6487 85.5226 46.8563 85.3972 47.1384C85.2797 47.4126 85.2209 47.7573 85.2209 48.1726C85.2209 48.7915 85.3541 49.2617 85.6205 49.5829C85.8869 49.8963 86.2395 50.053 86.6783 50.053Z" fill="white"/>
<path d="M92.7916 51.1695C92.1413 51.1695 91.6516 50.9854 91.3225 50.6171C90.9935 50.241 90.8289 49.6926 90.8289 48.9718V43.4128C90.8289 43.1699 90.8916 42.9858 91.017 42.8604C91.1423 42.7351 91.3225 42.6724 91.5576 42.6724C91.7926 42.6724 91.9729 42.7351 92.0982 42.8604C92.2314 42.9858 92.298 43.1699 92.298 43.4128V48.9012C92.298 49.2617 92.3724 49.528 92.5213 49.7004C92.678 49.8728 92.8974 49.959 93.1795 49.959C93.2421 49.959 93.3009 49.959 93.3557 49.959C93.4106 49.9511 93.4654 49.9433 93.5203 49.9355C93.63 49.9198 93.7044 49.9511 93.7436 50.0295C93.7827 50.1 93.8023 50.2489 93.8023 50.4761C93.8023 50.672 93.7632 50.8247 93.6848 50.9344C93.6065 51.0441 93.4772 51.1107 93.297 51.1342C93.2186 51.1421 93.1364 51.1499 93.0502 51.1577C92.964 51.1656 92.8778 51.1695 92.7916 51.1695Z" fill="white"/>
<path d="M96.6622 51.1695C96.1842 51.1695 95.7885 51.0833 95.4751 50.9109C95.1617 50.7307 94.9267 50.4643 94.77 50.1118C94.6211 49.7592 94.5467 49.3204 94.5467 48.7955V45.9513C94.5467 45.7006 94.6094 45.5165 94.7347 45.399C94.8601 45.2736 95.0403 45.2109 95.2754 45.2109C95.5104 45.2109 95.6906 45.2736 95.816 45.399C95.9492 45.5165 96.0158 45.7006 96.0158 45.9513V48.819C96.0158 49.2264 96.098 49.528 96.2626 49.7239C96.4271 49.9198 96.6896 50.0177 97.05 50.0177C97.4417 50.0177 97.763 49.8845 98.0137 49.6181C98.2644 49.3439 98.3898 48.9835 98.3898 48.5369V45.9513C98.3898 45.7006 98.4525 45.5165 98.5778 45.399C98.7032 45.2736 98.8834 45.2109 99.1184 45.2109C99.3535 45.2109 99.5337 45.2736 99.6591 45.399C99.7923 45.5165 99.8589 45.7006 99.8589 45.9513V50.3938C99.8589 50.8953 99.6199 51.146 99.1419 51.146C98.9147 51.146 98.7384 51.0833 98.6131 50.9579C98.4877 50.8247 98.425 50.6367 98.425 50.3938V49.5006L98.5896 49.8532C98.425 50.2763 98.1743 50.6014 97.8374 50.8287C97.5083 51.0559 97.1166 51.1695 96.6622 51.1695Z" fill="white"/>
<path d="M104.02 51.1695C103.511 51.1695 103.084 51.0833 102.739 50.9109C102.403 50.7386 102.152 50.4878 101.987 50.1588C101.823 49.8219 101.74 49.4066 101.74 48.913V46.4097H101.129C100.941 46.4097 100.796 46.3627 100.694 46.2687C100.593 46.1668 100.542 46.0297 100.542 45.8573C100.542 45.6771 100.593 45.54 100.694 45.446C100.796 45.352 100.941 45.305 101.129 45.305H101.74V44.2355C101.74 43.9926 101.803 43.8085 101.929 43.6831C102.062 43.5577 102.246 43.4951 102.481 43.4951C102.716 43.4951 102.896 43.5577 103.021 43.6831C103.147 43.8085 103.21 43.9926 103.21 44.2355V45.305H104.455C104.643 45.305 104.788 45.352 104.89 45.446C104.992 45.54 105.043 45.6771 105.043 45.8573C105.043 46.0297 104.992 46.1668 104.89 46.2687C104.788 46.3627 104.643 46.4097 104.455 46.4097H103.21V48.8307C103.21 49.2068 103.292 49.4889 103.456 49.6769C103.621 49.8649 103.887 49.959 104.256 49.959C104.389 49.959 104.506 49.9472 104.608 49.9237C104.71 49.9002 104.8 49.8845 104.878 49.8767C104.972 49.8689 105.051 49.9002 105.113 49.9707C105.176 50.0334 105.207 50.1666 105.207 50.3703C105.207 50.527 105.18 50.668 105.125 50.7934C105.078 50.9109 104.988 50.9932 104.855 51.0402C104.753 51.0715 104.62 51.099 104.455 51.1225C104.291 51.1538 104.146 51.1695 104.02 51.1695Z" fill="white"/>
<path d="M106.776 51.1342C106.541 51.1342 106.361 51.0637 106.236 50.9227C106.11 50.7816 106.048 50.5858 106.048 50.3351V46.0219C106.048 45.7633 106.11 45.5674 106.236 45.4342C106.361 45.2932 106.541 45.2227 106.776 45.2227C107.011 45.2227 107.192 45.2932 107.317 45.4342C107.45 45.5674 107.517 45.7633 107.517 46.0219V50.3351C107.517 50.5858 107.454 50.7816 107.329 50.9227C107.203 51.0637 107.019 51.1342 106.776 51.1342ZM106.776 44.1297C106.502 44.1297 106.287 44.0631 106.13 43.9299C105.981 43.7889 105.907 43.5969 105.907 43.354C105.907 43.1033 105.981 42.9114 106.13 42.7782C106.287 42.645 106.502 42.5784 106.776 42.5784C107.058 42.5784 107.274 42.645 107.423 42.7782C107.572 42.9114 107.646 43.1033 107.646 43.354C107.646 43.5969 107.572 43.7889 107.423 43.9299C107.274 44.0631 107.058 44.1297 106.776 44.1297Z" fill="white"/>
<path d="M111.664 51.1695C111.068 51.1695 110.551 51.048 110.113 50.8052C109.674 50.5623 109.333 50.2175 109.09 49.7709C108.847 49.3165 108.726 48.7837 108.726 48.1726C108.726 47.7103 108.792 47.299 108.926 46.9386C109.067 46.5703 109.266 46.2569 109.525 45.9984C109.784 45.732 110.093 45.5322 110.453 45.399C110.814 45.2579 111.217 45.1874 111.664 45.1874C112.259 45.1874 112.777 45.3089 113.215 45.5518C113.654 45.7946 113.995 46.1394 114.238 46.586C114.481 47.0326 114.602 47.5614 114.602 48.1726C114.602 48.6348 114.532 49.0501 114.391 49.4184C114.257 49.7866 114.061 50.1039 113.803 50.3703C113.544 50.6289 113.235 50.8287 112.874 50.9697C112.514 51.1029 112.111 51.1695 111.664 51.1695ZM111.664 50.053C111.954 50.053 112.208 49.9825 112.428 49.8414C112.647 49.7004 112.816 49.4928 112.933 49.2186C113.059 48.9365 113.121 48.5878 113.121 48.1726C113.121 47.5458 112.988 47.0796 112.722 46.774C112.455 46.4606 112.103 46.3039 111.664 46.3039C111.374 46.3039 111.119 46.3744 110.9 46.5155C110.681 46.6487 110.508 46.8563 110.383 47.1384C110.265 47.4126 110.207 47.7573 110.207 48.1726C110.207 48.7915 110.34 49.2617 110.606 49.5829C110.873 49.8963 111.225 50.053 111.664 50.053Z" fill="white"/>
<path d="M116.543 51.146C116.308 51.146 116.128 51.0833 116.003 50.9579C115.877 50.8247 115.815 50.6367 115.815 50.3938V45.9513C115.815 45.7085 115.877 45.5243 116.003 45.399C116.128 45.2736 116.304 45.2109 116.532 45.2109C116.759 45.2109 116.935 45.2736 117.06 45.399C117.186 45.5243 117.248 45.7085 117.248 45.9513V46.7505L117.119 46.4567C117.292 46.0414 117.558 45.728 117.918 45.5165C118.287 45.2971 118.702 45.1874 119.164 45.1874C119.626 45.1874 120.006 45.2736 120.304 45.446C120.602 45.6184 120.825 45.8808 120.974 46.2334C121.123 46.5781 121.197 47.0169 121.197 47.5497V50.3938C121.197 50.6367 121.135 50.8247 121.009 50.9579C120.884 51.0833 120.704 51.146 120.469 51.146C120.234 51.146 120.049 51.0833 119.916 50.9579C119.791 50.8247 119.728 50.6367 119.728 50.3938V47.6202C119.728 47.1736 119.642 46.8485 119.47 46.6447C119.305 46.441 119.047 46.3392 118.694 46.3392C118.263 46.3392 117.918 46.4763 117.66 46.7505C117.409 47.0169 117.284 47.3734 117.284 47.82V50.3938C117.284 50.8953 117.037 51.146 116.543 51.146Z" fill="white"/>
<path d="M124.793 51.1695C124.456 51.1695 124.1 51.1342 123.724 51.0637C123.348 50.9932 123.011 50.8718 122.713 50.6994C122.588 50.621 122.497 50.5309 122.443 50.4291C122.396 50.3194 122.376 50.2136 122.384 50.1118C122.399 50.0021 122.439 49.908 122.501 49.8297C122.572 49.7513 122.658 49.7004 122.76 49.6769C122.87 49.6534 122.987 49.673 123.112 49.7357C123.426 49.8845 123.72 49.9903 123.994 50.053C124.268 50.1078 124.538 50.1353 124.805 50.1353C125.181 50.1353 125.459 50.0726 125.639 49.9472C125.827 49.814 125.921 49.6417 125.921 49.4301C125.921 49.2499 125.859 49.1128 125.733 49.0188C125.616 48.9169 125.436 48.8425 125.193 48.7955L124.017 48.5722C123.532 48.4781 123.159 48.3019 122.901 48.0433C122.65 47.7769 122.525 47.4361 122.525 47.0208C122.525 46.6447 122.627 46.3196 122.83 46.0454C123.042 45.7711 123.332 45.5596 123.7 45.4107C124.068 45.2619 124.491 45.1874 124.969 45.1874C125.314 45.1874 125.635 45.2266 125.933 45.305C126.239 45.3755 126.532 45.4891 126.815 45.6458C126.932 45.7085 127.01 45.7907 127.05 45.8926C127.097 45.9944 127.108 46.1002 127.085 46.2099C127.061 46.3118 127.014 46.4058 126.944 46.492C126.873 46.5703 126.783 46.6212 126.674 46.6447C126.572 46.6604 126.454 46.6369 126.321 46.5742C126.078 46.4489 125.843 46.3588 125.616 46.3039C125.396 46.2491 125.185 46.2217 124.981 46.2217C124.597 46.2217 124.311 46.2883 124.123 46.4214C123.943 46.5546 123.853 46.7309 123.853 46.9503C123.853 47.1149 123.908 47.252 124.017 47.3617C124.127 47.4713 124.296 47.5458 124.523 47.585L125.698 47.8083C126.207 47.9023 126.591 48.0746 126.85 48.3254C127.116 48.5761 127.249 48.913 127.249 49.3361C127.249 49.908 127.026 50.3586 126.579 50.6876C126.133 51.0089 125.537 51.1695 124.793 51.1695Z" fill="white"/>
<defs>
<linearGradient id="paint0_linear_178_1295" x1="0" y1="0" x2="142.892" y2="2.20531" gradientUnits="userSpaceOnUse">
<stop stop-color="white"/>
<stop offset="0.6" stop-color="white" stop-opacity="0.75"/>
<stop offset="1" stop-color="white" stop-opacity="0.25"/>
</linearGradient>
</defs>
</svg>
