<svg width="76" height="40" viewBox="0 0 76 40" fill="none" xmlns="http://www.w3.org/2000/svg">
<g id="Frame 164772">
<rect x="0.5" y="0.5" width="75" height="39" rx="9.5" fill="#4B7BB3" fill-opacity="0.25"/>
<rect x="0.5" y="0.5" width="75" height="39" rx="9.5" stroke="url(#paint0_linear_1027_2274)"/>
<g id="Group 21">
<g id="Vector">
<path d="M35.5327 13.4866H32.0812V18.9439H35.5327V13.4866Z" fill="white"/>
<path d="M65.8091 9.00396C65.2044 9.59751 64.7463 10.0768 64.0131 10.6351C63.5218 11.0132 63.0859 11.4539 62.7157 11.9453C62.4676 12.2722 62.2627 12.3914 61.9357 12.3894C60.0282 12.3762 58.1201 12.3836 56.2125 12.3601C55.8805 12.3562 55.8208 12.4549 55.8218 12.7519C55.8338 16.4368 55.8283 20.1217 55.8399 23.8067C55.8409 24.0895 55.7942 24.1921 55.4697 24.1819C54.5224 24.1525 53.5737 24.156 52.6259 24.1652C52.3713 24.1682 52.2759 24.1247 52.2764 23.8438C52.2839 20.1701 52.2824 16.4964 52.2718 12.8227C52.2708 12.2966 52.3005 12.387 51.8007 12.384C50.5521 12.3772 49.3035 12.3757 48.0549 12.3665C47.9283 12.3655 47.7942 12.4099 47.6948 12.2477C46.9399 11.025 45.8827 10.0704 44.7672 9.17054C44.7154 9.12902 44.6692 9.08163 44.5838 9.00396H65.8091Z" fill="white"/>
<path d="M40.7345 24.1735C39.5211 24.2209 38.2228 24.1677 36.9676 24.1643V20.7397C37.9159 20.7319 38.8657 20.7519 39.8144 20.7246C42.0731 20.6572 43.9133 18.9087 43.9726 16.8037C44.0369 14.4749 42.4216 12.6478 40.0696 12.4427C39.3242 12.3772 38.5688 12.3972 37.8174 12.3958C34.3152 12.3884 30.8125 12.3899 27.3103 12.3743C27.0124 12.3728 27.0381 12.5115 27.0381 12.6991C27.0396 16.3963 27.0345 20.091 27.0491 23.7871C27.0506 24.1823 26.9256 24.2146 26.4072 24.1721C25.6132 24.1076 24.8156 24.1095 24.022 24.177C23.6197 24.2087 23.5338 24.1418 23.5338 23.8282C23.5368 20.1442 23.5213 16.4593 23.5243 12.7749C23.5243 12.4749 23.4555 12.384 23.133 12.3875C21.5148 12.4036 19.895 12.3889 18.2767 12.3948C17.8699 12.3962 17.6866 12.15 17.3425 11.4514C16.8011 10.3518 15.7946 9.57943 14.6284 9.13097C14.5756 9.11143 14.5721 9.08065 14.5254 9.00151C22.8322 9.00151 31.0968 8.99662 39.3634 9.00444C41.8551 9.00835 44.0273 9.79829 45.6642 11.6796C49.2136 15.7578 47.7656 22.9781 40.7345 24.1735Z" fill="white"/>
<path d="M35.481 22.0167C35.484 22.0568 35.493 22.0959 35.493 22.1359V23.2937C35.493 23.2937 35.4875 23.6454 35.0229 23.7505C34.5583 23.8555 32.5192 23.7505 32.5192 23.7505C32.5192 23.7505 32.0496 23.7852 32.0496 23.2937V20.8579C32.0496 20.8579 32.0696 20.4012 32.5192 20.4012H33.6869C33.8235 20.4012 33.9591 20.3738 34.0842 20.3201C34.4835 20.1491 35.3845 19.729 35.7708 19.282C35.7919 19.2571 35.8145 19.2336 35.8391 19.2121C36.0098 19.0612 36.7627 18.364 36.7627 17.7729V15.7338C36.7607 15.6161 36.7903 15.5003 36.8486 15.3972C36.9219 15.257 37.0706 15.1686 37.2328 15.1691H39.7366C39.7366 15.1691 40.2062 15.2194 40.2062 15.6259V18.0616C40.2062 18.0616 40.164 18.5321 39.7366 18.5184C39.4267 18.5081 38.9063 18.513 38.6452 18.516C38.5382 18.5174 38.4332 18.5414 38.3368 18.5858C37.9018 18.7881 36.7758 19.4163 36.5739 19.7109C36.5739 19.7109 35.4096 20.9713 35.481 22.0167Z" fill="white"/>
</g>
<g id="TetraDtech Solutions">
<path d="M10.8612 30.5521C10.7387 30.5521 10.6439 30.5182 10.5767 30.4504C10.5135 30.3785 10.4818 30.2808 10.4818 30.1571V26.9247H9.32601C9.22326 26.9247 9.14226 26.8968 9.08298 26.8409C9.02766 26.7811 9 26.7013 9 26.6015C9 26.4977 9.02766 26.4199 9.08298 26.368C9.14226 26.3122 9.22326 26.2842 9.32601 26.2842H12.3964C12.4991 26.2842 12.5782 26.3122 12.6335 26.368C12.6928 26.4199 12.7224 26.4977 12.7224 26.6015C12.7224 26.7013 12.6928 26.7811 12.6335 26.8409C12.5782 26.8968 12.4991 26.9247 12.3964 26.9247H11.2405V30.1571C11.2405 30.2808 11.2089 30.3785 11.1457 30.4504C11.0825 30.5182 10.9876 30.5521 10.8612 30.5521Z" fill="white"/>
<path d="M14.0499 30.5641C13.722 30.5641 13.4394 30.5022 13.2023 30.3785C12.9652 30.2548 12.7815 30.0792 12.6511 29.8518C12.5246 29.6243 12.4614 29.355 12.4614 29.0437C12.4614 28.7404 12.5227 28.475 12.6452 28.2476C12.7716 28.0201 12.9435 27.8425 13.1608 27.7149C13.3821 27.5832 13.633 27.5173 13.9136 27.5173C14.1191 27.5173 14.3028 27.5512 14.4649 27.6191C14.6308 27.6869 14.7711 27.7847 14.8857 27.9124C15.0042 28.0401 15.0932 28.1957 15.1524 28.3793C15.2157 28.5588 15.2473 28.7624 15.2473 28.9898C15.2473 29.0617 15.2216 29.1175 15.1702 29.1574C15.1228 29.1933 15.0536 29.2113 14.9628 29.2113H13.0601V28.7803H14.7257L14.6308 28.8701C14.6308 28.6865 14.6032 28.5329 14.5478 28.4092C14.4965 28.2855 14.4194 28.1917 14.3167 28.1279C14.2179 28.06 14.0934 28.0261 13.9432 28.0261C13.7773 28.0261 13.635 28.066 13.5165 28.1458C13.4019 28.2216 13.313 28.3314 13.2497 28.475C13.1905 28.6147 13.1608 28.7823 13.1608 28.9779V29.0198C13.1608 29.347 13.2359 29.5924 13.3861 29.756C13.5402 29.9156 13.7654 29.9954 14.0618 29.9954C14.1645 29.9954 14.2791 29.9835 14.4056 29.9595C14.536 29.9316 14.6585 29.8857 14.7731 29.8218C14.8561 29.774 14.9292 29.754 14.9924 29.762C15.0556 29.766 15.105 29.7879 15.1406 29.8278C15.1801 29.8677 15.2038 29.9176 15.2117 29.9775C15.2196 30.0333 15.2078 30.0912 15.1761 30.1511C15.1485 30.2109 15.0991 30.2628 15.028 30.3067C14.8897 30.3945 14.7296 30.4603 14.5478 30.5042C14.37 30.5441 14.2041 30.5641 14.0499 30.5641Z" fill="white"/>
<path d="M17.1502 30.5641C16.8933 30.5641 16.678 30.5202 16.5041 30.4324C16.3342 30.3446 16.2077 30.2169 16.1248 30.0493C16.0418 29.8777 16.0003 29.6662 16.0003 29.4148V28.1398H15.6921C15.5972 28.1398 15.5241 28.1159 15.4727 28.068C15.4214 28.0161 15.3957 27.9463 15.3957 27.8585C15.3957 27.7667 15.4214 27.6969 15.4727 27.649C15.5241 27.6011 15.5972 27.5772 15.6921 27.5772H16.0003V27.0325C16.0003 26.9088 16.0319 26.815 16.0951 26.7511C16.1623 26.6873 16.2552 26.6554 16.3737 26.6554C16.4923 26.6554 16.5831 26.6873 16.6464 26.7511C16.7096 26.815 16.7412 26.9088 16.7412 27.0325V27.5772H17.3695C17.4643 27.5772 17.5374 27.6011 17.5888 27.649C17.6402 27.6969 17.6659 27.7667 17.6659 27.8585C17.6659 27.9463 17.6402 28.0161 17.5888 28.068C17.5374 28.1159 17.4643 28.1398 17.3695 28.1398H16.7412V29.3729C16.7412 29.5645 16.7827 29.7081 16.8657 29.8039C16.9487 29.8997 17.083 29.9475 17.2687 29.9475C17.3359 29.9475 17.3952 29.9416 17.4466 29.9296C17.4979 29.9176 17.5434 29.9096 17.5829 29.9056C17.6303 29.9017 17.6698 29.9176 17.7014 29.9535C17.7331 29.9855 17.7489 30.0533 17.7489 30.1571C17.7489 30.2369 17.735 30.3087 17.7074 30.3725C17.6837 30.4324 17.6382 30.4743 17.571 30.4982C17.5197 30.5142 17.4525 30.5282 17.3695 30.5401C17.2865 30.5561 17.2134 30.5641 17.1502 30.5641Z" fill="white"/>
<path d="M18.4767 30.5521C18.3542 30.5521 18.2593 30.5202 18.1922 30.4563C18.1289 30.3885 18.0973 30.2927 18.0973 30.169V27.9064C18.0973 27.7827 18.1289 27.6889 18.1922 27.6251C18.2554 27.5612 18.3443 27.5293 18.4589 27.5293C18.5735 27.5293 18.6624 27.5612 18.7256 27.6251C18.7888 27.6889 18.8205 27.7827 18.8205 27.9064V28.2835H18.7612C18.8165 28.0441 18.9252 27.8625 19.0872 27.7388C19.2492 27.6151 19.4646 27.5413 19.7333 27.5173C19.8163 27.5093 19.8815 27.5313 19.9289 27.5832C19.9803 27.6311 20.0099 27.7069 20.0178 27.8106C20.0257 27.9104 20.002 27.9922 19.9467 28.056C19.8953 28.1159 19.8163 28.1518 19.7096 28.1638L19.5792 28.1758C19.3381 28.1997 19.1563 28.2755 19.0338 28.4032C18.9113 28.5269 18.8501 28.7025 18.8501 28.93V30.169C18.8501 30.2927 18.8185 30.3885 18.7553 30.4563C18.692 30.5202 18.5992 30.5521 18.4767 30.5521Z" fill="white"/>
<path d="M21.3439 30.5641C21.1344 30.5641 20.9467 30.5242 20.7808 30.4444C20.6187 30.3606 20.4903 30.2488 20.3955 30.1092C20.3046 29.9695 20.2591 29.8119 20.2591 29.6363C20.2591 29.4208 20.3145 29.2512 20.4251 29.1275C20.5358 28.9998 20.7156 28.908 20.9645 28.8522C21.2135 28.7963 21.5474 28.7683 21.9662 28.7683H22.2626V29.1993H21.9722C21.7272 29.1993 21.5316 29.2113 21.3854 29.2352C21.2391 29.2592 21.1344 29.3011 21.0712 29.3609C21.0119 29.4168 20.9823 29.4966 20.9823 29.6004C20.9823 29.7321 21.0277 29.8398 21.1186 29.9236C21.2095 30.0074 21.336 30.0493 21.498 30.0493C21.6284 30.0493 21.743 30.0194 21.8418 29.9595C21.9445 29.8957 22.0255 29.8099 22.0848 29.7021C22.1441 29.5944 22.1737 29.4707 22.1737 29.331V28.6426C22.1737 28.4431 22.1302 28.2995 22.0433 28.2117C21.9564 28.1239 21.8101 28.08 21.6047 28.08C21.4901 28.08 21.3656 28.094 21.2312 28.1219C21.1008 28.1498 20.9625 28.1977 20.8163 28.2655C20.7412 28.3015 20.6741 28.3114 20.6148 28.2955C20.5595 28.2795 20.516 28.2476 20.4844 28.1997C20.4528 28.1478 20.437 28.092 20.437 28.0321C20.437 27.9722 20.4528 27.9144 20.4844 27.8585C20.516 27.7987 20.5693 27.7548 20.6444 27.7268C20.8262 27.651 21.0001 27.5971 21.166 27.5652C21.336 27.5333 21.4901 27.5173 21.6284 27.5173C21.9129 27.5173 22.146 27.5612 22.3278 27.649C22.5135 27.7368 22.6518 27.8705 22.7427 28.0501C22.8336 28.2256 22.879 28.4531 22.879 28.7324V30.169C22.879 30.2927 22.8494 30.3885 22.7901 30.4563C22.7309 30.5202 22.6459 30.5521 22.5353 30.5521C22.4246 30.5521 22.3377 30.5202 22.2745 30.4563C22.2152 30.3885 22.1855 30.2927 22.1855 30.169V29.8817H22.233C22.2053 30.0214 22.15 30.1431 22.067 30.2468C21.988 30.3466 21.8872 30.4244 21.7647 30.4803C21.6422 30.5362 21.5019 30.5641 21.3439 30.5641Z" fill="white"/>
<path d="M24.1053 30.5042C23.9749 30.5042 23.8741 30.4703 23.803 30.4025C23.7358 30.3306 23.7022 30.2289 23.7022 30.0972V26.6913C23.7022 26.5596 23.7358 26.4598 23.803 26.392C23.8741 26.3202 23.9749 26.2842 24.1053 26.2842H25.2552C25.9546 26.2842 26.494 26.4658 26.8734 26.829C27.2567 27.1921 27.4483 27.7129 27.4483 28.3912C27.4483 28.7304 27.3989 29.0317 27.3001 29.2951C27.2053 29.5545 27.063 29.774 26.8734 29.9535C26.6876 30.1331 26.4584 30.2708 26.1858 30.3666C25.9171 30.4583 25.6069 30.5042 25.2552 30.5042H24.1053ZM24.4609 29.8697H25.2078C25.4528 29.8697 25.6642 29.8398 25.842 29.7799C26.0238 29.7161 26.1739 29.6243 26.2925 29.5046C26.415 29.3809 26.5059 29.2273 26.5651 29.0437C26.6244 28.8561 26.654 28.6387 26.654 28.3912C26.654 27.8964 26.5335 27.5273 26.2925 27.2839C26.0514 27.0405 25.6899 26.9187 25.2078 26.9187H24.4609V29.8697Z" fill="white"/>
<path d="M29.4738 30.5641C29.217 30.5641 29.0016 30.5202 28.8277 30.4324C28.6578 30.3446 28.5314 30.2169 28.4484 30.0493C28.3654 29.8777 28.3239 29.6662 28.3239 29.4148V28.1398H28.0157C27.9208 28.1398 27.8477 28.1159 27.7964 28.068C27.745 28.0161 27.7193 27.9463 27.7193 27.8585C27.7193 27.7667 27.745 27.6969 27.7964 27.649C27.8477 27.6011 27.9208 27.5772 28.0157 27.5772H28.3239V27.0325C28.3239 26.9088 28.3555 26.815 28.4187 26.7511C28.4859 26.6873 28.5788 26.6554 28.6973 26.6554C28.8159 26.6554 28.9068 26.6873 28.97 26.7511C29.0332 26.815 29.0648 26.9088 29.0648 27.0325V27.5772H29.6931C29.788 27.5772 29.8611 27.6011 29.9124 27.649C29.9638 27.6969 29.9895 27.7667 29.9895 27.8585C29.9895 27.9463 29.9638 28.0161 29.9124 28.068C29.8611 28.1159 29.788 28.1398 29.6931 28.1398H29.0648V29.3729C29.0648 29.5645 29.1063 29.7081 29.1893 29.8039C29.2723 29.8997 29.4066 29.9475 29.5924 29.9475C29.6595 29.9475 29.7188 29.9416 29.7702 29.9296C29.8216 29.9176 29.867 29.9096 29.9065 29.9056C29.9539 29.9017 29.9934 29.9176 30.0251 29.9535C30.0567 29.9855 30.0725 30.0533 30.0725 30.1571C30.0725 30.2369 30.0586 30.3087 30.031 30.3725C30.0073 30.4324 29.9618 30.4743 29.8947 30.4982C29.8433 30.5142 29.7761 30.5282 29.6931 30.5401C29.6101 30.5561 29.537 30.5641 29.4738 30.5641Z" fill="white"/>
<path d="M31.8205 30.5641C31.4925 30.5641 31.21 30.5022 30.9729 30.3785C30.7358 30.2548 30.552 30.0792 30.4216 29.8518C30.2952 29.6243 30.232 29.355 30.232 29.0437C30.232 28.7404 30.2932 28.475 30.4157 28.2476C30.5422 28.0201 30.7141 27.8425 30.9314 27.7149C31.1527 27.5832 31.4036 27.5173 31.6842 27.5173C31.8897 27.5173 32.0734 27.5512 32.2354 27.6191C32.4014 27.6869 32.5417 27.7847 32.6563 27.9124C32.7748 28.0401 32.8637 28.1957 32.923 28.3793C32.9862 28.5588 33.0178 28.7624 33.0178 28.9898C33.0178 29.0617 32.9921 29.1175 32.9408 29.1574C32.8934 29.1933 32.8242 29.2113 32.7333 29.2113H30.8306V28.7803H32.4962L32.4014 28.8701C32.4014 28.6865 32.3737 28.5329 32.3184 28.4092C32.267 28.2855 32.19 28.1917 32.0872 28.1279C31.9884 28.06 31.864 28.0261 31.7138 28.0261C31.5478 28.0261 31.4056 28.066 31.287 28.1458C31.1724 28.2216 31.0835 28.3314 31.0203 28.475C30.961 28.6147 30.9314 28.7823 30.9314 28.9779V29.0198C30.9314 29.347 31.0065 29.5924 31.1566 29.756C31.3107 29.9156 31.536 29.9954 31.8324 29.9954C31.9351 29.9954 32.0497 29.9835 32.1761 29.9595C32.3065 29.9316 32.429 29.8857 32.5436 29.8218C32.6266 29.774 32.6997 29.754 32.763 29.762C32.8262 29.766 32.8756 29.7879 32.9111 29.8278C32.9507 29.8677 32.9744 29.9176 32.9823 29.9775C32.9902 30.0333 32.9783 30.0912 32.9467 30.1511C32.919 30.2109 32.8696 30.2628 32.7985 30.3067C32.6602 30.3945 32.5002 30.4603 32.3184 30.5042C32.1406 30.5441 31.9746 30.5641 31.8205 30.5641Z" fill="white"/>
<path d="M34.9442 30.5641C34.6399 30.5641 34.3752 30.5022 34.1499 30.3785C33.9247 30.2508 33.7508 30.0713 33.6283 29.8398C33.5058 29.6084 33.4446 29.337 33.4446 29.0257C33.4446 28.7903 33.4781 28.5808 33.5453 28.3972C33.6164 28.2097 33.7172 28.0521 33.8476 27.9244C33.978 27.7927 34.1361 27.6929 34.3218 27.6251C34.5075 27.5532 34.715 27.5173 34.9442 27.5173C35.0746 27.5173 35.2149 27.5353 35.365 27.5712C35.5191 27.6071 35.6634 27.667 35.7977 27.7508C35.8609 27.7907 35.9024 27.8386 35.9222 27.8944C35.942 27.9503 35.9459 28.0082 35.9341 28.068C35.9222 28.1239 35.8965 28.1738 35.857 28.2177C35.8214 28.2576 35.776 28.2835 35.7207 28.2955C35.6653 28.3035 35.6041 28.2895 35.5369 28.2536C35.45 28.2017 35.3611 28.1638 35.2702 28.1398C35.1793 28.1119 35.0924 28.0979 35.0094 28.0979C34.879 28.0979 34.7644 28.1199 34.6656 28.1638C34.5668 28.2037 34.4818 28.2635 34.4107 28.3434C34.3435 28.4192 34.2922 28.515 34.2566 28.6307C34.221 28.7464 34.2033 28.8801 34.2033 29.0317C34.2033 29.327 34.2724 29.5605 34.4107 29.7321C34.553 29.8997 34.7525 29.9835 35.0094 29.9835C35.0924 29.9835 35.1773 29.9715 35.2643 29.9475C35.3551 29.9236 35.446 29.8857 35.5369 29.8338C35.6041 29.7979 35.6634 29.7859 35.7147 29.7979C35.7701 29.8099 35.8155 29.8378 35.8511 29.8817C35.8866 29.9216 35.9084 29.9715 35.9163 30.0313C35.9242 30.0872 35.9163 30.1431 35.8926 30.199C35.8728 30.2548 35.8333 30.3007 35.774 30.3366C35.6436 30.4164 35.5053 30.4743 35.3591 30.5102C35.2129 30.5461 35.0746 30.5641 34.9442 30.5641Z" fill="white"/>
<path d="M36.7679 30.5521C36.6494 30.5521 36.5585 30.5202 36.4953 30.4563C36.432 30.3885 36.4004 30.2927 36.4004 30.169V26.6135C36.4004 26.4898 36.432 26.396 36.4953 26.3321C36.5585 26.2683 36.6494 26.2364 36.7679 26.2364C36.8865 26.2364 36.9773 26.2683 37.0406 26.3321C37.1078 26.396 37.1413 26.4898 37.1413 26.6135V28.1638H37.0584C37.1453 27.9523 37.2796 27.7927 37.4614 27.6849C37.6471 27.5732 37.8566 27.5173 38.0897 27.5173C38.3229 27.5173 38.5145 27.5612 38.6647 27.649C38.8148 27.7368 38.9275 27.8705 39.0025 28.0501C39.0776 28.2256 39.1152 28.4491 39.1152 28.7205V30.169C39.1152 30.2927 39.0835 30.3885 39.0203 30.4563C38.9571 30.5202 38.8662 30.5521 38.7477 30.5521C38.6291 30.5521 38.5363 30.5202 38.4691 30.4563C38.4058 30.3885 38.3742 30.2927 38.3742 30.169V28.7564C38.3742 28.5289 38.3308 28.3633 38.2438 28.2596C38.1608 28.1558 38.0304 28.1039 37.8526 28.1039C37.6353 28.1039 37.4614 28.1738 37.331 28.3134C37.2046 28.4491 37.1413 28.6307 37.1413 28.8581V30.169C37.1413 30.4244 37.0169 30.5521 36.7679 30.5521Z" fill="white"/>
<path d="M42.9884 30.5641C42.8145 30.5641 42.6406 30.5501 42.4668 30.5222C42.2929 30.4982 42.1289 30.4603 41.9748 30.4085C41.8207 30.3526 41.6824 30.2847 41.5599 30.2049C41.4887 30.1571 41.4394 30.0992 41.4117 30.0313C41.384 29.9635 41.3742 29.8977 41.3821 29.8338C41.3939 29.766 41.4196 29.7081 41.4591 29.6602C41.5026 29.6084 41.5559 29.5764 41.6191 29.5645C41.6824 29.5525 41.7515 29.5704 41.8266 29.6183C42.0005 29.7221 42.1842 29.7979 42.3779 29.8458C42.5715 29.8937 42.775 29.9176 42.9884 29.9176C43.3005 29.9176 43.5278 29.8657 43.67 29.762C43.8123 29.6542 43.8834 29.5166 43.8834 29.349C43.8834 29.2093 43.832 29.0996 43.7293 29.0198C43.6305 28.9399 43.4586 28.8741 43.2136 28.8222L42.5616 28.6845C42.1862 28.6047 41.9056 28.4711 41.7199 28.2835C41.5381 28.092 41.4473 27.8406 41.4473 27.5293C41.4473 27.3338 41.4868 27.1562 41.5658 26.9966C41.6448 26.8369 41.7555 26.6993 41.8977 26.5835C42.0439 26.4678 42.2158 26.38 42.4134 26.3202C42.6149 26.2563 42.8362 26.2244 43.0773 26.2244C43.3144 26.2244 43.5396 26.2543 43.753 26.3142C43.9664 26.374 44.158 26.4618 44.328 26.5776C44.3912 26.6214 44.4327 26.6753 44.4524 26.7392C44.4761 26.803 44.4821 26.8669 44.4702 26.9307C44.4584 26.9906 44.4307 27.0424 44.3872 27.0863C44.3438 27.1302 44.2884 27.1562 44.2213 27.1642C44.158 27.1721 44.0849 27.1522 44.002 27.1043C43.8557 27.0205 43.7076 26.9606 43.5574 26.9247C43.4072 26.8888 43.2452 26.8709 43.0714 26.8709C42.8896 26.8709 42.7335 26.8968 42.6031 26.9487C42.4727 27.0005 42.3719 27.0744 42.3008 27.1701C42.2336 27.2619 42.2 27.3717 42.2 27.4994C42.2 27.643 42.2475 27.7587 42.3423 27.8465C42.4371 27.9303 42.5991 27.9962 42.8283 28.0441L43.4744 28.1817C43.8656 28.2655 44.1561 28.3972 44.3457 28.5768C44.5394 28.7564 44.6362 28.9958 44.6362 29.2951C44.6362 29.4866 44.5967 29.6602 44.5176 29.8159C44.4426 29.9715 44.3319 30.1052 44.1857 30.2169C44.0434 30.3286 43.8716 30.4144 43.67 30.4743C43.4685 30.5342 43.2413 30.5641 42.9884 30.5641Z" fill="white"/>
<path d="M46.538 30.5641C46.2377 30.5641 45.9769 30.5022 45.7556 30.3785C45.5343 30.2548 45.3624 30.0792 45.2399 29.8518C45.1174 29.6203 45.0562 29.349 45.0562 29.0377C45.0562 28.8023 45.0898 28.5928 45.157 28.4092C45.2281 28.2216 45.3289 28.062 45.4593 27.9303C45.5897 27.7947 45.7457 27.6929 45.9275 27.6251C46.1093 27.5532 46.3128 27.5173 46.538 27.5173C46.8384 27.5173 47.0992 27.5792 47.3205 27.7029C47.5417 27.8266 47.7136 28.0022 47.8361 28.2296C47.9586 28.4571 48.0199 28.7264 48.0199 29.0377C48.0199 29.2732 47.9843 29.4846 47.9132 29.6722C47.846 29.8598 47.7472 30.0214 47.6168 30.1571C47.4864 30.2887 47.3303 30.3905 47.1486 30.4623C46.9668 30.5302 46.7633 30.5641 46.538 30.5641ZM46.538 29.9954C46.6842 29.9954 46.8127 29.9595 46.9233 29.8877C47.034 29.8159 47.1189 29.7101 47.1782 29.5704C47.2414 29.4268 47.273 29.2492 47.273 29.0377C47.273 28.7185 47.2059 28.481 47.0715 28.3254C46.9371 28.1658 46.7593 28.086 46.538 28.086C46.3918 28.086 46.2634 28.1219 46.1528 28.1937C46.0421 28.2616 45.9552 28.3673 45.892 28.511C45.8327 28.6506 45.803 28.8262 45.803 29.0377C45.803 29.353 45.8702 29.5924 46.0046 29.756C46.1389 29.9156 46.3167 29.9954 46.538 29.9954Z" fill="white"/>
<path d="M49.6213 30.5641C49.2933 30.5641 49.0463 30.4703 48.8804 30.2828C48.7144 30.0912 48.6314 29.8119 48.6314 29.4447V26.6135C48.6314 26.4898 48.663 26.396 48.7263 26.3321C48.7895 26.2683 48.8804 26.2364 48.9989 26.2364C49.1175 26.2364 49.2084 26.2683 49.2716 26.3321C49.3388 26.396 49.3723 26.4898 49.3723 26.6135V29.4088C49.3723 29.5924 49.4099 29.7281 49.485 29.8159C49.564 29.9037 49.6746 29.9475 49.8169 29.9475C49.8485 29.9475 49.8782 29.9475 49.9058 29.9475C49.9335 29.9436 49.9611 29.9396 49.9888 29.9356C50.0441 29.9276 50.0817 29.9436 50.1014 29.9835C50.1212 30.0194 50.1311 30.0952 50.1311 30.2109C50.1311 30.3107 50.1113 30.3885 50.0718 30.4444C50.0323 30.5002 49.9671 30.5342 49.8762 30.5461C49.8367 30.5501 49.7952 30.5541 49.7517 30.5581C49.7082 30.5621 49.6648 30.5641 49.6213 30.5641Z" fill="white"/>
<path d="M51.5734 30.5641C51.3323 30.5641 51.1328 30.5202 50.9747 30.4324C50.8167 30.3406 50.6981 30.2049 50.6191 30.0254C50.544 29.8458 50.5065 29.6223 50.5065 29.355V27.9064C50.5065 27.7787 50.5381 27.6849 50.6013 27.6251C50.6645 27.5612 50.7554 27.5293 50.874 27.5293C50.9925 27.5293 51.0834 27.5612 51.1466 27.6251C51.2138 27.6849 51.2474 27.7787 51.2474 27.9064V29.3669C51.2474 29.5744 51.2889 29.7281 51.3719 29.8278C51.4548 29.9276 51.5872 29.9775 51.769 29.9775C51.9666 29.9775 52.1286 29.9096 52.255 29.774C52.3815 29.6343 52.4447 29.4507 52.4447 29.2233V27.9064C52.4447 27.7787 52.4763 27.6849 52.5396 27.6251C52.6028 27.5612 52.6937 27.5293 52.8122 27.5293C52.9308 27.5293 53.0217 27.5612 53.0849 27.6251C53.1521 27.6849 53.1856 27.7787 53.1856 27.9064V30.169C53.1856 30.4244 53.0651 30.5521 52.8241 30.5521C52.7095 30.5521 52.6206 30.5202 52.5573 30.4563C52.4941 30.3885 52.4625 30.2927 52.4625 30.169V29.7141L52.5455 29.8937C52.4625 30.1092 52.3361 30.2748 52.1661 30.3905C52.0002 30.5062 51.8026 30.5641 51.5734 30.5641Z" fill="white"/>
<path d="M55.2845 30.5641C55.0277 30.5641 54.8123 30.5202 54.6385 30.4324C54.4685 30.3446 54.3421 30.2169 54.2591 30.0493C54.1761 29.8777 54.1346 29.6662 54.1346 29.4148V28.1398H53.8264C53.7316 28.1398 53.6585 28.1159 53.6071 28.068C53.5557 28.0161 53.53 27.9463 53.53 27.8585C53.53 27.7667 53.5557 27.6969 53.6071 27.649C53.6585 27.6011 53.7316 27.5772 53.8264 27.5772H54.1346V27.0325C54.1346 26.9088 54.1662 26.815 54.2295 26.7511C54.2966 26.6873 54.3895 26.6554 54.508 26.6554C54.6266 26.6554 54.7175 26.6873 54.7807 26.7511C54.8439 26.815 54.8755 26.9088 54.8755 27.0325V27.5772H55.5038C55.5987 27.5772 55.6718 27.6011 55.7232 27.649C55.7745 27.6969 55.8002 27.7667 55.8002 27.8585C55.8002 27.9463 55.7745 28.0161 55.7232 28.068C55.6718 28.1159 55.5987 28.1398 55.5038 28.1398H54.8755V29.3729C54.8755 29.5645 54.917 29.7081 55 29.8039C55.083 29.8997 55.2174 29.9475 55.4031 29.9475C55.4703 29.9475 55.5295 29.9416 55.5809 29.9296C55.6323 29.9176 55.6777 29.9096 55.7172 29.9056C55.7647 29.9017 55.8042 29.9176 55.8358 29.9535C55.8674 29.9855 55.8832 30.0533 55.8832 30.1571C55.8832 30.2369 55.8694 30.3087 55.8417 30.3725C55.818 30.4324 55.7726 30.4743 55.7054 30.4982C55.654 30.5142 55.5868 30.5282 55.5038 30.5401C55.4209 30.5561 55.3478 30.5641 55.2845 30.5641Z" fill="white"/>
<path d="M56.6744 30.5461C56.5559 30.5461 56.465 30.5102 56.4018 30.4384C56.3385 30.3666 56.3069 30.2668 56.3069 30.1391V27.9423C56.3069 27.8106 56.3385 27.7109 56.4018 27.643C56.465 27.5712 56.5559 27.5353 56.6744 27.5353C56.793 27.5353 56.8838 27.5712 56.9471 27.643C57.0142 27.7109 57.0478 27.8106 57.0478 27.9423V30.1391C57.0478 30.2668 57.0162 30.3666 56.953 30.4384C56.8898 30.5102 56.7969 30.5461 56.6744 30.5461ZM56.6744 26.9786C56.5361 26.9786 56.4274 26.9447 56.3484 26.8768C56.2733 26.805 56.2358 26.7072 56.2358 26.5835C56.2358 26.4558 56.2733 26.3581 56.3484 26.2902C56.4274 26.2224 56.5361 26.1885 56.6744 26.1885C56.8167 26.1885 56.9253 26.2224 57.0004 26.2902C57.0755 26.3581 57.113 26.4558 57.113 26.5835C57.113 26.7072 57.0755 26.805 57.0004 26.8768C56.9253 26.9447 56.8167 26.9786 56.6744 26.9786Z" fill="white"/>
<path d="M59.1395 30.5641C58.8392 30.5641 58.5784 30.5022 58.3571 30.3785C58.1358 30.2548 57.9639 30.0792 57.8414 29.8518C57.7189 29.6203 57.6577 29.349 57.6577 29.0377C57.6577 28.8023 57.6912 28.5928 57.7584 28.4092C57.8296 28.2216 57.9303 28.062 58.0607 27.9303C58.1911 27.7947 58.3472 27.6929 58.529 27.6251C58.7108 27.5532 58.9143 27.5173 59.1395 27.5173C59.4398 27.5173 59.7006 27.5792 59.9219 27.7029C60.1432 27.8266 60.3151 28.0022 60.4376 28.2296C60.5601 28.4571 60.6213 28.7264 60.6213 29.0377C60.6213 29.2732 60.5858 29.4846 60.5147 29.6722C60.4475 29.8598 60.3487 30.0214 60.2183 30.1571C60.0879 30.2887 59.9318 30.3905 59.75 30.4623C59.5683 30.5302 59.3647 30.5641 59.1395 30.5641ZM59.1395 29.9954C59.2857 29.9954 59.4141 29.9595 59.5248 29.8877C59.6354 29.8159 59.7204 29.7101 59.7797 29.5704C59.8429 29.4268 59.8745 29.2492 59.8745 29.0377C59.8745 28.7185 59.8073 28.481 59.673 28.3254C59.5386 28.1658 59.3608 28.086 59.1395 28.086C58.9933 28.086 58.8649 28.1219 58.7542 28.1937C58.6436 28.2616 58.5566 28.3673 58.4934 28.511C58.4342 28.6506 58.4045 28.8262 58.4045 29.0377C58.4045 29.353 58.4717 29.5924 58.606 29.756C58.7404 29.9156 58.9182 29.9954 59.1395 29.9954Z" fill="white"/>
<path d="M61.6004 30.5521C61.4818 30.5521 61.391 30.5202 61.3277 30.4563C61.2645 30.3885 61.2329 30.2927 61.2329 30.169V27.9064C61.2329 27.7827 61.2645 27.6889 61.3277 27.6251C61.391 27.5612 61.4799 27.5293 61.5945 27.5293C61.7091 27.5293 61.798 27.5612 61.8612 27.6251C61.9244 27.6889 61.956 27.7827 61.956 27.9064V28.3134L61.8908 28.1638C61.9778 27.9523 62.1121 27.7927 62.2939 27.6849C62.4796 27.5732 62.689 27.5173 62.9222 27.5173C63.1553 27.5173 63.347 27.5612 63.4972 27.649C63.6473 27.7368 63.7599 27.8705 63.835 28.0501C63.9101 28.2256 63.9476 28.4491 63.9476 28.7205V30.169C63.9476 30.2927 63.916 30.3885 63.8528 30.4563C63.7896 30.5202 63.6987 30.5521 63.5801 30.5521C63.4616 30.5521 63.3687 30.5202 63.3015 30.4563C63.2383 30.3885 63.2067 30.2927 63.2067 30.169V28.7564C63.2067 28.5289 63.1632 28.3633 63.0763 28.2596C62.9933 28.1558 62.8629 28.1039 62.6851 28.1039C62.4678 28.1039 62.2939 28.1738 62.1635 28.3134C62.037 28.4491 61.9738 28.6307 61.9738 28.8581V30.169C61.9738 30.4244 61.8493 30.5521 61.6004 30.5521Z" fill="white"/>
<path d="M65.7612 30.5641C65.5913 30.5641 65.4115 30.5461 65.2218 30.5102C65.0321 30.4743 64.8622 30.4124 64.712 30.3247C64.6488 30.2847 64.6034 30.2389 64.5757 30.187C64.552 30.1311 64.5421 30.0772 64.5461 30.0254C64.554 29.9695 64.5737 29.9216 64.6053 29.8817C64.6409 29.8418 64.6844 29.8159 64.7357 29.8039C64.7911 29.7919 64.8503 29.8019 64.9136 29.8338C65.0716 29.9096 65.2198 29.9635 65.3581 29.9954C65.4964 30.0234 65.6327 30.0373 65.7671 30.0373C65.9568 30.0373 66.0971 30.0054 66.188 29.9416C66.2828 29.8737 66.3302 29.7859 66.3302 29.6782C66.3302 29.5864 66.2986 29.5166 66.2354 29.4687C66.1761 29.4168 66.0852 29.3789 65.9627 29.355L65.37 29.2412C65.125 29.1933 64.9373 29.1036 64.8069 28.9719C64.6804 28.8362 64.6172 28.6626 64.6172 28.4511C64.6172 28.2596 64.6686 28.094 64.7713 27.9543C64.878 27.8146 65.0242 27.7069 65.2099 27.6311C65.3957 27.5552 65.609 27.5173 65.8501 27.5173C66.024 27.5173 66.186 27.5373 66.3361 27.5772C66.4902 27.6131 66.6384 27.671 66.7807 27.7508C66.84 27.7827 66.8795 27.8246 66.8992 27.8765C66.9229 27.9283 66.9289 27.9822 66.917 28.0381C66.9052 28.09 66.8815 28.1378 66.8459 28.1817C66.8103 28.2216 66.7649 28.2476 66.7096 28.2596C66.6582 28.2675 66.5989 28.2556 66.5317 28.2236C66.4092 28.1598 66.2907 28.1139 66.1761 28.086C66.0654 28.058 65.9588 28.0441 65.856 28.0441C65.6624 28.0441 65.5182 28.078 65.4233 28.1458C65.3324 28.2137 65.287 28.3035 65.287 28.4152C65.287 28.499 65.3146 28.5688 65.37 28.6247C65.4253 28.6806 65.5103 28.7185 65.6248 28.7384L66.2176 28.8522C66.4744 28.9 66.6681 28.9878 66.7985 29.1155C66.9328 29.2432 67 29.4148 67 29.6303C67 29.9216 66.8874 30.1511 66.6621 30.3187C66.4369 30.4823 66.1366 30.5641 65.7612 30.5641Z" fill="white"/>
</g>
</g>
</g>
<defs>
<linearGradient id="paint0_linear_1027_2274" x1="0" y1="0" x2="76.4839" y2="0.947651" gradientUnits="userSpaceOnUse">
<stop stop-color="white"/>
<stop offset="0.6" stop-color="white" stop-opacity="0.75"/>
<stop offset="1" stop-color="white" stop-opacity="0.25"/>
</linearGradient>
</defs>
</svg>
