<svg width="116" height="51" viewBox="0 0 116 51" fill="none" xmlns="http://www.w3.org/2000/svg">
<rect x="0.5" y="0.5" width="115" height="50" rx="9.5" fill="#4B7BB3" fill-opacity="0.25"/>
<rect x="0.5" y="0.5" width="115" height="50" rx="9.5" stroke="url(#paint0_linear_178_1047)"/>
<path d="M52.3987 14.7614H46.9584V22.9856H52.3987V14.7614Z" fill="white"/>
<path d="M100.121 8.00596C99.1676 8.90046 98.4456 9.62268 97.2898 10.4642C96.5155 11.034 95.8284 11.698 95.2449 12.4387C94.8538 12.9312 94.5308 13.1108 94.0155 13.1079C91.0088 13.088 88.0012 13.099 84.9945 13.0637C84.4712 13.0578 84.377 13.2065 84.3786 13.6541C84.3976 19.2074 84.3889 24.7606 84.4071 30.3138C84.4087 30.7401 84.3351 30.8947 83.8237 30.8792C82.3306 30.835 80.8352 30.8402 79.3413 30.8542C78.9399 30.8586 78.7895 30.7931 78.7903 30.3697C78.8022 24.8335 78.7998 19.2972 78.7832 13.7609C78.7816 12.968 78.8283 13.1042 78.0406 13.0998C76.0725 13.0895 74.1045 13.0873 72.1364 13.0733C71.9369 13.0718 71.7255 13.1388 71.5688 12.8944C70.3789 11.0517 68.7125 9.61311 66.9542 8.25701C66.8727 8.19443 66.7998 8.12302 66.6653 8.00596H100.121Z" fill="white"/>
<path d="M60.598 30.8667C58.6853 30.9381 56.6389 30.8578 54.6605 30.8527V25.6919C56.1552 25.6801 57.6522 25.7103 59.1477 25.669C62.7077 25.5674 65.6084 22.9326 65.7018 19.7602C65.8031 16.2507 63.2571 13.4973 59.5498 13.1881C58.375 13.0895 57.1843 13.1196 56 13.1174C50.4798 13.1064 44.9588 13.1086 39.4385 13.085C38.9691 13.0828 39.0094 13.2919 39.0094 13.5746C39.0118 19.1462 39.0039 24.7142 39.0269 30.2843C39.0292 30.8799 38.8321 30.9285 38.0151 30.8645C36.7635 30.7673 35.5064 30.7702 34.2555 30.8718C33.6214 30.9197 33.486 30.8188 33.486 30.3462C33.4908 24.7944 33.4663 19.2412 33.471 13.6887C33.471 13.2367 33.3626 13.0998 32.8543 13.1049C30.3036 13.1292 27.7505 13.1071 25.1998 13.116C24.5585 13.1182 24.2696 12.7471 23.7273 11.6944C22.8739 10.0371 21.2874 8.87321 19.4492 8.19737C19.366 8.16792 19.3605 8.12154 19.2869 8.00227C32.3801 8.00227 45.4068 7.99491 58.4367 8.00669C62.3642 8.01258 65.7881 9.20303 68.3681 12.0382C73.9627 18.184 71.6804 29.0652 60.598 30.8667Z" fill="white"/>
<path d="M52.3172 27.6163C52.322 27.6767 52.3362 27.7356 52.3362 27.7959V29.5408C52.3362 29.5408 52.3275 30.0708 51.5952 30.2291C50.863 30.3874 47.6488 30.2291 47.6488 30.2291C47.6488 30.2291 46.9086 30.2814 46.9086 29.5408V25.87C46.9086 25.87 46.9403 25.1817 47.6488 25.1817H49.4894C49.7048 25.1817 49.9185 25.1404 50.1156 25.0595C50.745 24.8018 52.1652 24.1686 52.774 23.495C52.8073 23.4575 52.8429 23.4221 52.8817 23.3897C53.1508 23.1622 54.3375 22.1117 54.3375 21.2209V18.1479C54.3344 17.9705 54.3811 17.796 54.4729 17.6407C54.5885 17.4294 54.8228 17.2961 55.0785 17.2969H59.025C59.025 17.2969 59.7652 17.3727 59.7652 17.9852V21.656C59.7652 21.656 59.6987 22.3649 59.025 22.3443C58.5365 22.3289 57.7163 22.3362 57.3047 22.3406C57.1361 22.3429 56.9706 22.3789 56.8186 22.4459C56.133 22.7507 54.3581 23.6975 54.0399 24.1414C54.0399 24.1414 52.2048 26.0408 52.3172 27.6163Z" fill="white"/>
<path d="M13.5485 43.9477C13.3479 43.9477 13.1925 43.8926 13.0825 43.7826C12.9789 43.6661 12.9272 43.5075 12.9272 43.3069V38.0642H11.034C10.8657 38.0642 10.733 38.0189 10.6359 37.9283C10.5453 37.8312 10.5 37.7018 10.5 37.5399C10.5 37.3717 10.5453 37.2454 10.6359 37.1613C10.733 37.0707 10.8657 37.0254 11.034 37.0254H16.063C16.2313 37.0254 16.3608 37.0707 16.4514 37.1613C16.5485 37.2454 16.597 37.3717 16.597 37.5399C16.597 37.7018 16.5485 37.8312 16.4514 37.9283C16.3608 38.0189 16.2313 38.0642 16.063 38.0642H14.1699V43.3069C14.1699 43.5075 14.1181 43.6661 14.0145 43.7826C13.911 43.8926 13.7556 43.9477 13.5485 43.9477Z" fill="white"/>
<path d="M18.7715 43.9671C18.2342 43.9671 17.7715 43.8667 17.3831 43.6661C16.9948 43.4655 16.6938 43.1807 16.4802 42.8117C16.2731 42.4428 16.1695 42.0059 16.1695 41.5011C16.1695 41.0092 16.2699 40.5788 16.4705 40.2098C16.6776 39.8409 16.9592 39.5529 17.3152 39.3458C17.6776 39.1322 18.0886 39.0254 18.5482 39.0254C18.8847 39.0254 19.1857 39.0804 19.4511 39.1904C19.7229 39.3004 19.9527 39.459 20.1404 39.6661C20.3345 39.8733 20.4802 40.1257 20.5773 40.4234C20.6808 40.7147 20.7326 41.0448 20.7326 41.4137C20.7326 41.5302 20.6905 41.6208 20.6064 41.6855C20.5287 41.7438 20.4155 41.7729 20.2666 41.7729H17.1501V41.0739H19.8782L19.7229 41.2195C19.7229 40.9218 19.6776 40.6726 19.587 40.472C19.5028 40.2713 19.3766 40.1192 19.2083 40.0156C19.0465 39.9056 18.8427 39.8506 18.5967 39.8506C18.3249 39.8506 18.0919 39.9153 17.8977 40.0448C17.71 40.1678 17.5643 40.3457 17.4608 40.5788C17.3637 40.8053 17.3152 41.0771 17.3152 41.3943V41.4622C17.3152 41.993 17.4381 42.391 17.6841 42.6564C17.9365 42.9153 18.3054 43.0447 18.7909 43.0447C18.9592 43.0447 19.1469 43.0253 19.354 42.9865C19.5676 42.9412 19.7682 42.8668 19.9559 42.7632C20.0918 42.6855 20.2116 42.6532 20.3151 42.6661C20.4187 42.6726 20.4996 42.7082 20.5578 42.7729C20.6226 42.8376 20.6614 42.9185 20.6743 43.0156C20.6873 43.1062 20.6679 43.2001 20.6161 43.2972C20.5708 43.3943 20.4899 43.4784 20.3734 43.5496C20.1468 43.692 19.8847 43.7988 19.587 43.87C19.2957 43.9347 19.0239 43.9671 18.7715 43.9671Z" fill="white"/>
<path d="M23.8495 43.9671C23.4287 43.9671 23.076 43.8959 22.7912 43.7535C22.5129 43.6111 22.3058 43.404 22.1699 43.1321C22.0339 42.8538 21.966 42.5108 21.966 42.103V40.0351H21.4611C21.3058 40.0351 21.186 39.9962 21.1019 39.9186C21.0178 39.8344 20.9757 39.7212 20.9757 39.5788C20.9757 39.4299 21.0178 39.3166 21.1019 39.239C21.186 39.1613 21.3058 39.1225 21.4611 39.1225H21.966V38.239C21.966 38.0383 22.0178 37.8862 22.1213 37.7827C22.2313 37.6791 22.3834 37.6273 22.5776 37.6273C22.7718 37.6273 22.9207 37.6791 23.0242 37.7827C23.1278 37.8862 23.1796 38.0383 23.1796 38.239V39.1225H24.2087C24.364 39.1225 24.4837 39.1613 24.5679 39.239C24.652 39.3166 24.6941 39.4299 24.6941 39.5788C24.6941 39.7212 24.652 39.8344 24.5679 39.9186C24.4837 39.9962 24.364 40.0351 24.2087 40.0351H23.1796V42.035C23.1796 42.3457 23.2475 42.5787 23.3834 42.7341C23.5194 42.8894 23.7394 42.9671 24.0436 42.9671C24.1537 42.9671 24.2507 42.9574 24.3349 42.938C24.419 42.9185 24.4935 42.9056 24.5582 42.8991C24.6359 42.8926 24.7006 42.9185 24.7524 42.9768C24.8041 43.0286 24.83 43.1386 24.83 43.3069C24.83 43.4363 24.8074 43.5528 24.7621 43.6564C24.7232 43.7535 24.6488 43.8214 24.5388 43.8603C24.4546 43.8862 24.3446 43.9088 24.2087 43.9282C24.0728 43.9541 23.953 43.9671 23.8495 43.9671Z" fill="white"/>
<path d="M26.0221 43.9477C25.8215 43.9477 25.6662 43.8959 25.5561 43.7923C25.4526 43.6823 25.4008 43.5269 25.4008 43.3263V39.6564C25.4008 39.4558 25.4526 39.3037 25.5561 39.2001C25.6597 39.0966 25.8053 39.0448 25.993 39.0448C26.1807 39.0448 26.3263 39.0966 26.4299 39.2001C26.5335 39.3037 26.5852 39.4558 26.5852 39.6564V40.2681H26.4882C26.5788 39.8797 26.7568 39.5852 27.0221 39.3846C27.2875 39.1839 27.6402 39.0642 28.0804 39.0254C28.2163 39.0124 28.3231 39.048 28.4008 39.1322C28.4849 39.2098 28.5334 39.3328 28.5464 39.5011C28.5593 39.6629 28.5205 39.7956 28.4299 39.8991C28.3457 39.9962 28.2163 40.0545 28.0415 40.0739L27.8279 40.0933C27.4331 40.1322 27.1354 40.2551 26.9347 40.4622C26.7341 40.6629 26.6338 40.9477 26.6338 41.3166V43.3263C26.6338 43.5269 26.582 43.6823 26.4784 43.7923C26.3749 43.8959 26.2228 43.9477 26.0221 43.9477Z" fill="white"/>
<path d="M30.7184 43.9671C30.3753 43.9671 30.0679 43.9023 29.7961 43.7729C29.5307 43.637 29.3203 43.4557 29.165 43.2292C29.0161 43.0027 28.9417 42.747 28.9417 42.4622C28.9417 42.1127 29.0323 41.8376 29.2135 41.637C29.3948 41.4299 29.6893 41.281 30.097 41.1904C30.5048 41.0998 31.0517 41.0545 31.7378 41.0545H32.2232V41.7535H31.7475C31.3462 41.7535 31.0258 41.7729 30.7863 41.8117C30.5469 41.8506 30.3753 41.9185 30.2718 42.0156C30.1747 42.1062 30.1262 42.2357 30.1262 42.404C30.1262 42.6176 30.2006 42.7923 30.3495 42.9282C30.4983 43.0642 30.7054 43.1321 30.9708 43.1321C31.1844 43.1321 31.3721 43.0836 31.5339 42.9865C31.7022 42.8829 31.8349 42.7438 31.932 42.569C32.0291 42.3943 32.0776 42.1936 32.0776 41.9671V40.8506C32.0776 40.527 32.0064 40.294 31.864 40.1516C31.7216 40.0092 31.4821 39.938 31.1456 39.938C30.9579 39.938 30.754 39.9606 30.5339 40.0059C30.3203 40.0512 30.0938 40.1289 29.8543 40.2389C29.7313 40.2972 29.6213 40.3134 29.5242 40.2875C29.4336 40.2616 29.3624 40.2098 29.3106 40.1322C29.2589 40.048 29.233 39.9574 29.233 39.8603C29.233 39.7632 29.2589 39.6694 29.3106 39.5788C29.3624 39.4817 29.4498 39.4105 29.5728 39.3652C29.8705 39.2422 30.1553 39.1548 30.4271 39.103C30.7054 39.0513 30.9579 39.0254 31.1844 39.0254C31.6504 39.0254 32.0323 39.0966 32.33 39.239C32.6342 39.3814 32.8608 39.5982 33.0096 39.8894C33.1585 40.1742 33.2329 40.5432 33.2329 40.9962V43.3263C33.2329 43.5269 33.1844 43.6823 33.0873 43.7923C32.9902 43.8959 32.8511 43.9477 32.6698 43.9477C32.4886 43.9477 32.3462 43.8959 32.2426 43.7923C32.1456 43.6823 32.097 43.5269 32.097 43.3263V42.8603H32.1747C32.1294 43.0868 32.0388 43.2842 31.9028 43.4525C31.7734 43.6143 31.6083 43.7405 31.4077 43.8311C31.2071 43.9218 30.9773 43.9671 30.7184 43.9671Z" fill="white"/>
<path d="M35.2414 43.87C35.0278 43.87 34.8628 43.815 34.7463 43.7049C34.6362 43.5884 34.5812 43.4234 34.5812 43.2098V37.6856C34.5812 37.472 34.6362 37.3102 34.7463 37.2001C34.8628 37.0836 35.0278 37.0254 35.2414 37.0254H37.1249C38.2705 37.0254 39.154 37.3199 39.7753 37.9089C40.4032 38.4979 40.7171 39.3425 40.7171 40.4428C40.7171 40.993 40.6362 41.4817 40.4744 41.9088C40.319 42.3295 40.086 42.6855 39.7753 42.9768C39.4711 43.268 39.0957 43.4913 38.6491 43.6467C38.209 43.7955 37.7009 43.87 37.1249 43.87H35.2414ZM35.8239 42.8409H37.0472C37.4485 42.8409 37.7948 42.7923 38.086 42.6952C38.3838 42.5917 38.6297 42.4428 38.8239 42.2486C39.0245 42.048 39.1734 41.7988 39.2705 41.5011C39.3676 41.1969 39.4161 40.8441 39.4161 40.4428C39.4161 39.6402 39.2187 39.0415 38.8239 38.6467C38.4291 38.2519 37.8368 38.0545 37.0472 38.0545H35.8239V42.8409Z" fill="white"/>
<path d="M44.0347 43.9671C43.614 43.9671 43.2612 43.8959 42.9765 43.7535C42.6981 43.6111 42.491 43.404 42.3551 43.1321C42.2192 42.8538 42.1512 42.5108 42.1512 42.103V40.0351H41.6464C41.491 40.0351 41.3713 39.9962 41.2872 39.9186C41.203 39.8344 41.1609 39.7212 41.1609 39.5788C41.1609 39.4299 41.203 39.3166 41.2872 39.239C41.3713 39.1613 41.491 39.1225 41.6464 39.1225H42.1512V38.239C42.1512 38.0383 42.203 37.8862 42.3066 37.7827C42.4166 37.6791 42.5687 37.6273 42.7629 37.6273C42.957 37.6273 43.1059 37.6791 43.2095 37.7827C43.313 37.8862 43.3648 38.0383 43.3648 38.239V39.1225H44.3939C44.5493 39.1225 44.669 39.1613 44.7531 39.239C44.8373 39.3166 44.8793 39.4299 44.8793 39.5788C44.8793 39.7212 44.8373 39.8344 44.7531 39.9186C44.669 39.9962 44.5493 40.0351 44.3939 40.0351H43.3648V42.035C43.3648 42.3457 43.4328 42.5787 43.5687 42.7341C43.7046 42.8894 43.9247 42.9671 44.2289 42.9671C44.3389 42.9671 44.436 42.9574 44.5201 42.938C44.6043 42.9185 44.6787 42.9056 44.7434 42.8991C44.8211 42.8926 44.8858 42.9185 44.9376 42.9768C44.9894 43.0286 45.0153 43.1386 45.0153 43.3069C45.0153 43.4363 44.9926 43.5528 44.9473 43.6564C44.9085 43.7535 44.834 43.8214 44.724 43.8603C44.6399 43.8862 44.5298 43.9088 44.3939 43.9282C44.258 43.9541 44.1383 43.9671 44.0347 43.9671Z" fill="white"/>
<path d="M47.8784 43.9671C47.3412 43.9671 46.8784 43.8667 46.4901 43.6661C46.1017 43.4655 45.8008 43.1807 45.5872 42.8117C45.38 42.4428 45.2765 42.0059 45.2765 41.5011C45.2765 41.0092 45.3768 40.5788 45.5775 40.2098C45.7846 39.8409 46.0661 39.5529 46.4221 39.3458C46.7846 39.1322 47.1956 39.0254 47.6551 39.0254C47.9917 39.0254 48.2926 39.0804 48.558 39.1904C48.8298 39.3004 49.0596 39.459 49.2473 39.6661C49.4415 39.8733 49.5871 40.1257 49.6842 40.4234C49.7878 40.7147 49.8395 41.0448 49.8395 41.4137C49.8395 41.5302 49.7975 41.6208 49.7133 41.6855C49.6357 41.7438 49.5224 41.7729 49.3735 41.7729H46.2571V41.0739H48.9852L48.8298 41.2195C48.8298 40.9218 48.7845 40.6726 48.6939 40.472C48.6098 40.2713 48.4836 40.1192 48.3153 40.0156C48.1535 39.9056 47.9496 39.8506 47.7036 39.8506C47.4318 39.8506 47.1988 39.9153 47.0046 40.0448C46.8169 40.1678 46.6713 40.3457 46.5677 40.5788C46.4707 40.8053 46.4221 41.0771 46.4221 41.3943V41.4622C46.4221 41.993 46.5451 42.391 46.791 42.6564C47.0435 42.9153 47.4124 43.0447 47.8978 43.0447C48.0661 43.0447 48.2538 43.0253 48.4609 42.9865C48.6745 42.9412 48.8752 42.8668 49.0629 42.7632C49.1988 42.6855 49.3185 42.6532 49.4221 42.6661C49.5256 42.6726 49.6065 42.7082 49.6648 42.7729C49.7295 42.8376 49.7684 42.9185 49.7813 43.0156C49.7942 43.1062 49.7748 43.2001 49.723 43.2972C49.6777 43.3943 49.5968 43.4784 49.4803 43.5496C49.2538 43.692 48.9917 43.7988 48.6939 43.87C48.4027 43.9347 48.1308 43.9671 47.8784 43.9671Z" fill="white"/>
<path d="M52.9948 43.9671C52.4964 43.9671 52.0627 43.8667 51.6938 43.6661C51.3249 43.459 51.0401 43.1677 50.8395 42.7923C50.6388 42.4169 50.5385 41.9768 50.5385 41.4719C50.5385 41.0901 50.5935 40.7503 50.7035 40.4525C50.82 40.1483 50.9851 39.8927 51.1987 39.6856C51.4123 39.472 51.6712 39.3102 51.9754 39.2001C52.2796 39.0836 52.6194 39.0254 52.9948 39.0254C53.2084 39.0254 53.4381 39.0545 53.6841 39.1127C53.9365 39.171 54.1728 39.2681 54.3928 39.404C54.4964 39.4687 54.5643 39.5464 54.5967 39.637C54.6291 39.7276 54.6355 39.8215 54.6161 39.9186C54.5967 40.0092 54.5546 40.0901 54.4899 40.1613C54.4317 40.226 54.3572 40.2681 54.2666 40.2875C54.176 40.3004 54.0757 40.2778 53.9656 40.2195C53.8232 40.1354 53.6776 40.0739 53.5288 40.0351C53.3799 39.9898 53.2375 39.9671 53.1016 39.9671C52.888 39.9671 52.7003 40.0027 52.5385 40.0739C52.3767 40.1386 52.2375 40.2357 52.121 40.3652C52.011 40.4881 51.9268 40.6435 51.8686 40.8312C51.8103 41.0189 51.7812 41.2357 51.7812 41.4817C51.7812 41.9606 51.8945 42.3393 52.121 42.6176C52.354 42.8894 52.6809 43.0253 53.1016 43.0253C53.2375 43.0253 53.3767 43.0059 53.519 42.9671C53.6679 42.9282 53.8168 42.8668 53.9656 42.7826C54.0757 42.7244 54.1728 42.7049 54.2569 42.7244C54.3475 42.7438 54.422 42.7891 54.4802 42.8603C54.5385 42.925 54.574 43.0059 54.587 43.103C54.5999 43.1936 54.587 43.2842 54.5482 43.3748C54.5158 43.4655 54.4511 43.5399 54.354 43.5981C54.1404 43.7276 53.9139 43.8214 53.6744 43.8797C53.4349 43.9379 53.2084 43.9671 52.9948 43.9671Z" fill="white"/>
<path d="M55.9819 43.9477C55.7878 43.9477 55.6389 43.8959 55.5353 43.7923C55.4318 43.6823 55.38 43.5269 55.38 43.3263V37.5594C55.38 37.3587 55.4318 37.2066 55.5353 37.1031C55.6389 36.9995 55.7878 36.9477 55.9819 36.9477C56.1761 36.9477 56.325 36.9995 56.4285 37.1031C56.5386 37.2066 56.5936 37.3587 56.5936 37.5594V40.0739H56.4577C56.6 39.7309 56.8201 39.472 57.1178 39.2972C57.422 39.116 57.7651 39.0254 58.147 39.0254C58.5288 39.0254 58.8427 39.0966 59.0887 39.239C59.3346 39.3814 59.5191 39.5982 59.6421 39.8894C59.7651 40.1742 59.8265 40.5367 59.8265 40.9768V43.3263C59.8265 43.5269 59.7748 43.6823 59.6712 43.7923C59.5677 43.8959 59.4188 43.9477 59.2246 43.9477C59.0304 43.9477 58.8783 43.8959 58.7683 43.7923C58.6648 43.6823 58.613 43.5269 58.613 43.3263V41.0351C58.613 40.6661 58.5418 40.3975 58.3994 40.2292C58.2635 40.061 58.0499 39.9768 57.7586 39.9768C57.4026 39.9768 57.1178 40.0901 56.9043 40.3166C56.6971 40.5367 56.5936 40.8312 56.5936 41.2001V43.3263C56.5936 43.7405 56.3897 43.9477 55.9819 43.9477Z" fill="white"/>
<path d="M66.1706 43.9671C65.8858 43.9671 65.601 43.9444 65.3163 43.8991C65.0315 43.8603 64.7629 43.7988 64.5104 43.7146C64.258 43.624 64.0315 43.514 63.8308 43.3846C63.7143 43.3069 63.6334 43.213 63.5881 43.103C63.5428 42.993 63.5266 42.8862 63.5396 42.7826C63.559 42.6726 63.6011 42.5787 63.6658 42.5011C63.737 42.4169 63.8244 42.3651 63.9279 42.3457C64.0315 42.3263 64.1447 42.3554 64.2677 42.4331C64.5525 42.6014 64.8535 42.7244 65.1706 42.802C65.4878 42.8797 65.8211 42.9185 66.1706 42.9185C66.6819 42.9185 67.0541 42.8344 67.2871 42.6661C67.5201 42.4914 67.6366 42.2681 67.6366 41.9962C67.6366 41.7697 67.5525 41.5917 67.3842 41.4622C67.2224 41.3328 66.9408 41.226 66.5395 41.1419L65.4716 40.9186C64.8567 40.7891 64.3972 40.5723 64.093 40.2681C63.7952 39.9574 63.6464 39.5496 63.6464 39.0448C63.6464 38.7276 63.7111 38.4396 63.8405 38.1807C63.97 37.9218 64.1512 37.6985 64.3842 37.5108C64.6237 37.3231 64.9053 37.1807 65.2289 37.0836C65.559 36.9801 65.9214 36.9283 66.3162 36.9283C66.7046 36.9283 67.0735 36.9768 67.423 37.0739C67.7725 37.171 68.0864 37.3134 68.3648 37.5011C68.4683 37.5723 68.5363 37.6597 68.5686 37.7632C68.6075 37.8668 68.6172 37.9704 68.5978 38.0739C68.5784 38.171 68.533 38.2551 68.4619 38.3263C68.3907 38.3975 68.3 38.4396 68.19 38.4526C68.0865 38.4655 67.9667 38.4331 67.8308 38.3555C67.5913 38.2196 67.3486 38.1225 67.1026 38.0642C66.8567 38.006 66.5913 37.9768 66.3065 37.9768C66.0088 37.9768 65.7531 38.0189 65.5396 38.103C65.326 38.1872 65.1609 38.3069 65.0444 38.4623C64.9344 38.6111 64.8794 38.7891 64.8794 38.9962C64.8794 39.2292 64.957 39.417 65.1124 39.5593C65.2677 39.6953 65.5331 39.8021 65.9085 39.8797L66.9667 40.103C67.6075 40.2389 68.0832 40.4525 68.3939 40.7438C68.711 41.0351 68.8696 41.4234 68.8696 41.9088C68.8696 42.2195 68.8049 42.5011 68.6754 42.7535C68.5525 43.0059 68.3712 43.2227 68.1318 43.404C67.8988 43.5852 67.6172 43.7244 67.2871 43.8214C66.957 43.9185 66.5848 43.9671 66.1706 43.9671Z" fill="white"/>
<path d="M71.9847 43.9671C71.4928 43.9671 71.0656 43.8667 70.7032 43.6661C70.3407 43.4655 70.0592 43.1807 69.8585 42.8117C69.6579 42.4363 69.5576 41.9962 69.5576 41.4914C69.5576 41.1095 69.6126 40.7697 69.7226 40.472C69.8391 40.1678 70.0042 39.9089 70.2177 39.6953C70.4313 39.4752 70.687 39.3102 70.9847 39.2001C71.2825 39.0836 71.6158 39.0254 71.9847 39.0254C72.4766 39.0254 72.9038 39.1257 73.2663 39.3263C73.6287 39.527 73.9103 39.8118 74.1109 40.1807C74.3116 40.5496 74.4119 40.9865 74.4119 41.4914C74.4119 41.8732 74.3536 42.2163 74.2371 42.5205C74.1271 42.8247 73.9653 43.0868 73.7517 43.3069C73.5381 43.5205 73.2824 43.6855 72.9847 43.802C72.687 43.9121 72.3536 43.9671 71.9847 43.9671ZM71.9847 43.0447C72.2242 43.0447 72.4346 42.9865 72.6158 42.87C72.797 42.7535 72.9362 42.582 73.0333 42.3554C73.1368 42.1224 73.1886 41.8344 73.1886 41.4914C73.1886 40.9736 73.0786 40.5885 72.8585 40.336C72.6384 40.0771 72.3472 39.9477 71.9847 39.9477C71.7452 39.9477 71.5349 40.0059 71.3537 40.1224C71.1724 40.2325 71.03 40.404 70.9265 40.637C70.8294 40.8635 70.7808 41.1483 70.7808 41.4914C70.7808 42.0027 70.8909 42.391 71.1109 42.6564C71.331 42.9153 71.6223 43.0447 71.9847 43.0447Z" fill="white"/>
<path d="M77.0349 43.9671C76.4977 43.9671 76.0931 43.815 75.8213 43.5108C75.5495 43.2001 75.4135 42.747 75.4135 42.1516V37.5594C75.4135 37.3587 75.4653 37.2066 75.5689 37.1031C75.6724 36.9995 75.8213 36.9477 76.0155 36.9477C76.2096 36.9477 76.3585 36.9995 76.4621 37.1031C76.5721 37.2066 76.6271 37.3587 76.6271 37.5594V42.0933C76.6271 42.391 76.6886 42.6111 76.8116 42.7535C76.941 42.8959 77.1223 42.9671 77.3553 42.9671C77.407 42.9671 77.4556 42.9671 77.5009 42.9671C77.5462 42.9606 77.5915 42.9541 77.6368 42.9477C77.7274 42.9347 77.7889 42.9606 77.8213 43.0253C77.8536 43.0836 77.8698 43.2066 77.8698 43.3943C77.8698 43.5561 77.8375 43.6823 77.7727 43.7729C77.708 43.8635 77.6012 43.9185 77.4524 43.9379C77.3876 43.9444 77.3197 43.9509 77.2485 43.9574C77.1773 43.9638 77.1061 43.9671 77.0349 43.9671Z" fill="white"/>
<path d="M80.2323 43.9671C79.8375 43.9671 79.5106 43.8959 79.2517 43.7535C78.9928 43.6046 78.7986 43.3845 78.6692 43.0933C78.5462 42.802 78.4847 42.4396 78.4847 42.0059V39.6564C78.4847 39.4493 78.5365 39.2972 78.6401 39.2001C78.7436 39.0966 78.8925 39.0448 79.0867 39.0448C79.2808 39.0448 79.4297 39.0966 79.5333 39.2001C79.6433 39.2972 79.6983 39.4493 79.6983 39.6564V42.0253C79.6983 42.3619 79.7663 42.6111 79.9022 42.7729C80.0381 42.9347 80.2549 43.0156 80.5527 43.0156C80.8763 43.0156 81.1417 42.9056 81.3488 42.6855C81.5559 42.459 81.6595 42.1613 81.6595 41.7923V39.6564C81.6595 39.4493 81.7112 39.2972 81.8148 39.2001C81.9184 39.0966 82.0672 39.0448 82.2614 39.0448C82.4556 39.0448 82.6044 39.0966 82.708 39.2001C82.818 39.2972 82.873 39.4493 82.873 39.6564V43.3263C82.873 43.7405 82.6756 43.9477 82.2808 43.9477C82.0931 43.9477 81.9475 43.8959 81.8439 43.7923C81.7404 43.6823 81.6886 43.5269 81.6886 43.3263V42.5884L81.8245 42.8797C81.6886 43.2292 81.4815 43.4978 81.2031 43.6855C80.9313 43.8732 80.6077 43.9671 80.2323 43.9671Z" fill="white"/>
<path d="M86.3109 43.9671C85.8902 43.9671 85.5374 43.8959 85.2526 43.7535C84.9743 43.6111 84.7672 43.404 84.6313 43.1321C84.4954 42.8538 84.4274 42.5108 84.4274 42.103V40.0351H83.9226C83.7672 40.0351 83.6475 39.9962 83.5633 39.9186C83.4792 39.8344 83.4371 39.7212 83.4371 39.5788C83.4371 39.4299 83.4792 39.3166 83.5633 39.239C83.6475 39.1613 83.7672 39.1225 83.9226 39.1225H84.4274V38.239C84.4274 38.0383 84.4792 37.8862 84.5827 37.7827C84.6928 37.6791 84.8449 37.6273 85.039 37.6273C85.2332 37.6273 85.3821 37.6791 85.4856 37.7827C85.5892 37.8862 85.641 38.0383 85.641 38.239V39.1225H86.6701C86.8254 39.1225 86.9452 39.1613 87.0293 39.239C87.1135 39.3166 87.1555 39.4299 87.1555 39.5788C87.1555 39.7212 87.1135 39.8344 87.0293 39.9186C86.9452 39.9962 86.8254 40.0351 86.6701 40.0351H85.641V42.035C85.641 42.3457 85.7089 42.5787 85.8449 42.7341C85.9808 42.8894 86.2008 42.9671 86.5051 42.9671C86.6151 42.9671 86.7122 42.9574 86.7963 42.938C86.8805 42.9185 86.9549 42.9056 87.0196 42.8991C87.0973 42.8926 87.162 42.9185 87.2138 42.9768C87.2656 43.0286 87.2915 43.1386 87.2915 43.3069C87.2915 43.4363 87.2688 43.5528 87.2235 43.6564C87.1847 43.7535 87.1102 43.8214 87.0002 43.8603C86.9161 43.8862 86.806 43.9088 86.6701 43.9282C86.5342 43.9541 86.4144 43.9671 86.3109 43.9671Z" fill="white"/>
<path d="M88.5874 43.9379C88.3932 43.9379 88.2444 43.8797 88.1408 43.7632C88.0372 43.6467 87.9855 43.4849 87.9855 43.2778V39.7147C87.9855 39.5011 88.0372 39.3393 88.1408 39.2292C88.2444 39.1127 88.3932 39.0545 88.5874 39.0545C88.7816 39.0545 88.9304 39.1127 89.034 39.2292C89.144 39.3393 89.199 39.5011 89.199 39.7147V43.2778C89.199 43.4849 89.1473 43.6467 89.0437 43.7632C88.9401 43.8797 88.788 43.9379 88.5874 43.9379ZM88.5874 38.1516C88.3609 38.1516 88.1829 38.0966 88.0534 37.9865C87.9304 37.87 87.869 37.7115 87.869 37.5108C87.869 37.3037 87.9304 37.1451 88.0534 37.0351C88.1829 36.9251 88.3609 36.87 88.5874 36.87C88.8204 36.87 88.9984 36.9251 89.1214 37.0351C89.2444 37.1451 89.3058 37.3037 89.3058 37.5108C89.3058 37.7115 89.2444 37.87 89.1214 37.9865C88.9984 38.0966 88.8204 38.1516 88.5874 38.1516Z" fill="white"/>
<path d="M92.6251 43.9671C92.1331 43.9671 91.706 43.8667 91.3435 43.6661C90.9811 43.4655 90.6995 43.1807 90.4989 42.8117C90.2982 42.4363 90.1979 41.9962 90.1979 41.4914C90.1979 41.1095 90.2529 40.7697 90.3629 40.472C90.4794 40.1678 90.6445 39.9089 90.8581 39.6953C91.0717 39.4752 91.3273 39.3102 91.6251 39.2001C91.9228 39.0836 92.2561 39.0254 92.6251 39.0254C93.117 39.0254 93.5441 39.1257 93.9066 39.3263C94.269 39.527 94.5506 39.8118 94.7512 40.1807C94.9519 40.5496 95.0522 40.9865 95.0522 41.4914C95.0522 41.8732 94.994 42.2163 94.8775 42.5205C94.7674 42.8247 94.6056 43.0868 94.392 43.3069C94.1784 43.5205 93.9228 43.6855 93.625 43.802C93.3273 43.9121 92.994 43.9671 92.6251 43.9671ZM92.6251 43.0447C92.8645 43.0447 93.0749 42.9865 93.2561 42.87C93.4373 42.7535 93.5765 42.582 93.6736 42.3554C93.7771 42.1224 93.8289 41.8344 93.8289 41.4914C93.8289 40.9736 93.7189 40.5885 93.4988 40.336C93.2788 40.0771 92.9875 39.9477 92.6251 39.9477C92.3856 39.9477 92.1752 40.0059 91.994 40.1224C91.8128 40.2325 91.6704 40.404 91.5668 40.637C91.4697 40.8635 91.4212 41.1483 91.4212 41.4914C91.4212 42.0027 91.5312 42.391 91.7513 42.6564C91.9713 42.9153 92.2626 43.0447 92.6251 43.0447Z" fill="white"/>
<path d="M96.6558 43.9477C96.4616 43.9477 96.3128 43.8959 96.2092 43.7923C96.1057 43.6823 96.0539 43.5269 96.0539 43.3263V39.6564C96.0539 39.4558 96.1057 39.3037 96.2092 39.2001C96.3128 39.0966 96.4584 39.0448 96.6461 39.0448C96.8338 39.0448 96.9794 39.0966 97.083 39.2001C97.1865 39.3037 97.2383 39.4558 97.2383 39.6564V40.3166L97.1315 40.0739C97.2739 39.7309 97.494 39.472 97.7917 39.2972C98.0959 39.116 98.439 39.0254 98.8208 39.0254C99.2027 39.0254 99.5166 39.0966 99.7626 39.239C100.009 39.3814 100.193 39.5982 100.316 39.8894C100.439 40.1742 100.5 40.5367 100.5 40.9768V43.3263C100.5 43.5269 100.449 43.6823 100.345 43.7923C100.242 43.8959 100.093 43.9477 99.8985 43.9477C99.7043 43.9477 99.5522 43.8959 99.4422 43.7923C99.3386 43.6823 99.2869 43.5269 99.2869 43.3263V41.0351C99.2869 40.6661 99.2156 40.3975 99.0733 40.2292C98.9373 40.061 98.7237 39.9768 98.4325 39.9768C98.0765 39.9768 97.7917 40.0901 97.5781 40.3166C97.371 40.5367 97.2675 40.8312 97.2675 41.2001V43.3263C97.2675 43.7405 97.0636 43.9477 96.6558 43.9477Z" fill="white"/>
<path d="M103.471 43.9671C103.193 43.9671 102.898 43.9379 102.587 43.8797C102.277 43.8214 101.998 43.7211 101.752 43.5787C101.649 43.514 101.574 43.4396 101.529 43.3554C101.49 43.2648 101.474 43.1774 101.481 43.0933C101.494 43.0027 101.526 42.925 101.578 42.8603C101.636 42.7956 101.707 42.7535 101.791 42.7341C101.882 42.7147 101.979 42.7308 102.083 42.7826C102.341 42.9056 102.584 42.993 102.811 43.0447C103.037 43.0901 103.261 43.1127 103.481 43.1127C103.791 43.1127 104.021 43.0609 104.17 42.9574C104.325 42.8473 104.403 42.7049 104.403 42.5302C104.403 42.3813 104.351 42.2681 104.248 42.1904C104.15 42.1062 104.002 42.0448 103.801 42.0059L102.83 41.8215C102.429 41.7438 102.121 41.5982 101.908 41.3846C101.701 41.1645 101.597 40.883 101.597 40.5399C101.597 40.2292 101.681 39.9606 101.85 39.7341C102.024 39.5076 102.264 39.3328 102.568 39.2098C102.872 39.0869 103.222 39.0254 103.617 39.0254C103.901 39.0254 104.167 39.0577 104.413 39.1225C104.665 39.1807 104.908 39.2746 105.141 39.404C105.238 39.4558 105.303 39.5237 105.335 39.6079C105.374 39.692 105.383 39.7794 105.364 39.87C105.345 39.9542 105.306 40.0318 105.248 40.103C105.189 40.1678 105.115 40.2098 105.024 40.2292C104.94 40.2422 104.843 40.2228 104.733 40.171C104.532 40.0674 104.338 39.993 104.15 39.9477C103.969 39.9024 103.795 39.8797 103.626 39.8797C103.309 39.8797 103.073 39.9347 102.917 40.0448C102.769 40.1548 102.694 40.3004 102.694 40.4817C102.694 40.6176 102.74 40.7309 102.83 40.8215C102.921 40.9121 103.06 40.9736 103.248 41.0059L104.218 41.1904C104.639 41.2681 104.956 41.4105 105.17 41.6176C105.39 41.8247 105.5 42.103 105.5 42.4525C105.5 42.925 105.316 43.2972 104.947 43.569C104.578 43.8344 104.086 43.9671 103.471 43.9671Z" fill="white"/>
<defs>
<linearGradient id="paint0_linear_178_1047" x1="0" y1="0" x2="116.731" y2="1.7314" gradientUnits="userSpaceOnUse">
<stop stop-color="white"/>
<stop offset="0.6" stop-color="white" stop-opacity="0.75"/>
<stop offset="1" stop-color="white" stop-opacity="0.25"/>
</linearGradient>
</defs>
</svg>
