<svg width="116" height="51" viewBox="0 0 116 51" fill="none" xmlns="http://www.w3.org/2000/svg">
<rect x="0.5" y="0.5" width="115" height="50" rx="9.5" fill="#4B7BB3" fill-opacity="0.25"/>
<rect x="0.5" y="0.5" width="115" height="50" rx="9.5" stroke="url(#paint0_linear_1103_73)"/>
<path d="M54.0782 16.3379H49.7832V22.8307H54.0782V16.3379Z" fill="white"/>
<path d="M91.7535 11.0047C91.001 11.7109 90.431 12.2811 89.5185 12.9454C88.9072 13.3953 88.3648 13.9195 87.9041 14.5042C87.5954 14.893 87.3404 15.0349 86.9335 15.0325C84.5598 15.0168 82.1854 15.0256 79.8117 14.9977C79.3986 14.993 79.3242 15.1104 79.3255 15.4638C79.3405 19.8479 79.3336 24.232 79.348 28.6162C79.3492 28.9527 79.2911 29.0747 78.8874 29.0625C77.7086 29.0277 76.528 29.0317 75.3486 29.0428C75.0318 29.0463 74.913 28.9945 74.9136 28.6603C74.923 24.2896 74.9211 19.9188 74.908 15.5481C74.9068 14.9221 74.9436 15.0296 74.3218 15.0261C72.768 15.018 71.2143 15.0163 69.6606 15.0052C69.5031 15.0041 69.3362 15.057 69.2125 14.864C68.2731 13.4092 66.9575 12.2735 65.5694 11.2029C65.505 11.1535 65.4475 11.0971 65.3412 11.0047H91.7535Z" fill="white"/>
<path d="M60.5513 29.0526C59.0413 29.109 57.4257 29.0457 55.8638 29.0416V24.9673C57.0438 24.958 58.2257 24.9818 59.4063 24.9493C62.2169 24.869 64.5069 22.7889 64.5806 20.2844C64.6606 17.5137 62.6506 15.34 59.7238 15.0959C58.7963 15.018 57.8563 15.0418 56.9213 15.0401C52.5632 15.0314 48.2045 15.0331 43.8465 15.0145C43.4758 15.0128 43.5077 15.1778 43.5077 15.401C43.5096 19.7997 43.5033 24.1954 43.5215 28.5929C43.5233 29.0631 43.3677 29.1015 42.7227 29.0509C41.7346 28.9742 40.7421 28.9765 39.7546 29.0567C39.254 29.0945 39.1471 29.0149 39.1471 28.6417C39.1509 24.2588 39.1315 19.8747 39.1353 15.4911C39.1353 15.1342 39.0496 15.0261 38.6484 15.0302C36.6347 15.0494 34.6191 15.032 32.6053 15.0389C32.0991 15.0407 31.871 14.7477 31.4428 13.9166C30.7691 12.6083 29.5166 11.6894 28.0654 11.1558C27.9998 11.1326 27.9954 11.096 27.9373 11.0018C38.274 11.0018 48.5583 10.996 58.8451 11.0053C61.9456 11.0099 64.6487 11.9498 66.6856 14.188C71.1024 19.04 69.3006 27.6304 60.5513 29.0526Z" fill="white"/>
<path d="M54.0139 26.4866C54.0176 26.5342 54.0289 26.5807 54.0289 26.6284V28.0059C54.0289 28.0059 54.022 28.4243 53.4439 28.5493C52.8657 28.6743 50.3283 28.5493 50.3283 28.5493C50.3283 28.5493 49.7439 28.5906 49.7439 28.0059V25.1079C49.7439 25.1079 49.7689 24.5645 50.3283 24.5645H51.7814C51.9514 24.5645 52.1201 24.5319 52.2758 24.468C52.7726 24.2646 53.8939 23.7647 54.3745 23.2329C54.4007 23.2033 54.4289 23.1754 54.4595 23.1498C54.672 22.9702 55.6088 22.1408 55.6088 21.4375V19.0115C55.6063 18.8715 55.6432 18.7337 55.7157 18.6111C55.807 18.4443 55.992 18.3391 56.1938 18.3397H59.3094C59.3094 18.3397 59.8938 18.3995 59.8938 18.8831V21.781C59.8938 21.781 59.8413 22.3408 59.3094 22.3245C58.9238 22.3123 58.2763 22.3181 57.9513 22.3216C57.8182 22.3233 57.6876 22.3518 57.5676 22.4047C57.0263 22.6453 55.6251 23.3928 55.3738 23.7432C55.3738 23.7432 53.9251 25.2428 54.0139 26.4866Z" fill="white"/>
<path d="M23.4067 39.3798C23.2483 39.3798 23.1257 39.3364 23.0388 39.2495C22.9571 39.1575 22.9162 39.0323 22.9162 38.8739V34.735H21.4216C21.2887 34.735 21.184 34.6992 21.1073 34.6277C21.0358 34.551 21 34.4488 21 34.3211C21 34.1882 21.0358 34.0886 21.1073 34.0222C21.184 33.9506 21.2887 33.9149 21.4216 33.9149H25.3919C25.5247 33.9149 25.6269 33.9506 25.6985 34.0222C25.7751 34.0886 25.8134 34.1882 25.8134 34.3211C25.8134 34.4488 25.7751 34.551 25.6985 34.6277C25.6269 34.6992 25.5247 34.735 25.3919 34.735H23.8973V38.8739C23.8973 39.0323 23.8564 39.1575 23.7746 39.2495C23.6929 39.3364 23.5702 39.3798 23.4067 39.3798Z" fill="white"/>
<path d="M27.5301 39.3951C27.106 39.3951 26.7406 39.3159 26.434 39.1575C26.1275 38.9991 25.8898 38.7743 25.7212 38.483C25.5577 38.1918 25.476 37.8469 25.476 37.4483C25.476 37.0599 25.5552 36.7201 25.7136 36.4289C25.8771 36.1376 26.0993 35.9102 26.3804 35.7467C26.6665 35.5781 26.991 35.4938 27.3538 35.4938C27.6195 35.4938 27.8571 35.5372 28.0666 35.6241C28.2812 35.711 28.4626 35.8361 28.6108 35.9997C28.7641 36.1632 28.8791 36.3625 28.9557 36.5975C29.0375 36.8275 29.0784 37.0881 29.0784 37.3793C29.0784 37.4713 29.0452 37.5428 28.9787 37.5939C28.9174 37.6399 28.828 37.6629 28.7105 37.6629H26.2501V37.111H28.4039L28.2812 37.226C28.2812 36.991 28.2455 36.7942 28.1739 36.6358C28.1075 36.4774 28.0079 36.3573 27.875 36.2756C27.7473 36.1887 27.5863 36.1453 27.3921 36.1453C27.1775 36.1453 26.9936 36.1964 26.8403 36.2986C26.6921 36.3957 26.5771 36.5362 26.4954 36.7201C26.4187 36.899 26.3804 37.1136 26.3804 37.364V37.4176C26.3804 37.8366 26.4775 38.1509 26.6716 38.3604C26.8709 38.5648 27.1622 38.667 27.5454 38.667C27.6783 38.667 27.8265 38.6517 27.99 38.621C28.1586 38.5852 28.317 38.5265 28.4652 38.4447C28.5725 38.3834 28.667 38.3578 28.7488 38.3681C28.8305 38.3732 28.8944 38.4013 28.9404 38.4524C28.9915 38.5035 29.0222 38.5673 29.0324 38.644C29.0426 38.7155 29.0273 38.7896 28.9864 38.8663C28.9506 38.9429 28.8868 39.0093 28.7948 39.0656C28.6159 39.178 28.409 39.2623 28.1739 39.3185C27.944 39.3696 27.7294 39.3951 27.5301 39.3951Z" fill="white"/>
<path d="M31.539 39.3951C31.2069 39.3951 30.9284 39.3389 30.7036 39.2265C30.4839 39.1141 30.3204 38.9506 30.213 38.736C30.1057 38.5162 30.0521 38.2454 30.0521 37.9235V36.2909H29.6535C29.5309 36.2909 29.4364 36.2603 29.3699 36.1989C29.3035 36.1325 29.2703 36.0431 29.2703 35.9307C29.2703 35.8132 29.3035 35.7237 29.3699 35.6624C29.4364 35.6011 29.5309 35.5704 29.6535 35.5704H30.0521V34.8729C30.0521 34.7145 30.093 34.5945 30.1747 34.5127C30.2616 34.4309 30.3817 34.3901 30.535 34.3901C30.6883 34.3901 30.8058 34.4309 30.8875 34.5127C30.9693 34.5945 31.0102 34.7145 31.0102 34.8729V35.5704H31.8226C31.9453 35.5704 32.0398 35.6011 32.1062 35.6624C32.1727 35.7237 32.2059 35.8132 32.2059 35.9307C32.2059 36.0431 32.1727 36.1325 32.1062 36.1989C32.0398 36.2603 31.9453 36.2909 31.8226 36.2909H31.0102V37.8699C31.0102 38.1151 31.0638 38.2991 31.1711 38.4217C31.2784 38.5444 31.4522 38.6057 31.6923 38.6057C31.7792 38.6057 31.8558 38.598 31.9223 38.5827C31.9887 38.5673 32.0475 38.5571 32.0986 38.552C32.1599 38.5469 32.211 38.5673 32.2519 38.6133C32.2927 38.6542 32.3132 38.7411 32.3132 38.8739C32.3132 38.9761 32.2953 39.0681 32.2595 39.1499C32.2289 39.2265 32.1701 39.2802 32.0832 39.3108C32.0168 39.3313 31.9299 39.3491 31.8226 39.3645C31.7153 39.3849 31.6208 39.3951 31.539 39.3951Z" fill="white"/>
<path d="M33.2543 39.3798C33.0959 39.3798 32.9733 39.3389 32.8864 39.2572C32.8047 39.1703 32.7638 39.0477 32.7638 38.8893V35.992C32.7638 35.8336 32.8047 35.7135 32.8864 35.6318C32.9682 35.55 33.0831 35.5091 33.2313 35.5091C33.3795 35.5091 33.4945 35.55 33.5762 35.6318C33.658 35.7135 33.6989 35.8336 33.6989 35.992V36.4749H33.6222C33.6938 36.1683 33.8343 35.9358 34.0438 35.7774C34.2533 35.619 34.5318 35.5244 34.8792 35.4938C34.9865 35.4836 35.0709 35.5117 35.1322 35.5781C35.1986 35.6394 35.2369 35.7365 35.2471 35.8694C35.2574 35.9971 35.2267 36.1019 35.1552 36.1836C35.0887 36.2603 34.9865 36.3063 34.8486 36.3216L34.68 36.3369C34.3683 36.3676 34.1332 36.4647 33.9748 36.6282C33.8164 36.7866 33.7372 37.0114 33.7372 37.3027V38.8893C33.7372 39.0477 33.6963 39.1703 33.6146 39.2572C33.5328 39.3389 33.4127 39.3798 33.2543 39.3798Z" fill="white"/>
<path d="M36.9619 39.3951C36.6911 39.3951 36.4483 39.344 36.2337 39.2418C36.0242 39.1345 35.8582 38.9915 35.7355 38.8126C35.618 38.6338 35.5592 38.4319 35.5592 38.2071C35.5592 37.9312 35.6308 37.714 35.7739 37.5556C35.9169 37.3921 36.1494 37.2746 36.4713 37.203C36.7933 37.1315 37.225 37.0957 37.7667 37.0957H38.1499V37.6476H37.7743C37.4575 37.6476 37.2046 37.6629 37.0155 37.6936C36.8265 37.7242 36.6911 37.7779 36.6093 37.8545C36.5327 37.9261 36.4943 38.0283 36.4943 38.1611C36.4943 38.3297 36.5531 38.4677 36.6706 38.575C36.7882 38.6823 36.9517 38.736 37.1612 38.736C37.3298 38.736 37.478 38.6976 37.6057 38.621C37.7386 38.5392 37.8433 38.4294 37.92 38.2914C37.9966 38.1535 38.0349 37.995 38.0349 37.8162V36.9348C38.0349 36.6793 37.9787 36.4953 37.8663 36.3829C37.7539 36.2705 37.5648 36.2143 37.2991 36.2143C37.1509 36.2143 36.99 36.2322 36.8163 36.2679C36.6476 36.3037 36.4688 36.365 36.2797 36.4519C36.1826 36.4979 36.0958 36.5106 36.0191 36.4902C35.9476 36.4698 35.8914 36.4289 35.8505 36.3676C35.8096 36.3011 35.7892 36.2296 35.7892 36.153C35.7892 36.0763 35.8096 36.0022 35.8505 35.9307C35.8914 35.854 35.9604 35.7978 36.0574 35.7621C36.2925 35.665 36.5173 35.596 36.7319 35.5551C36.9517 35.5142 37.1509 35.4938 37.3298 35.4938C37.6977 35.4938 37.9992 35.55 38.2342 35.6624C38.4744 35.7748 38.6532 35.946 38.7708 36.176C38.8883 36.4008 38.947 36.692 38.947 37.0497V38.8893C38.947 39.0477 38.9087 39.1703 38.8321 39.2572C38.7554 39.3389 38.6456 39.3798 38.5025 39.3798C38.3594 39.3798 38.247 39.3389 38.1652 39.2572C38.0886 39.1703 38.0503 39.0477 38.0503 38.8893V38.5214H38.1116C38.0758 38.7002 38.0043 38.8561 37.897 38.9889C37.7948 39.1167 37.6645 39.2163 37.5061 39.2878C37.3477 39.3594 37.1663 39.3951 36.9619 39.3951Z" fill="white"/>
<path d="M40.5327 39.3185C40.3641 39.3185 40.2338 39.2751 40.1418 39.1882C40.0549 39.0962 40.0115 38.9659 40.0115 38.7973V34.4361C40.0115 34.2674 40.0549 34.1397 40.1418 34.0528C40.2338 33.9608 40.3641 33.9149 40.5327 33.9149H42.0196C42.9241 33.9149 43.6216 34.1474 44.1121 34.6123C44.6078 35.0773 44.8556 35.7442 44.8556 36.6128C44.8556 37.0472 44.7917 37.433 44.664 37.7702C44.5413 38.1024 44.3574 38.3834 44.1121 38.6133C43.8719 38.8433 43.5756 39.0196 43.223 39.1422C42.8755 39.2597 42.4744 39.3185 42.0196 39.3185H40.5327ZM40.9926 38.506H41.9583C42.2751 38.506 42.5485 38.4677 42.7784 38.3911C43.0135 38.3093 43.2077 38.1918 43.361 38.0385C43.5194 37.8801 43.6369 37.6833 43.7135 37.4483C43.7902 37.2081 43.8285 36.9296 43.8285 36.6128C43.8285 35.9792 43.6727 35.5066 43.361 35.1949C43.0493 34.8832 42.5817 34.7273 41.9583 34.7273H40.9926V38.506Z" fill="white"/>
<path d="M47.4748 39.3951C47.1426 39.3951 46.8641 39.3389 46.6393 39.2265C46.4196 39.1141 46.2561 38.9506 46.1488 38.736C46.0415 38.5162 45.9878 38.2454 45.9878 37.9235V36.2909H45.5892C45.4666 36.2909 45.3721 36.2603 45.3056 36.1989C45.2392 36.1325 45.206 36.0431 45.206 35.9307C45.206 35.8132 45.2392 35.7237 45.3056 35.6624C45.3721 35.6011 45.4666 35.5704 45.5892 35.5704H45.9878V34.8729C45.9878 34.7145 46.0287 34.5945 46.1104 34.5127C46.1973 34.4309 46.3174 34.3901 46.4707 34.3901C46.624 34.3901 46.7415 34.4309 46.8233 34.5127C46.905 34.5945 46.9459 34.7145 46.9459 34.8729V35.5704H47.7584C47.881 35.5704 47.9755 35.6011 48.0419 35.6624C48.1084 35.7237 48.1416 35.8132 48.1416 35.9307C48.1416 36.0431 48.1084 36.1325 48.0419 36.1989C47.9755 36.2603 47.881 36.2909 47.7584 36.2909H46.9459V37.8699C46.9459 38.1151 46.9995 38.2991 47.1069 38.4217C47.2142 38.5444 47.3879 38.6057 47.6281 38.6057C47.7149 38.6057 47.7916 38.598 47.858 38.5827C47.9244 38.5673 47.9832 38.5571 48.0343 38.552C48.0956 38.5469 48.1467 38.5673 48.1876 38.6133C48.2285 38.6542 48.2489 38.7411 48.2489 38.8739C48.2489 38.9761 48.231 39.0681 48.1952 39.1499C48.1646 39.2265 48.1058 39.2802 48.019 39.3108C47.9525 39.3313 47.8657 39.3491 47.7584 39.3645C47.651 39.3849 47.5565 39.3951 47.4748 39.3951Z" fill="white"/>
<path d="M50.5093 39.3951C50.0852 39.3951 49.7198 39.3159 49.4132 39.1575C49.1066 38.9991 48.869 38.7743 48.7004 38.483C48.5369 38.1918 48.4551 37.8469 48.4551 37.4483C48.4551 37.0599 48.5343 36.7201 48.6927 36.4289C48.8562 36.1376 49.0785 35.9102 49.3596 35.7467C49.6457 35.5781 49.9702 35.4938 50.333 35.4938C50.5987 35.4938 50.8363 35.5372 51.0458 35.6241C51.2604 35.711 51.4418 35.8361 51.59 35.9997C51.7433 36.1632 51.8583 36.3625 51.9349 36.5975C52.0167 36.8275 52.0575 37.0881 52.0575 37.3793C52.0575 37.4713 52.0243 37.5428 51.9579 37.5939C51.8966 37.6399 51.8072 37.6629 51.6896 37.6629H49.2293V37.111H51.383L51.2604 37.226C51.2604 36.991 51.2246 36.7942 51.1531 36.6358C51.0867 36.4774 50.987 36.3573 50.8542 36.2756C50.7264 36.1887 50.5655 36.1453 50.3713 36.1453C50.1567 36.1453 49.9727 36.1964 49.8194 36.2986C49.6713 36.3957 49.5563 36.5362 49.4745 36.7201C49.3979 36.899 49.3596 37.1136 49.3596 37.364V37.4176C49.3596 37.8366 49.4566 38.1509 49.6508 38.3604C49.8501 38.5648 50.1414 38.667 50.5246 38.667C50.6574 38.667 50.8056 38.6517 50.9691 38.621C51.1378 38.5852 51.2962 38.5265 51.4444 38.4447C51.5517 38.3834 51.6462 38.3578 51.728 38.3681C51.8097 38.3732 51.8736 38.4013 51.9196 38.4524C51.9707 38.5035 52.0013 38.5673 52.0116 38.644C52.0218 38.7155 52.0064 38.7896 51.9656 38.8663C51.9298 38.9429 51.8659 39.0093 51.7739 39.0656C51.5951 39.178 51.3882 39.2623 51.1531 39.3185C50.9232 39.3696 50.7085 39.3951 50.5093 39.3951Z" fill="white"/>
<path d="M54.5485 39.3951C54.1551 39.3951 53.8127 39.3159 53.5214 39.1575C53.2302 38.994 53.0053 38.7641 52.8469 38.4677C52.6885 38.1713 52.6093 37.8239 52.6093 37.4253C52.6093 37.1238 52.6528 36.8556 52.7396 36.6205C52.8316 36.3803 52.9619 36.1785 53.1305 36.015C53.2992 35.8464 53.5036 35.7186 53.7437 35.6318C53.9839 35.5398 54.2521 35.4938 54.5485 35.4938C54.7171 35.4938 54.8985 35.5168 55.0927 35.5628C55.292 35.6088 55.4785 35.6854 55.6522 35.7927C55.734 35.8438 55.7876 35.9051 55.8132 35.9767C55.8387 36.0482 55.8438 36.1223 55.8285 36.1989C55.8132 36.2705 55.78 36.3344 55.7289 36.3906C55.6829 36.4417 55.6241 36.4749 55.5526 36.4902C55.481 36.5004 55.4018 36.4825 55.315 36.4366C55.2026 36.3701 55.0876 36.3216 54.9701 36.2909C54.8525 36.2552 54.7401 36.2373 54.6328 36.2373C54.4642 36.2373 54.316 36.2654 54.1883 36.3216C54.0605 36.3727 53.9507 36.4493 53.8587 36.5515C53.7718 36.6486 53.7054 36.7712 53.6594 36.9194C53.6134 37.0676 53.5904 37.2388 53.5904 37.433C53.5904 37.8111 53.6798 38.11 53.8587 38.3297C54.0426 38.5444 54.3007 38.6517 54.6328 38.6517C54.7401 38.6517 54.85 38.6363 54.9624 38.6057C55.0799 38.575 55.1975 38.5265 55.315 38.46C55.4018 38.4141 55.4785 38.3987 55.5449 38.4141C55.6165 38.4294 55.6752 38.4651 55.7212 38.5214C55.7672 38.5725 55.7953 38.6363 55.8055 38.713C55.8157 38.7845 55.8055 38.8561 55.7749 38.9276C55.7493 38.9991 55.6982 39.0579 55.6216 39.1039C55.4529 39.2061 55.2741 39.2802 55.085 39.3262C54.896 39.3721 54.7171 39.3951 54.5485 39.3951Z" fill="white"/>
<path d="M56.9068 39.3798C56.7535 39.3798 56.636 39.3389 56.5542 39.2572C56.4725 39.1703 56.4316 39.0477 56.4316 38.8893V34.3364C56.4316 34.178 56.4725 34.0579 56.5542 33.9762C56.636 33.8944 56.7535 33.8535 56.9068 33.8535C57.0601 33.8535 57.1776 33.8944 57.2594 33.9762C57.3462 34.0579 57.3897 34.178 57.3897 34.3364V36.3216H57.2824C57.3948 36.0508 57.5685 35.8464 57.8036 35.7084C58.0437 35.5653 58.3145 35.4938 58.616 35.4938C58.9175 35.4938 59.1653 35.55 59.3595 35.6624C59.5537 35.7748 59.6993 35.946 59.7964 36.176C59.8935 36.4008 59.942 36.6869 59.942 37.0344V38.8893C59.942 39.0477 59.9011 39.1703 59.8194 39.2572C59.7376 39.3389 59.6201 39.3798 59.4668 39.3798C59.3135 39.3798 59.1934 39.3389 59.1066 39.2572C59.0248 39.1703 58.9839 39.0477 58.9839 38.8893V37.0804C58.9839 36.7891 58.9277 36.5771 58.8153 36.4442C58.708 36.3114 58.5394 36.2449 58.3094 36.2449C58.0284 36.2449 57.8036 36.3344 57.6349 36.5132C57.4714 36.6869 57.3897 36.9194 57.3897 37.2107V38.8893C57.3897 39.2163 57.2287 39.3798 56.9068 39.3798Z" fill="white"/>
<path d="M64.9505 39.3951C64.7257 39.3951 64.5008 39.3773 64.276 39.3415C64.0512 39.3108 63.8391 39.2623 63.6398 39.1959C63.4405 39.1243 63.2617 39.0374 63.1033 38.9353C63.0113 38.8739 62.9474 38.7998 62.9117 38.713C62.8759 38.6261 62.8631 38.5418 62.8733 38.46C62.8887 38.3732 62.9219 38.2991 62.973 38.2378C63.0292 38.1713 63.0982 38.1305 63.1799 38.1151C63.2617 38.0998 63.3511 38.1228 63.4482 38.1841C63.673 38.317 63.9106 38.4141 64.161 38.4754C64.4114 38.5367 64.6746 38.5673 64.9505 38.5673C65.3542 38.5673 65.648 38.5009 65.8319 38.3681C66.0159 38.2301 66.1079 38.0538 66.1079 37.8392C66.1079 37.6604 66.0414 37.5198 65.9086 37.4176C65.7808 37.3154 65.5586 37.2311 65.2417 37.1647L64.3986 36.9884C63.9132 36.8862 63.5504 36.715 63.3102 36.4749C63.0752 36.2296 62.9577 35.9077 62.9577 35.5091C62.9577 35.2587 63.0088 35.0314 63.111 34.827C63.2132 34.6226 63.3562 34.4463 63.5402 34.2981C63.7292 34.1499 63.9515 34.0375 64.207 33.9608C64.4676 33.8791 64.7538 33.8382 65.0655 33.8382C65.372 33.8382 65.6633 33.8765 65.9392 33.9532C66.2152 34.0298 66.463 34.1422 66.6827 34.2904C66.7645 34.3466 66.8181 34.4156 66.8437 34.4974C66.8743 34.5791 66.882 34.6609 66.8667 34.7426C66.8513 34.8193 66.8156 34.8857 66.7594 34.9419C66.7031 34.9981 66.6316 35.0314 66.5447 35.0416C66.463 35.0518 66.3685 35.0262 66.2612 34.9649C66.0721 34.8576 65.8805 34.781 65.6863 34.735C65.4921 34.689 65.2826 34.666 65.0578 34.666C64.8227 34.666 64.6209 34.6992 64.4523 34.7656C64.2837 34.8321 64.1534 34.9266 64.0614 35.0492C63.9745 35.1668 63.9311 35.3073 63.9311 35.4708C63.9311 35.6547 63.9924 35.8029 64.115 35.9154C64.2377 36.0227 64.4472 36.107 64.7435 36.1683L65.579 36.3446C66.0849 36.4519 66.4604 36.6205 66.7057 36.8504C66.9561 37.0804 67.0813 37.387 67.0813 37.7702C67.0813 38.0155 67.0302 38.2378 66.928 38.437C66.8309 38.6363 66.6878 38.8075 66.4988 38.9506C66.3148 39.0937 66.0925 39.2035 65.8319 39.2802C65.5713 39.3568 65.2775 39.3951 64.9505 39.3951Z" fill="white"/>
<path d="M69.5406 39.3951C69.1522 39.3951 68.815 39.3159 68.5288 39.1575C68.2427 38.9991 68.0204 38.7743 67.862 38.483C67.7036 38.1867 67.6244 37.8392 67.6244 37.4406C67.6244 37.1392 67.6678 36.8709 67.7547 36.6358C67.8467 36.3957 67.977 36.1913 68.1456 36.0227C68.3142 35.8489 68.5161 35.7186 68.7511 35.6318C68.9862 35.5398 69.2493 35.4938 69.5406 35.4938C69.9289 35.4938 70.2662 35.573 70.5523 35.7314C70.8385 35.8898 71.0607 36.1146 71.2191 36.4059C71.3775 36.6972 71.4567 37.0421 71.4567 37.4406C71.4567 37.7421 71.4108 38.0129 71.3188 38.2531C71.2319 38.4933 71.1042 38.7002 70.9355 38.8739C70.7669 39.0426 70.5651 39.1729 70.33 39.2648C70.095 39.3517 69.8318 39.3951 69.5406 39.3951ZM69.5406 38.667C69.7296 38.667 69.8957 38.621 70.0388 38.529C70.1819 38.437 70.2917 38.3016 70.3684 38.1228C70.4501 37.9388 70.491 37.7115 70.491 37.4406C70.491 37.0318 70.4041 36.7278 70.2304 36.5285C70.0567 36.3241 69.8267 36.2219 69.5406 36.2219C69.3515 36.2219 69.1854 36.2679 69.0424 36.3599C68.8993 36.4468 68.7869 36.5822 68.7051 36.7661C68.6285 36.945 68.5901 37.1698 68.5901 37.4406C68.5901 37.8443 68.677 38.1509 68.8507 38.3604C69.0245 38.5648 69.2544 38.667 69.5406 38.667Z" fill="white"/>
<path d="M73.5275 39.3951C73.1034 39.3951 72.7841 39.2751 72.5694 39.0349C72.3548 38.7896 72.2475 38.4319 72.2475 37.9618V34.3364C72.2475 34.178 72.2884 34.0579 72.3702 33.9762C72.4519 33.8944 72.5694 33.8535 72.7227 33.8535C72.876 33.8535 72.9936 33.8944 73.0753 33.9762C73.1622 34.0579 73.2056 34.178 73.2056 34.3364V37.9158C73.2056 38.1509 73.2542 38.3246 73.3512 38.437C73.4534 38.5495 73.5965 38.6057 73.7805 38.6057C73.8214 38.6057 73.8597 38.6057 73.8954 38.6057C73.9312 38.6006 73.967 38.5955 74.0028 38.5903C74.0743 38.5801 74.1228 38.6006 74.1484 38.6517C74.1739 38.6976 74.1867 38.7947 74.1867 38.9429C74.1867 39.0707 74.1612 39.1703 74.1101 39.2418C74.059 39.3134 73.9746 39.3568 73.8571 39.3721C73.806 39.3773 73.7524 39.3824 73.6962 39.3875C73.64 39.3926 73.5837 39.3951 73.5275 39.3951Z" fill="white"/>
<path d="M76.0518 39.3951C75.7401 39.3951 75.4821 39.3389 75.2777 39.2265C75.0733 39.109 74.92 38.9353 74.8178 38.7053C74.7207 38.4754 74.6722 38.1892 74.6722 37.8469V35.992C74.6722 35.8285 74.713 35.7084 74.7948 35.6318C74.8765 35.55 74.9941 35.5091 75.1474 35.5091C75.3007 35.5091 75.4182 35.55 75.4999 35.6318C75.5868 35.7084 75.6302 35.8285 75.6302 35.992V37.8622C75.6302 38.1279 75.6839 38.3246 75.7912 38.4524C75.8985 38.5801 76.0697 38.644 76.3047 38.644C76.5602 38.644 76.7697 38.5571 76.9332 38.3834C77.0968 38.2045 77.1785 37.9695 77.1785 37.6782V35.992C77.1785 35.8285 77.2194 35.7084 77.3012 35.6318C77.3829 35.55 77.5004 35.5091 77.6537 35.5091C77.807 35.5091 77.9245 35.55 78.0063 35.6318C78.0932 35.7084 78.1366 35.8285 78.1366 35.992V38.8893C78.1366 39.2163 77.9808 39.3798 77.6691 39.3798C77.5209 39.3798 77.4059 39.3389 77.3241 39.2572C77.2424 39.1703 77.2015 39.0477 77.2015 38.8893V38.3067L77.3088 38.5367C77.2015 38.8126 77.038 39.0247 76.8183 39.1729C76.6037 39.321 76.3482 39.3951 76.0518 39.3951Z" fill="white"/>
<path d="M80.8507 39.3951C80.5186 39.3951 80.2401 39.3389 80.0152 39.2265C79.7955 39.1141 79.632 38.9506 79.5247 38.736C79.4174 38.5162 79.3637 38.2454 79.3637 37.9235V36.2909H78.9652C78.8425 36.2909 78.748 36.2603 78.6816 36.1989C78.6152 36.1325 78.5819 36.0431 78.5819 35.9307C78.5819 35.8132 78.6152 35.7237 78.6816 35.6624C78.748 35.6011 78.8425 35.5704 78.9652 35.5704H79.3637V34.8729C79.3637 34.7145 79.4046 34.5945 79.4864 34.5127C79.5732 34.4309 79.6933 34.3901 79.8466 34.3901C79.9999 34.3901 80.1174 34.4309 80.1992 34.5127C80.2809 34.5945 80.3218 34.7145 80.3218 34.8729V35.5704H81.1343C81.2569 35.5704 81.3515 35.6011 81.4179 35.6624C81.4843 35.7237 81.5175 35.8132 81.5175 35.9307C81.5175 36.0431 81.4843 36.1325 81.4179 36.1989C81.3515 36.2603 81.2569 36.2909 81.1343 36.2909H80.3218V37.8699C80.3218 38.1151 80.3755 38.2991 80.4828 38.4217C80.5901 38.5444 80.7638 38.6057 81.004 38.6057C81.0909 38.6057 81.1675 38.598 81.2339 38.5827C81.3004 38.5673 81.3591 38.5571 81.4102 38.552C81.4715 38.5469 81.5226 38.5673 81.5635 38.6133C81.6044 38.6542 81.6248 38.7411 81.6248 38.8739C81.6248 38.9761 81.6069 39.0681 81.5712 39.1499C81.5405 39.2265 81.4818 39.2802 81.3949 39.3108C81.3285 39.3313 81.2416 39.3491 81.1343 39.3645C81.027 39.3849 80.9324 39.3951 80.8507 39.3951Z" fill="white"/>
<path d="M82.6479 39.3721C82.4947 39.3721 82.3771 39.3262 82.2954 39.2342C82.2136 39.1422 82.1727 39.0145 82.1727 38.8509V36.038C82.1727 35.8694 82.2136 35.7416 82.2954 35.6547C82.3771 35.5628 82.4947 35.5168 82.6479 35.5168C82.8012 35.5168 82.9188 35.5628 83.0005 35.6547C83.0874 35.7416 83.1308 35.8694 83.1308 36.038V38.8509C83.1308 39.0145 83.0899 39.1422 83.0082 39.2342C82.9264 39.3262 82.8064 39.3721 82.6479 39.3721ZM82.6479 34.804C82.4691 34.804 82.3286 34.7605 82.2264 34.6737C82.1293 34.5817 82.0808 34.4565 82.0808 34.2981C82.0808 34.1346 82.1293 34.0094 82.2264 33.9225C82.3286 33.8357 82.4691 33.7922 82.6479 33.7922C82.8319 33.7922 82.9724 33.8357 83.0695 33.9225C83.1666 34.0094 83.2151 34.1346 83.2151 34.2981C83.2151 34.4565 83.1666 34.5817 83.0695 34.6737C82.9724 34.7605 82.8319 34.804 82.6479 34.804Z" fill="white"/>
<path d="M85.8356 39.3951C85.4472 39.3951 85.11 39.3159 84.8238 39.1575C84.5377 38.9991 84.3154 38.7743 84.157 38.483C83.9986 38.1867 83.9194 37.8392 83.9194 37.4406C83.9194 37.1392 83.9628 36.8709 84.0497 36.6358C84.1417 36.3957 84.272 36.1913 84.4406 36.0227C84.6092 35.8489 84.8111 35.7186 85.0461 35.6318C85.2812 35.5398 85.5443 35.4938 85.8356 35.4938C86.2239 35.4938 86.5612 35.573 86.8473 35.7314C87.1335 35.8898 87.3557 36.1146 87.5141 36.4059C87.6725 36.6972 87.7517 37.0421 87.7517 37.4406C87.7517 37.7421 87.7058 38.0129 87.6138 38.2531C87.5269 38.4933 87.3992 38.7002 87.2306 38.8739C87.0619 39.0426 86.8601 39.1729 86.625 39.2648C86.39 39.3517 86.1268 39.3951 85.8356 39.3951ZM85.8356 38.667C86.0246 38.667 86.1907 38.621 86.3338 38.529C86.4769 38.437 86.5867 38.3016 86.6634 38.1228C86.7451 37.9388 86.786 37.7115 86.786 37.4406C86.786 37.0318 86.6991 36.7278 86.5254 36.5285C86.3517 36.3241 86.1217 36.2219 85.8356 36.2219C85.6465 36.2219 85.4804 36.2679 85.3374 36.3599C85.1943 36.4468 85.0819 36.5822 85.0001 36.7661C84.9235 36.945 84.8851 37.1698 84.8851 37.4406C84.8851 37.8443 84.972 38.1509 85.1457 38.3604C85.3195 38.5648 85.5494 38.667 85.8356 38.667Z" fill="white"/>
<path d="M89.0177 39.3798C88.8644 39.3798 88.7469 39.3389 88.6652 39.2572C88.5834 39.1703 88.5425 39.0477 88.5425 38.8893V35.992C88.5425 35.8336 88.5834 35.7135 88.6652 35.6318C88.7469 35.55 88.8619 35.5091 89.0101 35.5091C89.1583 35.5091 89.2732 35.55 89.355 35.6318C89.4367 35.7135 89.4776 35.8336 89.4776 35.992V36.5132L89.3933 36.3216C89.5057 36.0508 89.6795 35.8464 89.9145 35.7084C90.1547 35.5653 90.4255 35.4938 90.727 35.4938C91.0285 35.4938 91.2763 35.55 91.4705 35.6624C91.6646 35.7748 91.8103 35.946 91.9073 36.176C92.0044 36.4008 92.053 36.6869 92.053 37.0344V38.8893C92.053 39.0477 92.0121 39.1703 91.9303 39.2572C91.8486 39.3389 91.7311 39.3798 91.5778 39.3798C91.4245 39.3798 91.3044 39.3389 91.2175 39.2572C91.1358 39.1703 91.0949 39.0477 91.0949 38.8893V37.0804C91.0949 36.7891 91.0387 36.5771 90.9263 36.4442C90.8189 36.3114 90.6503 36.2449 90.4204 36.2449C90.1393 36.2449 89.9145 36.3344 89.7459 36.5132C89.5824 36.6869 89.5006 36.9194 89.5006 37.2107V38.8893C89.5006 39.2163 89.3397 39.3798 89.0177 39.3798Z" fill="white"/>
<path d="M94.3981 39.3951C94.1783 39.3951 93.9459 39.3721 93.7006 39.3262C93.4553 39.2802 93.2356 39.201 93.0414 39.0885C92.9597 39.0374 92.9009 38.9787 92.8651 38.9123C92.8345 38.8407 92.8217 38.7717 92.8268 38.7053C92.837 38.6338 92.8626 38.5725 92.9035 38.5214C92.9494 38.4703 93.0057 38.437 93.0721 38.4217C93.1436 38.4064 93.2203 38.4192 93.302 38.46C93.5064 38.5571 93.698 38.6261 93.8769 38.667C94.0557 38.7028 94.232 38.7206 94.4057 38.7206C94.651 38.7206 94.8324 38.6798 94.9499 38.598C95.0726 38.5111 95.1339 38.3987 95.1339 38.2608C95.1339 38.1432 95.093 38.0538 95.0113 37.9925C94.9346 37.9261 94.8171 37.8775 94.6587 37.8469L93.8922 37.7012C93.5754 37.6399 93.3327 37.5249 93.1641 37.3563C93.0005 37.1826 92.9188 36.9603 92.9188 36.6895C92.9188 36.4442 92.9852 36.2322 93.1181 36.0533C93.256 35.8745 93.4451 35.7365 93.6853 35.6394C93.9254 35.5423 94.2013 35.4938 94.513 35.4938C94.7379 35.4938 94.9474 35.5193 95.1415 35.5704C95.3408 35.6164 95.5325 35.6905 95.7164 35.7927C95.7931 35.8336 95.8441 35.8872 95.8697 35.9537C95.9004 36.0201 95.908 36.0891 95.8927 36.1606C95.8774 36.227 95.8467 36.2884 95.8007 36.3446C95.7547 36.3957 95.696 36.4289 95.6244 36.4442C95.558 36.4544 95.4814 36.4391 95.3945 36.3982C95.2361 36.3165 95.0828 36.2577 94.9346 36.2219C94.7915 36.1862 94.6536 36.1683 94.5207 36.1683C94.2703 36.1683 94.0838 36.2117 93.9612 36.2986C93.8437 36.3855 93.7849 36.5004 93.7849 36.6435C93.7849 36.7508 93.8207 36.8402 93.8922 36.9118C93.9637 36.9833 94.0736 37.0318 94.2218 37.0574L94.9883 37.203C95.3204 37.2643 95.5708 37.3768 95.7394 37.5403C95.9131 37.7038 96 37.9235 96 38.1994C96 38.5725 95.8544 38.8663 95.5631 39.0809C95.2719 39.2904 94.8835 39.3951 94.3981 39.3951Z" fill="white"/>
<defs>
<linearGradient id="paint0_linear_1103_73" x1="0" y1="0" x2="116.731" y2="1.7314" gradientUnits="userSpaceOnUse">
<stop stop-color="white"/>
<stop offset="0.6" stop-color="white" stop-opacity="0.75"/>
<stop offset="1" stop-color="white" stop-opacity="0.25"/>
</linearGradient>
</defs>
</svg>
