<svg width="32" height="32" viewBox="0 0 32 32" fill="none" xmlns="http://www.w3.org/2000/svg">
<path d="M10.7731 26.6663C12.7447 26.7323 14.7095 26.4024 16.5514 25.696C18.3933 24.9897 20.075 23.9214 21.4969 22.5541C22.9189 21.1868 24.0524 19.5483 24.8304 17.7355C25.6084 15.9227 26.015 13.9723 26.0264 11.9997C26.9299 10.8815 27.6009 9.59409 27.9997 8.21298C28.0295 8.10387 28.0271 7.98847 27.9928 7.88068C27.9585 7.7729 27.8938 7.67733 27.8065 7.60547C27.7191 7.53362 27.6129 7.48855 27.5005 7.47569C27.3881 7.46283 27.2744 7.48272 27.1731 7.53299C26.7004 7.76052 26.1682 7.83402 25.6515 7.74313C25.1349 7.65223 24.6597 7.40152 24.2931 7.02632C23.825 6.51376 23.2588 6.10036 22.6281 5.81062C21.9973 5.52088 21.3148 5.3607 20.621 5.33956C19.9272 5.31843 19.2362 5.43677 18.589 5.68757C17.9418 5.93837 17.3515 6.31653 16.8531 6.79965C16.1707 7.46053 15.6708 8.28671 15.4022 9.19788C15.1335 10.1091 15.1051 11.0743 15.3197 11.9997C10.8531 12.2663 7.78642 10.1463 5.33308 7.23965C5.25938 7.15619 5.16297 7.09599 5.05562 7.06641C4.94827 7.03683 4.83463 7.03915 4.72858 7.07309C4.62253 7.10703 4.52866 7.17111 4.45842 7.25751C4.38819 7.34392 4.34464 7.4489 4.33308 7.55965C3.86571 10.1522 4.20286 12.8257 5.29924 15.2211C6.39563 17.6164 8.19874 19.619 10.4664 20.9597C8.94593 22.7034 6.81069 23.7925 4.50642 23.9997C4.38297 24.0201 4.26901 24.0787 4.18049 24.1671C4.09196 24.2556 4.03331 24.3695 4.01274 24.4929C3.99217 24.6164 4.01071 24.7431 4.06575 24.8555C4.1208 24.9679 4.20961 25.0602 4.31975 25.1197C6.32444 26.1215 8.53206 26.6506 10.7731 26.6663Z" fill="white"/>
</svg>
