<svg width="62" height="62" viewBox="0 0 62 62" fill="none" xmlns="http://www.w3.org/2000/svg">
<g clip-path="url(#clip0_1021_156)">
<path d="M52.5772 1.02637C59.7095 1.86572 58.082 12.8989 50.79 11.4707L42.2266 20.7051C43.0601 22.1685 43.46 23.4604 43.0483 25.1611C41.604 31.1201 32.6025 29.9673 32.6846 23.8091C32.6904 23.4004 33.0156 22.46 32.8721 22.2314L26.8779 17.7959C26.6421 17.7578 25.9214 18.2192 25.5845 18.3306C24.4082 18.7173 23.3418 18.6953 22.1729 18.3013C21.669 18.1313 21.1841 17.6084 20.7241 17.9131L14.9717 22.2329C14.9497 22.9609 15.1899 23.4941 15.1343 24.2661C14.8018 28.8804 8.92774 30.8359 5.91309 27.3232C2.42091 23.2524 6.53858 17.1821 11.6362 18.8975C12.1401 19.0674 12.625 19.5903 13.085 19.2856L18.8374 14.9658C18.981 14.7358 18.6558 13.7969 18.6499 13.3882C18.5562 6.40967 29.2876 6.40967 29.1939 13.3882C29.188 13.7969 28.8628 14.7373 29.0064 14.9658L34.7588 19.2856C35.2188 19.5903 35.7036 19.0674 36.2075 18.8975C37.2271 18.5547 38.0972 18.5356 39.1592 18.6982L47.7227 9.46387C47.7651 9.31445 47.1309 8.35645 47.0254 8.05469C45.9268 4.90234 48.1021 1.41895 51.4082 1.0293C51.6997 0.995605 52.2857 0.995605 52.5772 1.0293V1.02637Z" fill="#4B7BB3"/>
<path d="M60.8813 58.7749V59.7124C60.5327 60.3818 60.2632 60.6528 59.5952 61.0015H2.28464C0.471161 60.2529 0.583954 57.8652 2.57468 57.4844L59.1909 57.4814C60.0918 57.5708 60.4799 58.0176 60.8813 58.7764V58.7749Z" fill="#4B7BB3"/>
<path d="M57.2559 53.9716H46.7295V23.4575C46.7295 23.4062 47.1616 22.6606 47.2524 22.5756C47.5176 22.3295 48.061 22.1391 48.4185 22.104C50.7344 21.8754 53.4282 22.2797 55.7852 22.1171C55.999 22.1508 56.5747 22.4306 56.7314 22.5756C56.8223 22.6606 57.2544 23.4062 57.2544 23.4575V53.9716H57.2559Z" fill="#4B7BB3"/>
<path d="M29.1865 53.9716H18.6602V30.4858C18.6602 30.4345 19.0923 29.6889 19.1831 29.604C19.4482 29.3579 19.9917 29.1674 20.3491 29.1323C22.665 28.9038 25.3589 29.3081 27.7158 29.1455C27.9297 29.1791 28.5054 29.4589 28.6621 29.604C28.7529 29.6889 29.1851 30.4345 29.1851 30.4858V53.9716H29.1865Z" fill="#4B7BB3"/>
<path d="M43.2212 53.9716H32.6948V37.5141C32.6948 37.4628 33.127 36.7172 33.2178 36.6323C33.4829 36.3862 34.0264 36.1957 34.3838 36.1606C36.6997 35.9321 39.3936 36.3364 41.7505 36.1738C41.9644 36.2075 42.54 36.4873 42.6968 36.6323C42.7876 36.7172 43.2197 37.4628 43.2197 37.5141V53.9716H43.2212Z" fill="#4B7BB3"/>
<path d="M15.1504 53.9716H4.62402V41.0283C4.62402 40.977 5.05615 40.2314 5.14697 40.1464C5.41211 39.9003 5.95557 39.7099 6.31299 39.6748C8.62891 39.4462 11.3228 39.8505 13.6797 39.6879C13.8936 39.7216 14.4692 40.0014 14.626 40.1464C14.7168 40.2314 15.1489 40.977 15.1489 41.0283V53.9716H15.1504Z" fill="#4B7BB3"/>
</g>
<defs>
<clipPath id="clip0_1021_156">
<rect width="59.8813" height="60" fill="white" transform="translate(1 1)"/>
</clipPath>
</defs>
</svg>
