<svg width="62" height="62" viewBox="0 0 62 62" fill="none" xmlns="http://www.w3.org/2000/svg">
<g clip-path="url(#clip0_1021_139)">
<path d="M61.2078 30.6323V31.3424C60.6737 32.4727 59.5879 33.4416 58.6707 34.3041C51.1481 41.3843 40.229 47.4808 29.6057 46.9689C20.0417 46.5088 10.1714 40.7822 3.32786 34.3618C2.20799 33.3115 0.224167 31.8454 0.946094 30.1959C1.40617 29.1441 4.92853 26.1795 5.99071 25.3096C13.7278 18.9632 23.5818 14.136 33.8633 15.1301C42.8386 15.9985 52.2088 21.5875 58.6721 27.6707C59.5893 28.5331 60.6752 29.5021 61.2092 30.6323H61.2078ZM43.3608 30.9874C43.3608 24.1306 37.8132 18.5726 30.9697 18.5726C24.1262 18.5726 18.5786 24.1306 18.5786 30.9874C18.5786 37.8442 24.1262 43.4022 30.9697 43.4022C37.8132 43.4022 43.3608 37.8442 43.3608 30.9874Z" fill="#4B7BB3"/>
<path d="M34.8678 23.2932C34.7642 23.3021 34.6518 23.3391 34.5763 23.4101C30.2803 27.4547 34.1562 34.0763 39.7112 32.5274C38.2629 39.8961 29.0228 42.5308 24.1232 36.606C18.4543 29.7506 25.61 19.6037 33.8381 22.6112C34.0453 22.6867 35.0364 23.055 34.8678 23.2932Z" fill="#4B7BB3"/>
</g>
<defs>
<clipPath id="clip0_1021_139">
<rect width="60.4155" height="32" fill="white" transform="translate(0.792236 15)"/>
</clipPath>
</defs>
</svg>
