<svg width="62" height="62" viewBox="0 0 62 62" fill="none" xmlns="http://www.w3.org/2000/svg">
<g clip-path="url(#clip0_178_720)">
<path d="M61 29.5566C57.1534 29.5566 53.3052 29.5519 49.4586 29.5566C49.135 29.5566 48.935 29.5566 48.9256 29.1143C48.8334 24.7081 48.2426 20.3707 47.0812 16.1146C47.0718 16.0786 47.0844 16.038 47.089 15.9567C47.9815 15.9567 48.8771 15.9598 49.7712 15.9567C52.1923 15.9473 54.6135 15.9473 57.033 15.9129C57.3269 15.9082 57.355 16.0849 57.4332 16.2349C58.929 19.0843 59.9684 22.0916 60.5233 25.2614C60.6749 26.1258 60.764 26.9995 60.8796 27.8685C60.8906 27.9498 60.9031 28.0186 60.9969 28.0358V29.5597L61 29.5566Z" fill="#4B7BB3"/>
<path d="M1 27.9153C1.28291 27.3089 1.23758 26.643 1.33762 26.0053C1.87999 22.5698 2.9491 19.3109 4.56214 16.2317C4.6403 16.0816 4.66843 15.9066 4.96228 15.9097C8.06646 15.9425 11.1706 15.9441 14.2748 15.9535C14.4874 15.9535 14.6984 15.9535 14.9516 15.9535C14.3795 18.0901 13.9325 20.2034 13.6293 22.3463C13.3167 24.5517 13.0978 26.7649 13.0744 28.9923C13.0697 29.4596 12.9306 29.5628 12.482 29.5612C8.65415 29.544 4.8263 29.5534 0.998438 29.555V27.9138L1 27.9153Z" fill="#4B7BB3"/>
<path d="M1 32.134C4.84662 32.134 8.69323 32.1387 12.5398 32.134C12.8634 32.134 13.0635 32.134 13.0728 32.5779C13.1635 36.9841 13.7559 41.3215 14.9172 45.5761C14.9266 45.612 14.9141 45.6527 14.911 45.7355C14.7015 45.7355 14.4905 45.7355 14.2795 45.7355C11.1753 45.7449 8.07114 45.7465 4.96697 45.7793C4.67468 45.7824 4.64342 45.6136 4.56371 45.462C2.95066 42.3828 1.88155 39.1239 1.33762 35.6899C1.22977 35.0116 1.27197 34.3082 0.998438 33.658V32.134H1Z" fill="#4B7BB3"/>
<path d="M61 33.6579C60.7265 34.3081 60.7671 35.0115 60.6608 35.6898C60.1169 39.1254 59.0478 42.3827 57.4347 45.4619C57.355 45.6135 57.3253 45.7823 57.033 45.7792C53.9289 45.7464 50.8247 45.7448 47.7205 45.7354C47.5095 45.7354 47.2985 45.7354 47.0484 45.7354C47.6158 43.5925 48.0675 41.4809 48.3692 39.338C48.6802 37.1325 48.899 34.9193 48.924 32.692C48.9287 32.2184 49.0788 32.1261 49.5196 32.1277C53.3474 32.1433 57.1737 32.134 61.0016 32.134V33.6579H61Z" fill="#4B7BB3"/>
<path d="M22.6198 29.5519C20.4144 29.5519 18.2105 29.5488 16.0051 29.5566C15.7159 29.5566 15.5534 29.5488 15.5674 29.1627C15.7237 24.9206 16.2849 20.7427 17.3962 16.6381C17.5494 16.0739 17.7854 15.9363 18.3387 15.941C21.9477 15.9676 25.5583 15.9629 29.1674 15.9426C29.6284 15.9395 29.7363 16.0614 29.7347 16.5147C29.716 20.6708 29.7175 24.8269 29.7347 28.9814C29.7363 29.419 29.6535 29.5691 29.1752 29.5628C26.99 29.5331 24.8049 29.5503 22.6198 29.5503V29.5519Z" fill="#4B7BB3"/>
<path d="M22.6417 32.1386C24.8471 32.1386 27.051 32.148 29.2564 32.1292C29.6409 32.1261 29.7379 32.2308 29.7363 32.6106C29.7222 36.8246 29.7238 41.0385 29.7363 45.2524C29.7363 45.6135 29.6738 45.7463 29.2705 45.7448C25.5442 45.7276 21.818 45.7276 18.0902 45.7448C17.6994 45.7463 17.5744 45.615 17.4712 45.2524C16.288 41.0854 15.7316 36.8277 15.5706 32.5075C15.5549 32.0901 15.7691 32.1355 16.0285 32.137C18.234 32.1386 20.4378 32.137 22.6433 32.137L22.6417 32.1386Z" fill="#4B7BB3"/>
<path d="M39.3145 29.5519C37.1294 29.5519 34.9443 29.5441 32.7592 29.5597C32.4013 29.5628 32.2621 29.5003 32.2637 29.0939C32.2809 24.8597 32.2793 20.627 32.2637 16.3928C32.2637 16.0239 32.3637 15.9457 32.7186 15.9473C36.4651 15.9614 40.2101 15.9598 43.9567 15.9473C44.285 15.9473 44.4147 16.0364 44.5085 16.3693C45.7042 20.5535 46.2653 24.83 46.4279 29.1705C46.442 29.5691 46.2653 29.5566 45.9871 29.555C43.7629 29.5488 41.5387 29.5519 39.3145 29.5519Z" fill="#4B7BB3"/>
<path d="M39.3614 32.1386C41.5278 32.1386 43.6926 32.1574 45.8589 32.1246C46.3747 32.1167 46.4341 32.2684 46.4169 32.7419C46.2638 36.9262 45.6854 41.0432 44.5866 45.0883C44.4569 45.5682 44.2834 45.7573 43.7363 45.7526C40.107 45.7198 36.4776 45.7292 32.8498 45.7448C32.4247 45.7464 32.259 45.6823 32.2621 45.193C32.2856 41.0182 32.2825 36.8433 32.2637 32.6669C32.2621 32.2261 32.37 32.1214 32.8061 32.1261C34.9912 32.1511 37.1763 32.1371 39.3614 32.1371V32.1386Z" fill="#4B7BB3"/>
<path d="M29.7269 7.22392C29.7269 9.09643 29.716 10.9689 29.7363 12.8414C29.741 13.2385 29.6503 13.3697 29.2283 13.3666C25.8147 13.3494 22.401 13.3541 18.9889 13.3604C18.6638 13.3604 18.4653 13.3713 18.6388 12.9321C19.8939 9.75602 21.471 6.77845 23.8827 4.31199C25.3504 2.81149 27.0385 1.67204 29.1095 1.14842C29.6503 1.01244 29.7504 1.13436 29.741 1.66735C29.7082 3.51954 29.7285 5.37329 29.7285 7.22548L29.7269 7.22392Z" fill="#4B7BB3"/>
<path d="M32.2731 7.15838C32.2731 5.30619 32.2887 3.45243 32.2621 1.60024C32.2559 1.12039 32.3528 1.01254 32.8405 1.1329C35.2475 1.72998 37.1169 3.14139 38.7221 4.9545C40.801 7.30374 42.2218 10.039 43.3628 12.9369C43.5035 13.2948 43.4175 13.362 43.0627 13.3605C39.6099 13.3511 36.1588 13.348 32.7061 13.3636C32.3215 13.3652 32.2637 13.2276 32.2653 12.8916C32.2793 10.98 32.2715 9.0684 32.2715 7.15838H32.2731Z" fill="#4B7BB3"/>
<path d="M29.7269 54.5307C29.7269 56.3829 29.7128 58.2366 29.7363 60.0888C29.7425 60.564 29.6519 60.6796 29.1595 60.5577C26.7744 59.9638 24.9128 58.5711 23.3154 56.7799C21.2147 54.4244 19.7814 51.6719 18.6357 48.7537C18.4966 48.4005 18.5763 48.327 18.9342 48.3286C22.3869 48.338 25.8381 48.3411 29.2908 48.3255C29.6738 48.3239 29.7363 48.4567 29.7332 48.7959C29.7191 50.7075 29.7269 52.6191 29.7269 54.5291V54.5307Z" fill="#4B7BB3"/>
<path d="M32.2731 54.4524C32.2731 52.5799 32.2856 50.7074 32.2637 48.8364C32.259 48.4175 32.3856 48.3253 32.7873 48.3269C36.1807 48.3425 39.574 48.3347 42.9689 48.3394C43.1955 48.3394 43.5863 48.1925 43.3784 48.7192C42.103 51.95 40.504 54.9823 38.0297 57.4753C36.5652 58.9508 34.8771 60.0637 32.8233 60.5607C32.3966 60.6639 32.2575 60.6139 32.2637 60.1278C32.2918 58.2365 32.2747 56.3452 32.2747 54.4524H32.2731Z" fill="#4B7BB3"/>
<path d="M55.7154 13.3557H53.9773C51.5968 13.3557 49.2163 13.3385 46.8358 13.3697C46.3575 13.376 46.1669 13.2212 46.0137 12.7914C44.7633 9.30117 43.0877 6.04538 40.6275 3.23661C39.921 2.43009 39.1535 1.68921 38.3001 1.03118C39.6647 0.885817 45.1884 3.39604 48.0925 5.48425C51.0748 7.62716 53.6006 10.2093 55.717 13.3572L55.7154 13.3557Z" fill="#4B7BB3"/>
<path d="M55.742 48.3348C51.3514 54.6322 45.6339 58.793 38.3267 60.7265C39.599 59.6448 40.7306 58.4366 41.7294 57.1065C43.5785 54.6416 44.9367 51.9125 45.9715 49.0241C46.1715 48.4645 46.4201 48.3113 46.9984 48.3191C49.6712 48.3566 52.3439 48.3348 55.0152 48.3348C55.2043 48.3348 55.395 48.3348 55.7404 48.3348H55.742Z" fill="#4B7BB3"/>
<path d="M6.25959 13.3557C10.622 7.08175 16.3177 2.94285 23.5873 1C22.8543 1.72837 22.09 2.41454 21.41 3.18824C18.9436 5.997 17.2539 9.24967 16.0035 12.743C15.8316 13.2245 15.6128 13.3761 15.0954 13.3714C12.2069 13.3401 9.31844 13.3557 6.25959 13.3557Z" fill="#4B7BB3"/>
<path d="M23.5858 60.761C16.3192 58.7525 10.6236 54.6042 6.26428 48.3349C6.59721 48.3349 6.78477 48.3349 6.97233 48.3349C9.70607 48.3349 12.4398 48.3521 15.1735 48.3193C15.6643 48.313 15.8378 48.4881 15.9894 48.9116C17.2367 52.3863 18.9045 55.6264 21.3491 58.4274C21.9665 59.1354 22.6433 59.7825 23.3544 60.3937C23.4514 60.4765 23.6123 60.5156 23.5842 60.7625L23.5858 60.761Z" fill="#4B7BB3"/>
</g>
<defs>
<clipPath id="clip0_178_720">
<rect width="60" height="59.7609" fill="white" transform="translate(1 1)"/>
</clipPath>
</defs>
</svg>
